<?xml version="1.0" encoding="utf-8"?>
<svg xmlns="http://www.w3.org/2000/svg" xmlns:xlink="http://www.w3.org/1999/xlink" width="570" height="480" viewBox="0 0 2280 1920">
<defs>
  <clipPath id="clip580">
    <rect x="0" y="0" width="2280" height="1920"/>
  </clipPath>
</defs>
<path clip-path="url(#clip580)" d="M0 1920 L2280 1920 L2280 0 L0 0  Z" fill="#ffffff" fill-rule="evenodd" fill-opacity="1"/>
<defs>
  <clipPath id="clip581">
    <rect x="456" y="0" width="1597" height="1597"/>
  </clipPath>
</defs>
<path clip-path="url(#clip580)" d="M47.2441 1872.76 L2232.76 1872.76 L2232.76 47.2441 L47.2441 47.2441  Z" fill="#ffffff" fill-rule="evenodd" fill-opacity="1"/>
<defs>
  <clipPath id="clip582">
    <rect x="47" y="47" width="2187" height="1827"/>
  </clipPath>
</defs>
<polyline clip-path="url(#clip582)" style="stroke:#24292e; stroke-linecap:round; stroke-linejoin:round; stroke-width:0; stroke-opacity:1; fill:none" points="234.574,1765.37 2232.76,1765.37 "/>
<path clip-path="url(#clip582)" d="M2198.56 1765.37 L2198.56 1748.27 L2232.76 1765.37 L2198.56 1782.47  Z" fill="#24292e" fill-rule="evenodd" fill-opacity="1"/>
<polyline clip-path="url(#clip582)" style="stroke:#24292e; stroke-linecap:round; stroke-linejoin:round; stroke-width:0; stroke-opacity:1; fill:none" points="2198.56,1765.37 234.574,1765.37 "/>
<polyline clip-path="url(#clip582)" style="stroke:#24292e; stroke-linecap:round; stroke-linejoin:round; stroke-width:10; stroke-opacity:1; fill:none" points="234.574,1765.37 2220.27,1765.37 "/>
<polyline clip-path="url(#clip582)" style="stroke:#24292e; stroke-linecap:round; stroke-linejoin:round; stroke-width:0; stroke-opacity:1; fill:none" points="359.46,1872.76 359.46,47.2441 "/>
<path clip-path="url(#clip582)" d="M359.46 81.4441 L342.36 81.4441 L359.46 47.2441 L376.56 81.4441  Z" fill="#24292e" fill-rule="evenodd" fill-opacity="1"/>
<polyline clip-path="url(#clip582)" style="stroke:#24292e; stroke-linecap:round; stroke-linejoin:round; stroke-width:0; stroke-opacity:1; fill:none" points="359.46,81.4441 359.46,1872.76 "/>
<polyline clip-path="url(#clip582)" style="stroke:#24292e; stroke-linecap:round; stroke-linejoin:round; stroke-width:10; stroke-opacity:1; fill:none" points="359.46,1872.76 359.46,57.9824 "/>
<polyline clip-path="url(#clip582)" style="stroke:#24292e; stroke-linecap:round; stroke-linejoin:round; stroke-width:0; stroke-opacity:1; fill:none" points="484.346,1657.99 1982.98,369.393 "/>
<path clip-path="url(#clip582)" d="M1957.05 391.691 L1945.9 378.725 L1982.98 369.393 L1968.2 404.657  Z" fill="#24292e" fill-rule="evenodd" fill-opacity="1"/>
<polyline clip-path="url(#clip582)" style="stroke:#24292e; stroke-linecap:round; stroke-linejoin:round; stroke-width:0; stroke-opacity:1; fill:none" points="1957.05,391.691 484.346,1657.99 "/>
<polyline clip-path="url(#clip582)" style="stroke:#24292e; stroke-linecap:round; stroke-linejoin:round; stroke-width:10; stroke-opacity:1; fill:none" points="484.346,1657.99 1970.49,380.132 "/>
<path clip-path="url(#clip580)" d="M47.2441 1524.69 L54.2579 1524.69 L54.2579 1545.94 L79.7439 1545.94 L79.7439 1524.69 L86.7578 1524.69 L86.7578 1576.53 L79.7439 1576.53 L79.7439 1551.84 L54.2579 1551.84 L54.2579 1576.53 L47.2441 1576.53 L47.2441 1524.69 Z" fill="#000000" fill-rule="nonzero" fill-opacity="1" /><path clip-path="url(#clip580)" d="M100.716 1524.69 L130.508 1524.69 L130.508 1530.59 L107.73 1530.59 L107.73 1545.87 L128.285 1545.87 L128.285 1551.77 L107.73 1551.77 L107.73 1576.53 L100.716 1576.53 L100.716 1524.69 Z" fill="#000000" fill-rule="nonzero" fill-opacity="1" /><path clip-path="url(#clip580)" d="M89.0494 1313.91 L89.0494 1321.31 Q85.5078 1318.01 81.48 1316.38 Q77.487 1314.75 72.9731 1314.75 Q64.0843 1314.75 59.3621 1320.2 Q54.6399 1325.62 54.6399 1335.89 Q54.6399 1346.14 59.3621 1351.59 Q64.0843 1357 72.9731 1357 Q77.487 1357 81.48 1355.37 Q85.5078 1353.74 89.0494 1350.44 L89.0494 1357.77 Q85.3689 1360.27 81.237 1361.52 Q77.1398 1362.77 72.5565 1362.77 Q60.7857 1362.77 54.0149 1355.58 Q47.2441 1348.36 47.2441 1335.89 Q47.2441 1323.39 54.0149 1316.21 Q60.7857 1308.98 72.5565 1308.98 Q77.2092 1308.98 81.3064 1310.23 Q85.4383 1311.45 89.0494 1313.91 Z" fill="#000000" fill-rule="nonzero" fill-opacity="1" /><path clip-path="url(#clip580)" d="M99.8827 1309.92 L106.897 1309.92 L106.897 1361.76 L99.8827 1361.76 L99.8827 1309.92 Z" fill="#000000" fill-rule="nonzero" fill-opacity="1" /><path clip-path="url(#clip580)" d="M151.931 1311.62 L151.931 1318.46 Q147.938 1316.55 144.396 1315.62 Q140.855 1314.68 137.556 1314.68 Q131.827 1314.68 128.702 1316.9 Q125.612 1319.12 125.612 1323.22 Q125.612 1326.66 127.66 1328.43 Q129.744 1330.16 135.508 1331.24 L139.744 1332.11 Q147.591 1333.6 151.306 1337.39 Q155.056 1341.14 155.056 1347.46 Q155.056 1354.99 149.987 1358.88 Q144.952 1362.77 135.195 1362.77 Q131.514 1362.77 127.348 1361.93 Q123.216 1361.1 118.771 1359.47 L118.771 1352.25 Q123.042 1354.64 127.139 1355.86 Q131.237 1357.07 135.195 1357.07 Q141.202 1357.07 144.466 1354.71 Q147.73 1352.35 147.73 1347.98 Q147.73 1344.16 145.369 1342 Q143.042 1339.85 137.695 1338.77 L133.424 1337.94 Q125.577 1336.38 122.07 1333.05 Q118.563 1329.71 118.563 1323.77 Q118.563 1316.9 123.39 1312.94 Q128.251 1308.98 136.758 1308.98 Q140.403 1308.98 144.188 1309.64 Q147.973 1310.3 151.931 1311.62 Z" fill="#000000" fill-rule="nonzero" fill-opacity="1" /><path clip-path="url(#clip580)" d="M89.0494 1099.15 L89.0494 1106.54 Q85.5078 1103.24 81.48 1101.61 Q77.487 1099.98 72.9731 1099.98 Q64.0843 1099.98 59.3621 1105.43 Q54.6399 1110.85 54.6399 1121.13 Q54.6399 1131.37 59.3621 1136.82 Q64.0843 1142.24 72.9731 1142.24 Q77.487 1142.24 81.48 1140.61 Q85.5078 1138.97 89.0494 1135.68 L89.0494 1143 Q85.3689 1145.5 81.237 1146.75 Q77.1398 1148 72.5565 1148 Q60.7857 1148 54.0149 1140.81 Q47.2441 1133.59 47.2441 1121.13 Q47.2441 1108.63 54.0149 1101.44 Q60.7857 1094.22 72.5565 1094.22 Q77.2092 1094.22 81.3064 1095.47 Q85.4383 1096.68 89.0494 1099.15 Z" fill="#000000" fill-rule="nonzero" fill-opacity="1" /><path clip-path="url(#clip580)" d="M99.8827 1095.15 L106.897 1095.15 L106.897 1146.99 L99.8827 1146.99 L99.8827 1095.15 Z" fill="#000000" fill-rule="nonzero" fill-opacity="1" /><path clip-path="url(#clip580)" d="M151.931 1096.86 L151.931 1103.7 Q147.938 1101.79 144.396 1100.85 Q140.855 1099.91 137.556 1099.91 Q131.827 1099.91 128.702 1102.13 Q125.612 1104.36 125.612 1108.45 Q125.612 1111.89 127.66 1113.66 Q129.744 1115.4 135.508 1116.47 L139.744 1117.34 Q147.591 1118.84 151.306 1122.62 Q155.056 1126.37 155.056 1132.69 Q155.056 1140.22 149.987 1144.11 Q144.952 1148 135.195 1148 Q131.514 1148 127.348 1147.17 Q123.216 1146.33 118.771 1144.7 L118.771 1137.48 Q123.042 1139.88 127.139 1141.09 Q131.237 1142.31 135.195 1142.31 Q141.202 1142.31 144.466 1139.95 Q147.73 1137.58 147.73 1133.21 Q147.73 1129.39 145.369 1127.24 Q143.042 1125.08 137.695 1124.01 L133.424 1123.18 Q125.577 1121.61 122.07 1118.28 Q118.563 1114.95 118.563 1109.01 Q118.563 1102.13 123.39 1098.18 Q128.251 1094.22 136.758 1094.22 Q140.403 1094.22 144.188 1094.88 Q147.973 1095.54 151.931 1096.86 Z" fill="#000000" fill-rule="nonzero" fill-opacity="1" /><path clip-path="url(#clip580)" d="M173.007 1100.92 L173.007 1141.23 L181.479 1141.23 Q192.209 1141.23 197.174 1136.37 Q202.174 1131.51 202.174 1121.02 Q202.174 1110.61 197.174 1105.78 Q192.209 1100.92 181.479 1100.92 L173.007 1100.92 M165.993 1095.15 L180.403 1095.15 Q195.472 1095.15 202.521 1101.44 Q209.57 1107.69 209.57 1121.02 Q209.57 1134.43 202.486 1140.71 Q195.403 1146.99 180.403 1146.99 L165.993 1146.99 L165.993 1095.15 Z" fill="#000000" fill-rule="nonzero" fill-opacity="1" /><path clip-path="url(#clip580)" d="M89.0494 884.382 L89.0494 891.777 Q85.5078 888.479 81.48 886.847 Q77.487 885.215 72.9731 885.215 Q64.0843 885.215 59.3621 890.666 Q54.6399 896.083 54.6399 906.361 Q54.6399 916.604 59.3621 922.055 Q64.0843 927.472 72.9731 927.472 Q77.487 927.472 81.48 925.84 Q85.5078 924.208 89.0494 920.909 L89.0494 928.235 Q85.3689 930.735 81.237 931.985 Q77.1398 933.235 72.5565 933.235 Q60.7857 933.235 54.0149 926.048 Q47.2441 918.826 47.2441 906.361 Q47.2441 893.861 54.0149 886.673 Q60.7857 879.451 72.5565 879.451 Q77.2092 879.451 81.3064 880.701 Q85.4383 881.916 89.0494 884.382 Z" fill="#000000" fill-rule="nonzero" fill-opacity="1" /><path clip-path="url(#clip580)" d="M99.8827 880.388 L106.897 880.388 L106.897 932.228 L99.8827 932.228 L99.8827 880.388 Z" fill="#000000" fill-rule="nonzero" fill-opacity="1" /><path clip-path="url(#clip580)" d="M151.931 882.09 L151.931 888.93 Q147.938 887.02 144.396 886.083 Q140.855 885.145 137.556 885.145 Q131.827 885.145 128.702 887.368 Q125.612 889.59 125.612 893.687 Q125.612 897.124 127.66 898.895 Q129.744 900.631 135.508 901.708 L139.744 902.576 Q147.591 904.069 151.306 907.854 Q155.056 911.604 155.056 917.923 Q155.056 925.458 149.987 929.347 Q144.952 933.235 135.195 933.235 Q131.514 933.235 127.348 932.402 Q123.216 931.569 118.771 929.937 L118.771 922.715 Q123.042 925.11 127.139 926.326 Q131.237 927.541 135.195 927.541 Q141.202 927.541 144.466 925.18 Q147.73 922.819 147.73 918.444 Q147.73 914.624 145.369 912.472 Q143.042 910.319 137.695 909.242 L133.424 908.409 Q125.577 906.847 122.07 903.513 Q118.563 900.18 118.563 894.243 Q118.563 887.368 123.39 883.409 Q128.251 879.451 136.758 879.451 Q140.403 879.451 144.188 880.111 Q147.973 880.77 151.931 882.09 Z" fill="#000000" fill-rule="nonzero" fill-opacity="1" /><path clip-path="url(#clip580)" d="M173.007 886.152 L173.007 926.465 L181.479 926.465 Q192.209 926.465 197.174 921.604 Q202.174 916.742 202.174 906.256 Q202.174 895.84 197.174 891.013 Q192.209 886.152 181.479 886.152 L173.007 886.152 M165.993 880.388 L180.403 880.388 Q195.472 880.388 202.521 886.673 Q209.57 892.923 209.57 906.256 Q209.57 919.659 202.486 925.944 Q195.403 932.228 180.403 932.228 L165.993 932.228 L165.993 880.388 Z" fill="#000000" fill-rule="nonzero" fill-opacity="1" /><path clip-path="url(#clip580)" d="M213.563 880.388 L257.417 880.388 L257.417 886.291 L239.014 886.291 L239.014 932.228 L231.965 932.228 L231.965 886.291 L213.563 886.291 L213.563 880.388 Z" fill="#000000" fill-rule="nonzero" fill-opacity="1" /><path clip-path="url(#clip580)" d="M89.0494 669.615 L89.0494 677.011 Q85.5078 673.713 81.48 672.081 Q77.487 670.449 72.9731 670.449 Q64.0843 670.449 59.3621 675.9 Q54.6399 681.317 54.6399 691.594 Q54.6399 701.837 59.3621 707.289 Q64.0843 712.705 72.9731 712.705 Q77.487 712.705 81.48 711.074 Q85.5078 709.442 89.0494 706.143 L89.0494 713.469 Q85.3689 715.969 81.237 717.219 Q77.1398 718.469 72.5565 718.469 Q60.7857 718.469 54.0149 711.282 Q47.2441 704.06 47.2441 691.594 Q47.2441 679.095 54.0149 671.907 Q60.7857 664.685 72.5565 664.685 Q77.2092 664.685 81.3064 665.935 Q85.4383 667.15 89.0494 669.615 Z" fill="#000000" fill-rule="nonzero" fill-opacity="1" /><path clip-path="url(#clip580)" d="M99.8827 665.622 L106.897 665.622 L106.897 717.462 L99.8827 717.462 L99.8827 665.622 Z" fill="#000000" fill-rule="nonzero" fill-opacity="1" /><path clip-path="url(#clip580)" d="M151.931 667.324 L151.931 674.164 Q147.938 672.254 144.396 671.317 Q140.855 670.379 137.556 670.379 Q131.827 670.379 128.702 672.602 Q125.612 674.824 125.612 678.921 Q125.612 682.358 127.66 684.129 Q129.744 685.865 135.508 686.942 L139.744 687.81 Q147.591 689.303 151.306 693.088 Q155.056 696.837 155.056 703.157 Q155.056 710.692 149.987 714.58 Q144.952 718.469 135.195 718.469 Q131.514 718.469 127.348 717.636 Q123.216 716.803 118.771 715.171 L118.771 707.949 Q123.042 710.344 127.139 711.56 Q131.237 712.775 135.195 712.775 Q141.202 712.775 144.466 710.414 Q147.73 708.053 147.73 703.678 Q147.73 699.858 145.369 697.706 Q143.042 695.553 137.695 694.476 L133.424 693.643 Q125.577 692.081 122.07 688.747 Q118.563 685.414 118.563 679.476 Q118.563 672.602 123.39 668.643 Q128.251 664.685 136.758 664.685 Q140.403 664.685 144.188 665.345 Q147.973 666.004 151.931 667.324 Z" fill="#000000" fill-rule="nonzero" fill-opacity="1" /><path clip-path="url(#clip580)" d="M173.007 671.386 L173.007 711.699 L181.479 711.699 Q192.209 711.699 197.174 706.837 Q202.174 701.976 202.174 691.49 Q202.174 681.074 197.174 676.247 Q192.209 671.386 181.479 671.386 L173.007 671.386 M165.993 665.622 L180.403 665.622 Q195.472 665.622 202.521 671.907 Q209.57 678.157 209.57 691.49 Q209.57 704.893 202.486 711.178 Q195.403 717.462 180.403 717.462 L165.993 717.462 L165.993 665.622 Z" fill="#000000" fill-rule="nonzero" fill-opacity="1" /><path clip-path="url(#clip580)" d="M213.563 665.622 L257.417 665.622 L257.417 671.525 L239.014 671.525 L239.014 717.462 L231.965 717.462 L231.965 671.525 L213.563 671.525 L213.563 665.622 Z" fill="#000000" fill-rule="nonzero" fill-opacity="1" /><path clip-path="url(#clip580)" d="M285.229 670.379 Q277.59 670.379 273.076 676.074 Q268.597 681.768 268.597 691.594 Q268.597 701.386 273.076 707.08 Q277.59 712.775 285.229 712.775 Q292.868 712.775 297.312 707.08 Q301.791 701.386 301.791 691.594 Q301.791 681.768 297.312 676.074 Q292.868 670.379 285.229 670.379 M295.055 716.525 L304.291 726.629 L295.819 726.629 L288.146 718.33 Q287 718.4 286.375 718.435 Q285.784 718.469 285.229 718.469 Q274.291 718.469 267.729 711.178 Q261.201 703.851 261.201 691.594 Q261.201 679.303 267.729 672.011 Q274.291 664.685 285.229 664.685 Q296.132 664.685 302.659 672.011 Q309.187 679.303 309.187 691.594 Q309.187 700.622 305.541 707.046 Q301.93 713.469 295.055 716.525 Z" fill="#000000" fill-rule="nonzero" fill-opacity="1" /><path clip-path="url(#clip580)" d="M47.2441 493.877 L54.5704 493.877 L54.5704 502.696 L47.2441 502.696 L47.2441 493.877 Z" fill="#000000" fill-rule="nonzero" fill-opacity="1" /><path clip-path="url(#clip580)" d="M69.8481 493.877 L77.1745 493.877 L77.1745 502.696 L69.8481 502.696 L69.8481 493.877 Z" fill="#000000" fill-rule="nonzero" fill-opacity="1" /><path clip-path="url(#clip580)" d="M92.4522 493.877 L99.7785 493.877 L99.7785 502.696 L92.4522 502.696 L92.4522 493.877 Z" fill="#000000" fill-rule="nonzero" fill-opacity="1" /><path clip-path="url(#clip580)" d="M47.2441 236.09 L77.0356 236.09 L77.0356 241.993 L54.2579 241.993 L54.2579 257.271 L74.8134 257.271 L74.8134 263.173 L54.2579 263.173 L54.2579 287.93 L47.2441 287.93 L47.2441 236.09 Z" fill="#000000" fill-rule="nonzero" fill-opacity="1" /><path clip-path="url(#clip580)" d="M83.3203 272.583 L83.3203 249.042 L89.7091 249.042 L89.7091 272.34 Q89.7091 277.861 91.8619 280.639 Q94.0147 283.382 98.3202 283.382 Q103.494 283.382 106.48 280.083 Q109.501 276.784 109.501 271.09 L109.501 249.042 L115.89 249.042 L115.89 287.93 L109.501 287.93 L109.501 281.958 Q107.174 285.5 104.084 287.236 Q101.029 288.937 96.9661 288.937 Q90.2647 288.937 86.7925 284.77 Q83.3203 280.604 83.3203 272.583 M99.3966 248.104 L99.3966 248.104 Z" fill="#000000" fill-rule="nonzero" fill-opacity="1" /><path clip-path="url(#clip580)" d="M129.049 233.903 L135.438 233.903 L135.438 287.93 L129.049 287.93 L129.049 233.903 Z" fill="#000000" fill-rule="nonzero" fill-opacity="1" /><path clip-path="url(#clip580)" d="M148.806 233.903 L155.195 233.903 L155.195 287.93 L148.806 287.93 L148.806 233.903 Z" fill="#000000" fill-rule="nonzero" fill-opacity="1" /><path clip-path="url(#clip580)" d="M230.264 240.083 L230.264 247.479 Q226.722 244.18 222.695 242.548 Q218.702 240.917 214.188 240.917 Q205.299 240.917 200.577 246.368 Q195.854 251.785 195.854 262.062 Q195.854 272.305 200.577 277.757 Q205.299 283.173 214.188 283.173 Q218.702 283.173 222.695 281.541 Q226.722 279.909 230.264 276.611 L230.264 283.937 Q226.583 286.437 222.451 287.687 Q218.354 288.937 213.771 288.937 Q202 288.937 195.229 281.75 Q188.459 274.527 188.459 262.062 Q188.459 249.562 195.229 242.375 Q202 235.153 213.771 235.153 Q218.424 235.153 222.521 236.403 Q226.653 237.618 230.264 240.083 Z" fill="#000000" fill-rule="nonzero" fill-opacity="1" /><path clip-path="url(#clip580)" d="M241.097 236.09 L248.111 236.09 L248.111 287.93 L241.097 287.93 L241.097 236.09 Z" fill="#000000" fill-rule="nonzero" fill-opacity="1" /><path clip-path="url(#clip580)" d="M599.615 1807.07 L599.615 1813.91 Q595.622 1812 592.08 1811.06 Q588.539 1810.12 585.24 1810.12 Q579.511 1810.12 576.386 1812.34 Q573.296 1814.57 573.296 1818.66 Q573.296 1822.1 575.344 1823.87 Q577.427 1825.61 583.191 1826.68 L587.427 1827.55 Q595.275 1829.04 598.99 1832.83 Q602.74 1836.58 602.74 1842.9 Q602.74 1850.43 597.67 1854.32 Q592.636 1858.21 582.879 1858.21 Q579.198 1858.21 575.032 1857.38 Q570.9 1856.54 566.455 1854.91 L566.455 1847.69 Q570.726 1850.09 574.823 1851.3 Q578.921 1852.52 582.879 1852.52 Q588.886 1852.52 592.15 1850.16 Q595.413 1847.79 595.413 1843.42 Q595.413 1839.6 593.052 1837.45 Q590.726 1835.29 585.379 1834.22 L581.108 1833.38 Q573.261 1831.82 569.754 1828.49 Q566.247 1825.16 566.247 1819.22 Q566.247 1812.34 571.073 1808.38 Q575.934 1804.43 584.441 1804.43 Q588.087 1804.43 591.872 1805.09 Q595.657 1805.75 599.615 1807.07 Z" fill="#000000" fill-rule="nonzero" fill-opacity="1" /><path clip-path="url(#clip580)" d="M610.691 1805.36 L651.42 1805.36 L651.42 1810.71 L618.643 1851.3 L652.219 1851.3 L652.219 1857.2 L609.893 1857.2 L609.893 1851.86 L642.67 1811.27 L610.691 1811.27 L610.691 1805.36 Z" fill="#000000" fill-rule="nonzero" fill-opacity="1" /><path clip-path="url(#clip580)" d="M819.37 1811.13 L819.37 1851.44 L827.843 1851.44 Q838.572 1851.44 843.537 1846.58 Q848.537 1841.72 848.537 1831.23 Q848.537 1820.82 843.537 1815.99 Q838.572 1811.13 827.843 1811.13 L819.37 1811.13 M812.357 1805.36 L826.766 1805.36 Q841.836 1805.36 848.884 1811.65 Q855.933 1817.9 855.933 1831.23 Q855.933 1844.63 848.849 1850.92 Q841.766 1857.2 826.766 1857.2 L812.357 1857.2 L812.357 1805.36 Z" fill="#000000" fill-rule="nonzero" fill-opacity="1" /><path clip-path="url(#clip580)" d="M864.127 1805.36 L904.856 1805.36 L904.856 1810.71 L872.078 1851.3 L905.655 1851.3 L905.655 1857.2 L863.329 1857.2 L863.329 1851.86 L896.106 1811.27 L864.127 1811.27 L864.127 1805.36 Z" fill="#000000" fill-rule="nonzero" fill-opacity="1" /><path clip-path="url(#clip580)" d="M1064.2 1805.36 L1108.05 1805.36 L1108.05 1811.27 L1089.65 1811.27 L1089.65 1857.2 L1082.6 1857.2 L1082.6 1811.27 L1064.2 1811.27 L1064.2 1805.36 Z" fill="#000000" fill-rule="nonzero" fill-opacity="1" /><path clip-path="url(#clip580)" d="M1111.83 1805.36 L1152.56 1805.36 L1152.56 1810.71 L1119.79 1851.3 L1153.36 1851.3 L1153.36 1857.2 L1111.04 1857.2 L1111.04 1851.86 L1143.81 1811.27 L1111.83 1811.27 L1111.83 1805.36 Z" fill="#000000" fill-rule="nonzero" fill-opacity="1" /><path clip-path="url(#clip580)" d="M1333.83 1810.12 Q1326.19 1810.12 1321.68 1815.82 Q1317.2 1821.51 1317.2 1831.34 Q1317.2 1841.13 1321.68 1846.82 Q1326.19 1852.52 1333.83 1852.52 Q1341.47 1852.52 1345.91 1846.82 Q1350.39 1841.13 1350.39 1831.34 Q1350.39 1821.51 1345.91 1815.82 Q1341.47 1810.12 1333.83 1810.12 M1343.66 1856.27 L1352.89 1866.37 L1344.42 1866.37 L1336.75 1858.07 Q1335.6 1858.14 1334.97 1858.18 Q1334.38 1858.21 1333.83 1858.21 Q1322.89 1858.21 1316.33 1850.92 Q1309.8 1843.59 1309.8 1831.34 Q1309.8 1819.04 1316.33 1811.75 Q1322.89 1804.43 1333.83 1804.43 Q1344.73 1804.43 1351.26 1811.75 Q1357.79 1819.04 1357.79 1831.34 Q1357.79 1840.36 1354.14 1846.79 Q1350.53 1853.21 1343.66 1856.27 Z" fill="#000000" fill-rule="nonzero" fill-opacity="1" /><path clip-path="url(#clip580)" d="M1365.77 1805.36 L1406.5 1805.36 L1406.5 1810.71 L1373.72 1851.3 L1407.3 1851.3 L1407.3 1857.2 L1364.97 1857.2 L1364.97 1851.86 L1397.75 1811.27 L1365.77 1811.27 L1365.77 1805.36 Z" fill="#000000" fill-rule="nonzero" fill-opacity="1" /><path clip-path="url(#clip580)" d="M1567.87 1805.36 L1595.41 1805.36 L1595.41 1811.27 L1574.3 1811.27 L1574.3 1823.97 Q1575.82 1823.45 1577.35 1823.21 Q1578.88 1822.93 1580.41 1822.93 Q1589.09 1822.93 1594.16 1827.69 Q1599.23 1832.45 1599.23 1840.57 Q1599.23 1848.94 1594.02 1853.59 Q1588.81 1858.21 1579.33 1858.21 Q1576.07 1858.21 1572.66 1857.66 Q1569.3 1857.1 1565.69 1855.99 L1565.69 1848.94 Q1568.81 1850.64 1572.14 1851.47 Q1575.48 1852.31 1579.19 1852.31 Q1585.2 1852.31 1588.71 1849.15 Q1592.21 1845.99 1592.21 1840.57 Q1592.21 1835.16 1588.71 1832 Q1585.2 1828.84 1579.19 1828.84 Q1576.38 1828.84 1573.57 1829.46 Q1570.79 1830.09 1567.87 1831.41 L1567.87 1805.36 Z" fill="#000000" fill-rule="nonzero" fill-opacity="1" /><path clip-path="url(#clip580)" d="M1609.44 1805.36 L1650.16 1805.36 L1650.16 1810.71 L1617.39 1851.3 L1650.96 1851.3 L1650.96 1857.2 L1608.64 1857.2 L1608.64 1851.86 L1641.41 1811.27 L1609.44 1811.27 L1609.44 1805.36 Z" fill="#000000" fill-rule="nonzero" fill-opacity="1" /><path clip-path="url(#clip580)" d="M1831.83 1848.38 L1839.16 1848.38 L1839.16 1857.2 L1831.83 1857.2 L1831.83 1848.38 Z" fill="#000000" fill-rule="nonzero" fill-opacity="1" /><path clip-path="url(#clip580)" d="M1854.43 1848.38 L1861.76 1848.38 L1861.76 1857.2 L1854.43 1857.2 L1854.43 1848.38 Z" fill="#000000" fill-rule="nonzero" fill-opacity="1" /><path clip-path="url(#clip580)" d="M1877.04 1848.38 L1884.36 1848.38 L1884.36 1857.2 L1877.04 1857.2 L1877.04 1848.38 Z" fill="#000000" fill-rule="nonzero" fill-opacity="1" /><path clip-path="url(#clip580)" d="M1975.51 1805.36 L1982.52 1805.36 L1982.52 1826.61 L2008.01 1826.61 L2008.01 1805.36 L2015.02 1805.36 L2015.02 1857.2 L2008.01 1857.2 L2008.01 1832.52 L1982.52 1832.52 L1982.52 1857.2 L1975.51 1857.2 L1975.51 1805.36 Z" fill="#000000" fill-rule="nonzero" fill-opacity="1" /><path clip-path="url(#clip580)" d="M2028.98 1805.36 L2058.77 1805.36 L2058.77 1811.27 L2035.99 1811.27 L2035.99 1826.54 L2056.55 1826.54 L2056.55 1832.45 L2035.99 1832.45 L2035.99 1857.2 L2028.98 1857.2 L2028.98 1805.36 Z" fill="#000000" fill-rule="nonzero" fill-opacity="1" /><path clip-path="url(#clip580)" d="M2092.21 1803.18 L2098.6 1803.18 L2098.6 1857.2 L2092.21 1857.2 L2092.21 1803.18 Z" fill="#000000" fill-rule="nonzero" fill-opacity="1" /><path clip-path="url(#clip580)" d="M2111.97 1818.32 L2118.36 1818.32 L2118.36 1857.2 L2111.97 1857.2 L2111.97 1818.32 M2111.97 1803.18 L2118.36 1803.18 L2118.36 1811.27 L2111.97 1811.27 L2111.97 1803.18 Z" fill="#000000" fill-rule="nonzero" fill-opacity="1" /><path clip-path="url(#clip580)" d="M2162 1825.78 Q2164.4 1821.47 2167.73 1819.43 Q2171.06 1817.38 2175.58 1817.38 Q2181.65 1817.38 2184.95 1821.65 Q2188.25 1825.88 2188.25 1833.73 L2188.25 1857.2 L2181.83 1857.2 L2181.83 1833.94 Q2181.83 1828.35 2179.85 1825.64 Q2177.87 1822.93 2173.81 1822.93 Q2168.84 1822.93 2165.96 1826.23 Q2163.08 1829.53 2163.08 1835.22 L2163.08 1857.2 L2156.65 1857.2 L2156.65 1833.94 Q2156.65 1828.32 2154.67 1825.64 Q2152.7 1822.93 2148.56 1822.93 Q2143.67 1822.93 2140.79 1826.27 Q2137.9 1829.57 2137.9 1835.22 L2137.9 1857.2 L2131.48 1857.2 L2131.48 1818.32 L2137.9 1818.32 L2137.9 1824.36 Q2140.09 1820.78 2143.15 1819.08 Q2146.2 1817.38 2150.4 1817.38 Q2154.64 1817.38 2157.59 1819.53 Q2160.58 1821.68 2162 1825.78 Z" fill="#000000" fill-rule="nonzero" fill-opacity="1" /><path clip-path="url(#clip580)" d="M2200.99 1818.32 L2207.38 1818.32 L2207.38 1857.2 L2200.99 1857.2 L2200.99 1818.32 M2200.99 1803.18 L2207.38 1803.18 L2207.38 1811.27 L2200.99 1811.27 L2200.99 1803.18 Z" fill="#000000" fill-rule="nonzero" fill-opacity="1" /><path clip-path="url(#clip580)" d="M2227.07 1807.27 L2227.07 1818.32 L2240.23 1818.32 L2240.23 1823.28 L2227.07 1823.28 L2227.07 1844.39 Q2227.07 1849.15 2228.35 1850.5 Q2229.67 1851.86 2233.67 1851.86 L2240.23 1851.86 L2240.23 1857.2 L2233.67 1857.2 Q2226.27 1857.2 2223.46 1854.46 Q2220.65 1851.68 2220.65 1844.39 L2220.65 1823.28 L2215.96 1823.28 L2215.96 1818.32 L2220.65 1818.32 L2220.65 1807.27 L2227.07 1807.27 Z" fill="#000000" fill-rule="nonzero" fill-opacity="1" /><path clip-path="url(#clip580)" d="M2013.43 194.618 L2046.2 194.618 L2046.2 200.521 L2020.44 200.521 L2020.44 215.868 L2045.13 215.868 L2045.13 221.771 L2020.44 221.771 L2020.44 240.555 L2046.83 240.555 L2046.83 246.458 L2013.43 246.458 L2013.43 194.618 Z" fill="#000000" fill-rule="nonzero" fill-opacity="1" /><path clip-path="url(#clip580)" d="M2090.4 207.57 L2076.34 226.493 L2091.13 246.458 L2083.6 246.458 L2072.28 231.18 L2060.96 246.458 L2053.43 246.458 L2068.53 226.111 L2054.71 207.57 L2062.24 207.57 L2072.56 221.424 L2082.87 207.57 L2090.4 207.57 Z" fill="#000000" fill-rule="nonzero" fill-opacity="1" /><path clip-path="url(#clip580)" d="M2117.83 226.91 Q2110.09 226.91 2107.11 228.681 Q2104.12 230.451 2104.12 234.722 Q2104.12 238.125 2106.34 240.139 Q2108.6 242.118 2112.45 242.118 Q2117.77 242.118 2120.96 238.368 Q2124.19 234.583 2124.19 228.333 L2124.19 226.91 L2117.83 226.91 M2130.58 224.271 L2130.58 246.458 L2124.19 246.458 L2124.19 240.555 Q2122 244.097 2118.74 245.798 Q2115.47 247.465 2110.75 247.465 Q2104.78 247.465 2101.24 244.132 Q2097.73 240.764 2097.73 235.139 Q2097.73 228.576 2102.11 225.243 Q2106.52 221.91 2115.23 221.91 L2124.19 221.91 L2124.19 221.285 Q2124.19 216.875 2121.27 214.479 Q2118.39 212.049 2113.15 212.049 Q2109.81 212.049 2106.65 212.847 Q2103.49 213.646 2100.58 215.243 L2100.58 209.34 Q2104.08 207.986 2107.38 207.326 Q2110.68 206.632 2113.81 206.632 Q2122.24 206.632 2126.41 211.007 Q2130.58 215.382 2130.58 224.271 Z" fill="#000000" fill-rule="nonzero" fill-opacity="1" /><path clip-path="url(#clip580)" d="M2171.72 209.063 L2171.72 215.035 Q2169.02 213.542 2166.27 212.813 Q2163.56 212.049 2160.79 212.049 Q2154.57 212.049 2151.13 216.007 Q2147.7 219.931 2147.7 227.049 Q2147.7 234.167 2151.13 238.125 Q2154.57 242.048 2160.79 242.048 Q2163.56 242.048 2166.27 241.319 Q2169.02 240.555 2171.72 239.062 L2171.72 244.965 Q2169.05 246.215 2166.17 246.84 Q2163.32 247.465 2160.09 247.465 Q2151.31 247.465 2146.13 241.944 Q2140.96 236.424 2140.96 227.049 Q2140.96 217.535 2146.17 212.083 Q2151.41 206.632 2160.51 206.632 Q2163.46 206.632 2166.27 207.257 Q2169.08 207.847 2171.72 209.063 Z" fill="#000000" fill-rule="nonzero" fill-opacity="1" /><path clip-path="url(#clip580)" d="M2189.15 196.528 L2189.15 207.57 L2202.31 207.57 L2202.31 212.535 L2189.15 212.535 L2189.15 233.646 Q2189.15 238.403 2190.44 239.757 Q2191.76 241.111 2195.75 241.111 L2202.31 241.111 L2202.31 246.458 L2195.75 246.458 Q2188.36 246.458 2185.54 243.715 Q2182.73 240.937 2182.73 233.646 L2182.73 212.535 L2178.04 212.535 L2178.04 207.57 L2182.73 207.57 L2182.73 196.528 L2189.15 196.528 Z" fill="#000000" fill-rule="nonzero" fill-opacity="1" /></svg>
