<?xml version="1.0" encoding="utf-8"?>
<svg xmlns="http://www.w3.org/2000/svg" xmlns:xlink="http://www.w3.org/1999/xlink" width="570" height="480" viewBox="0 0 2280 1920">
<defs>
  <clipPath id="clip820">
    <rect x="0" y="0" width="2280" height="1920"/>
  </clipPath>
</defs>
<path clip-path="url(#clip820)" d="M0 1920 L2280 1920 L2280 0 L0 0  Z" fill="#ffffff" fill-rule="evenodd" fill-opacity="1"/>
<defs>
  <clipPath id="clip821">
    <rect x="456" y="0" width="1597" height="1597"/>
  </clipPath>
</defs>
<path clip-path="url(#clip820)" d="M47.2441 1872.76 L2232.76 1872.76 L2232.76 47.2441 L47.2441 47.2441  Z" fill="#ffffff" fill-rule="evenodd" fill-opacity="1"/>
<defs>
  <clipPath id="clip822">
    <rect x="47" y="47" width="2187" height="1827"/>
  </clipPath>
</defs>
<polyline clip-path="url(#clip822)" style="stroke:#24292e; stroke-linecap:round; stroke-linejoin:round; stroke-width:0; stroke-opacity:1; fill:none" points="47.2441,1753.7 2232.76,1753.7 "/>
<path clip-path="url(#clip822)" d="M2198.56 1753.7 L2198.56 1736.6 L2232.76 1753.7 L2198.56 1770.8  Z" fill="#24292e" fill-rule="evenodd" fill-opacity="1"/>
<polyline clip-path="url(#clip822)" style="stroke:#24292e; stroke-linecap:round; stroke-linejoin:round; stroke-width:0; stroke-opacity:1; fill:none" points="2198.56,1753.7 47.2441,1753.7 "/>
<polyline clip-path="url(#clip822)" style="stroke:#24292e; stroke-linecap:round; stroke-linejoin:round; stroke-width:10; stroke-opacity:1; fill:none" points="47.2441,1753.7 2201.87,1753.7 "/>
<polyline clip-path="url(#clip822)" style="stroke:#24292e; stroke-linecap:round; stroke-linejoin:round; stroke-width:0; stroke-opacity:1; fill:none" points="173.94,1872.76 173.94,47.2441 "/>
<path clip-path="url(#clip822)" d="M173.94 81.4441 L156.84 81.4441 L173.94 47.2441 L191.04 81.4441  Z" fill="#24292e" fill-rule="evenodd" fill-opacity="1"/>
<polyline clip-path="url(#clip822)" style="stroke:#24292e; stroke-linecap:round; stroke-linejoin:round; stroke-width:0; stroke-opacity:1; fill:none" points="173.94,81.4441 173.94,1872.76 "/>
<polyline clip-path="url(#clip822)" style="stroke:#24292e; stroke-linecap:round; stroke-linejoin:round; stroke-width:10; stroke-opacity:1; fill:none" points="173.94,1872.76 173.94,55.1811 "/>
<polyline clip-path="url(#clip822)" style="stroke:#224466; stroke-linecap:round; stroke-linejoin:round; stroke-width:10; stroke-opacity:1; fill:none" points="-142.8,-160223 -111.126,-131593 -79.4522,-107875 -47.7782,-88240.4 -16.1041,-71999.2 15.57,-58577.1 47.2441,-47496 78.9182,-38357.9 110.592,-30831.6 142.266,-24641.6 173.94,-19558.8 205.615,-15392.6 237.289,-11984.7 268.963,-9203.67 300.637,-6940.19 332.311,-5103.61 363.985,-3618.71 395.659,-2423.12 427.333,-1465.15 459.007,-702.025 490.681,-98.325 522.355,375.217 554.029,742.776 585.704,1024.29 617.378,1236.2 649.052,1392.03 680.726,1502.87 712.4,1577.84 744.074,1624.41 775.748,1648.66 807.422,1655.55 839.096,1649.12 870.77,1632.62 902.444,1608.69 934.118,1579.44 965.793,1546.56 997.467,1511.38 1029.14,1474.94 1060.81,1438.09 1092.49,1401.43 1124.16,1365.46 1155.84,1330.52 1187.51,1296.87 1219.19,1264.68 1250.86,1234.08 1282.53,1205.11 1314.21,1177.82 1345.88,1152.18 1377.56,1128.18 1409.23,1105.77 1440.9,1084.89 1472.58,1065.48 1504.25,1047.47 1535.93,1030.78 1567.6,1015.33 1599.27,1001.06 1630.95,987.891 1662.62,975.745 1694.3,964.555 1725.97,954.254 1757.64,944.778 1789.32,936.067 1820.99,928.064 1852.67,920.716 1884.34,913.971 1916.02,907.784 1947.69,902.109 1979.36,896.908 2011.04,892.141 2042.71,887.774 2074.39,883.774 2106.06,880.111 2137.73,876.758 2169.41,873.689 2201.08,870.88 2232.76,868.31 2264.43,865.959 2296.1,863.809 2327.78,861.842 2359.45,860.043 2391.13,858.398 2422.8,856.895 2454.47,855.52 2486.15,854.263 2517.82,853.114 2549.5,852.064 2581.17,851.104 2612.84,850.227 2644.52,849.426 2676.19,848.693 2707.87,848.024 2739.54,847.412 2771.22,846.853 2802.89,846.342 2834.56,845.876 2866.24,845.449 2897.91,845.06 2929.59,844.704 2961.26,844.379 2992.93,844.082 3024.61,843.81 3056.28,843.562 3087.96,843.336 3119.63,843.129 3151.3,842.94 3182.98,842.767 3214.65,842.61 3246.33,842.466 3278,842.334 3309.67,842.214 3341.35,842.104 3373.02,842.004 3404.7,841.912 3436.37,841.828 3468.05,841.752 3499.72,841.682 3531.39,841.618 3563.07,841.56 3594.74,841.507 3626.42,841.458 3658.09,841.414 3689.76,841.373 3721.44,841.336 3753.11,841.302 3784.79,841.271 3816.46,841.243 3848.13,841.217 3879.81,841.194 3911.48,841.172 3943.16,841.152 3974.83,841.134 4006.5,841.118 4038.18,841.103 4069.85,841.089 4101.53,841.077 4133.2,841.065 4164.88,841.055 4196.55,841.045 4228.22,841.037 4259.9,841.029 4291.57,841.021 4323.25,841.015 4354.92,841.009 4386.59,841.003 4418.27,840.998 4449.94,840.994 4481.62,840.989 4513.29,840.986 4544.96,840.982 4576.64,840.979 4608.31,840.976 4639.99,840.973 4671.66,840.971 4703.33,840.968 4735.01,840.966 4766.68,840.965 4798.36,840.963 4830.03,840.961 4861.7,840.96 4893.38,840.959 4925.05,840.957 4956.73,840.956 4988.4,840.955 5020.08,840.954 5051.75,840.954 5083.42,840.953 5115.1,840.952 5146.77,840.952 5178.45,840.951 5210.12,840.95 5241.79,840.95 "/>
<polyline clip-path="url(#clip822)" style="stroke:#bc1c5f; stroke-linecap:round; stroke-linejoin:round; stroke-width:10; stroke-opacity:1; fill:none" points="-142.8,-4346.84 -111.126,-3952.98 -79.4522,-3572.49 -47.7782,-3205.37 -16.1041,-2851.61 15.57,-2511.21 47.2441,-2184.18 78.9182,-1870.51 110.592,-1570.2 142.266,-1283.26 173.94,-1009.68 205.615,-749.46 237.289,-502.608 268.963,-269.119 300.637,-48.9938 332.311,157.768 363.985,351.165 395.659,531.199 427.333,697.87 459.007,851.177 490.681,991.12 522.355,1117.7 554.029,1230.92 585.704,1330.77 617.378,1417.26 649.052,1490.38 680.726,1550.14 712.4,1596.54 744.074,1629.57 775.748,1649.24 807.422,1655.55 839.096,1648.49 870.77,1628.07 902.444,1594.29 934.118,1547.14 965.793,1486.63 997.467,1412.76 1029.14,1325.52 1060.81,1224.91 1092.49,1110.95 1124.16,983.618 1155.84,842.925 1187.51,688.868 1219.19,521.448 1250.86,340.663 1282.53,146.515 1314.21,-60.9962 1345.88,-281.871 1377.56,-516.11 1409.23,-763.713 1440.9,-1024.68 1472.58,-1299.01 1504.25,-1586.7 1535.93,-1887.76 1567.6,-2202.18 1599.27,-2529.96 1630.95,-2871.11 1662.62,-3225.62 1694.3,-3593.5 1725.97,-3974.74 1757.64,-4369.34 1789.32,-4777.31 1820.99,-5198.64 1852.67,-5633.33 1884.34,-6081.39 1916.02,-6542.81 1947.69,-7017.59 1979.36,-7505.74 2011.04,-8007.25 2042.71,-8522.13 2074.39,-9050.37 2106.06,-9591.97 2137.73,-10146.9 2169.41,-10715.3 2201.08,-11297 2232.76,-11892 2264.43,-12500.4 2296.1,-13122.2 2327.78,-13757.4 2359.45,-14405.9 2391.13,-15067.8 2422.8,-15743 2454.47,-16431.6 2486.15,-17133.6 2517.82,-17848.9 2549.5,-18577.6 2581.17,-19319.6 2612.84,-20075.1 2644.52,-20843.9 2676.19,-21626 2707.87,-22421.5 2739.54,-23230.4 2771.22,-24052.6 2802.89,-24888.2 2834.56,-25737.2 2866.24,-26599.5 2897.91,-27475.2 2929.59,-28364.3 2961.26,-29266.7 2992.93,-30182.5 3024.61,-31111.6 3056.28,-32054.1 3087.96,-33010 3119.63,-33979.3 3151.3,-34961.9 3182.98,-35957.8 3214.65,-36967.2 3246.33,-37989.9 3278,-39025.9 3309.67,-40075.3 3341.35,-41138.1 3373.02,-42214.3 3404.7,-43303.8 3436.37,-44406.7 3468.05,-45522.9 3499.72,-46652.5 3531.39,-47795.5 3563.07,-48951.8 3594.74,-50121.5 3626.42,-51304.5 3658.09,-52501 3689.76,-53710.7 3721.44,-54933.9 3753.11,-56170.4 3784.79,-57420.3 3816.46,-58683.5 3848.13,-59960.1 3879.81,-61250.1 3911.48,-62553.4 3943.16,-63870.1 3974.83,-65200.2 4006.5,-66543.6 4038.18,-67900.4 4069.85,-69270.5 4101.53,-70654 4133.2,-72050.9 4164.88,-73461.2 4196.55,-74884.8 4228.22,-76321.7 4259.9,-77772.1 4291.57,-79235.8 4323.25,-80712.8 4354.92,-82203.2 4386.59,-83707 4418.27,-85224.2 4449.94,-86754.7 4481.62,-88298.6 4513.29,-89855.8 4544.96,-91426.4 4576.64,-93010.4 4608.31,-94607.7 4639.99,-96218.4 4671.66,-97842.4 4703.33,-99479.9 4735.01,-101131 4766.68,-102795 4798.36,-104472 4830.03,-106163 4861.7,-107867 4893.38,-109585 4925.05,-111316 4956.73,-113060 4988.4,-114818 5020.08,-116589 5051.75,-118374 5083.42,-120171 5115.1,-121982 5146.77,-123807 5178.45,-125645 5210.12,-127496 5241.79,-129361 "/>
<polyline clip-path="url(#clip822)" style="stroke:#24292e; stroke-linecap:round; stroke-linejoin:round; stroke-width:10; stroke-opacity:1; fill:none" stroke-dasharray="5, 10" points="806.533,1753.7 806.533,1655.56 "/>
<polyline clip-path="url(#clip822)" style="stroke:#24292e; stroke-linecap:round; stroke-linejoin:round; stroke-width:10; stroke-opacity:1; fill:none" stroke-dasharray="5, 10" points="173.94,1655.56 806.533,1655.56 "/>
<circle clip-path="url(#clip822)" cx="806.533" cy="1655.56" r="14.4" fill="#224466" fill-rule="evenodd" fill-opacity="1" stroke="none"/>
<polyline clip-path="url(#clip822)" style="stroke:#24292e; stroke-linecap:round; stroke-linejoin:round; stroke-width:10; stroke-opacity:1; fill:none" stroke-dasharray="5, 10" points="180.275,1540.48 183.443,1540.48 186.61,1540.48 189.777,1540.48 192.945,1540.48 196.112,1540.48 199.28,1540.48 202.447,1540.48 205.615,1540.48 208.782,1540.48 211.949,1540.48 215.117,1540.48 218.284,1540.48 221.452,1540.48 224.619,1540.48 227.786,1540.48 230.954,1540.48 234.121,1540.48 237.289,1540.48 240.456,1540.48 243.623,1540.48 246.791,1540.48 249.958,1540.48 253.126,1540.48 256.293,1540.48 259.46,1540.48 262.628,1540.48 265.795,1540.48 268.963,1540.48 272.13,1540.48 275.298,1540.48 278.465,1540.48 281.632,1540.48 284.8,1540.48 287.967,1540.48 291.135,1540.48 294.302,1540.48 297.469,1540.48 300.637,1540.48 303.804,1540.48 306.972,1540.48 310.139,1540.48 313.306,1540.48 316.474,1540.48 319.641,1540.48 322.809,1540.48 325.976,1540.48 329.143,1540.48 332.311,1540.48 335.478,1540.48 338.646,1540.48 341.813,1540.48 344.98,1540.48 348.148,1540.48 351.315,1540.48 354.483,1540.48 357.65,1540.48 360.818,1540.48 363.985,1540.48 367.152,1540.48 370.32,1540.48 373.487,1540.48 376.655,1540.48 379.822,1540.48 382.989,1540.48 386.157,1540.48 389.324,1540.48 392.492,1540.48 395.659,1540.48 398.826,1540.48 401.994,1540.48 405.161,1540.48 408.329,1540.48 411.496,1540.48 414.663,1540.48 417.831,1540.48 420.998,1540.48 424.166,1540.48 427.333,1540.48 430.501,1540.48 433.668,1540.48 436.835,1540.48 440.003,1540.48 443.17,1540.48 446.338,1540.48 449.505,1540.48 452.672,1540.48 455.84,1540.48 459.007,1540.48 462.175,1540.48 465.342,1540.48 468.509,1540.48 471.677,1540.48 474.844,1540.48 478.012,1540.48 481.179,1540.48 484.346,1540.48 487.514,1540.48 490.681,1540.48 493.849,1540.48 497.016,1540.48 500.183,1540.48 503.351,1540.48 506.518,1540.48 509.686,1540.48 512.853,1540.48 516.021,1540.48 519.188,1540.48 522.355,1540.48 525.523,1540.48 528.69,1540.48 531.858,1540.48 535.025,1540.48 538.192,1540.48 541.36,1540.48 544.527,1540.48 547.695,1540.48 550.862,1540.48 554.029,1540.48 557.197,1540.48 560.364,1540.48 563.532,1540.48 566.699,1540.48 569.866,1540.48 573.034,1540.48 576.201,1540.48 579.369,1540.48 582.536,1540.48 585.704,1540.48 588.871,1540.48 592.038,1540.48 595.206,1540.48 598.373,1540.48 601.541,1540.48 604.708,1540.48 607.875,1540.48 611.043,1540.48 614.21,1540.48 617.378,1540.48 620.545,1540.48 623.712,1540.48 626.88,1540.48 630.047,1540.48 633.215,1540.48 636.382,1540.48 639.549,1540.48 642.717,1540.48 645.884,1540.48 649.052,1540.48 652.219,1540.48 655.387,1540.48 658.554,1540.48 661.721,1540.48 664.889,1540.48 668.056,1540.48 671.224,1540.48 674.391,1540.48 677.558,1540.48 680.726,1540.48 683.893,1540.48 687.061,1540.48 690.228,1540.48 693.395,1540.48 "/>
<polyline clip-path="url(#clip822)" style="stroke:#24292e; stroke-linecap:round; stroke-linejoin:round; stroke-width:0; stroke-opacity:1; fill:none" points="617.378,1655.56 617.378,1540.48 "/>
<path clip-path="url(#clip822)" d="M617.378 1574.68 L600.278 1574.68 L617.378 1540.48 L634.478 1574.68  Z" fill="#24292e" fill-rule="evenodd" fill-opacity="1"/>
<polyline clip-path="url(#clip822)" style="stroke:#24292e; stroke-linecap:round; stroke-linejoin:round; stroke-width:0; stroke-opacity:1; fill:none" points="617.378,1574.68 617.378,1655.56 "/>
<polyline clip-path="url(#clip822)" style="stroke:#24292e; stroke-linecap:round; stroke-linejoin:round; stroke-width:0; stroke-opacity:1; fill:none" points="617.378,1540.48 617.378,1655.56 "/>
<path clip-path="url(#clip822)" d="M617.378 1621.36 L634.478 1621.36 L617.378 1655.56 L600.278 1621.36  Z" fill="#24292e" fill-rule="evenodd" fill-opacity="1"/>
<polyline clip-path="url(#clip822)" style="stroke:#24292e; stroke-linecap:round; stroke-linejoin:round; stroke-width:0; stroke-opacity:1; fill:none" points="617.378,1621.36 617.378,1540.48 "/>
<polyline clip-path="url(#clip822)" style="stroke:#24292e; stroke-linecap:round; stroke-linejoin:round; stroke-width:10; stroke-opacity:1; fill:none" points="617.378,1576.19 617.378,1619.85 "/>
<polyline clip-path="url(#clip822)" style="stroke:#bc1c5f; stroke-linecap:round; stroke-linejoin:round; stroke-width:4; stroke-opacity:1; fill:none" points="674.391,1536.11 677.558,1536.11 680.726,1536.11 683.893,1536.11 687.061,1536.11 690.228,1536.11 693.395,1536.11 696.563,1536.11 699.73,1536.11 702.898,1536.11 706.065,1536.11 709.232,1536.11 712.4,1536.11 715.567,1536.11 718.735,1536.11 721.902,1536.11 725.069,1536.11 728.237,1536.11 731.404,1536.11 734.572,1536.11 737.739,1536.11 740.907,1536.11 744.074,1536.11 747.241,1536.11 750.409,1536.11 753.576,1536.11 756.744,1536.11 759.911,1536.11 763.078,1536.11 766.246,1536.11 769.413,1536.11 772.581,1536.11 775.748,1536.11 778.915,1536.11 782.083,1536.11 785.25,1536.11 788.418,1536.11 791.585,1536.11 794.752,1536.11 797.92,1536.11 801.087,1536.11 804.255,1536.11 807.422,1536.11 810.59,1536.11 813.757,1536.11 816.924,1536.11 820.092,1536.11 823.259,1536.11 826.427,1536.11 829.594,1536.11 832.761,1536.11 835.929,1536.11 839.096,1536.11 842.264,1536.11 845.431,1536.11 848.598,1536.11 851.766,1536.11 854.933,1536.11 858.101,1536.11 861.268,1536.11 864.435,1536.11 867.603,1536.11 870.77,1536.11 873.938,1536.11 877.105,1536.11 880.273,1536.11 883.44,1536.11 886.607,1536.11 889.775,1536.11 892.942,1536.11 896.11,1536.11 899.277,1536.11 902.444,1536.11 905.612,1536.11 908.779,1536.11 911.947,1536.11 915.114,1536.11 918.281,1536.11 921.449,1536.11 924.616,1536.11 927.784,1536.11 930.951,1536.11 934.118,1536.11 937.286,1536.11 940.453,1536.11 "/>
<polyline clip-path="url(#clip822)" style="stroke:#578fc7; stroke-linecap:round; stroke-linejoin:round; stroke-width:4; stroke-opacity:1; fill:none" points="696.563,1540.48 699.73,1540.48 702.898,1540.48 706.065,1540.48 709.232,1540.48 712.4,1540.48 715.567,1540.48 718.735,1540.48 721.902,1540.48 725.069,1540.48 728.237,1540.48 731.404,1540.48 734.572,1540.48 737.739,1540.48 740.907,1540.48 744.074,1540.48 747.241,1540.48 750.409,1540.48 753.576,1540.48 756.744,1540.48 759.911,1540.48 763.078,1540.48 766.246,1540.48 769.413,1540.48 772.581,1540.48 775.748,1540.48 778.915,1540.48 782.083,1540.48 785.25,1540.48 788.418,1540.48 791.585,1540.48 794.752,1540.48 797.92,1540.48 801.087,1540.48 804.255,1540.48 807.422,1540.48 810.59,1540.48 813.757,1540.48 816.924,1540.48 820.092,1540.48 823.259,1540.48 826.427,1540.48 829.594,1540.48 832.761,1540.48 835.929,1540.48 839.096,1540.48 842.264,1540.48 845.431,1540.48 848.598,1540.48 851.766,1540.48 854.933,1540.48 858.101,1540.48 861.268,1540.48 864.435,1540.48 867.603,1540.48 870.77,1540.48 873.938,1540.48 877.105,1540.48 880.273,1540.48 883.44,1540.48 886.607,1540.48 889.775,1540.48 892.942,1540.48 896.11,1540.48 899.277,1540.48 902.444,1540.48 905.612,1540.48 908.779,1540.48 911.947,1540.48 915.114,1540.48 918.281,1540.48 921.449,1540.48 924.616,1540.48 927.784,1540.48 930.951,1540.48 934.118,1540.48 937.286,1540.48 940.453,1540.48 943.621,1540.48 946.788,1540.48 949.955,1540.48 953.123,1540.48 956.29,1540.48 959.458,1540.48 962.625,1540.48 965.793,1540.48 968.96,1540.48 "/>
<polyline clip-path="url(#clip822)" style="stroke:#bc1c5f; stroke-linecap:round; stroke-linejoin:round; stroke-width:4; stroke-opacity:1; fill:none" points="576.201,1297.2 579.369,1297.2 582.536,1297.2 585.704,1297.2 588.871,1297.2 592.038,1297.2 595.206,1297.2 598.373,1297.2 601.541,1297.2 604.708,1297.2 607.875,1297.2 611.043,1297.2 614.21,1297.2 617.378,1297.2 620.545,1297.2 623.712,1297.2 626.88,1297.2 630.047,1297.2 633.215,1297.2 636.382,1297.2 639.549,1297.2 642.717,1297.2 645.884,1297.2 649.052,1297.2 652.219,1297.2 655.387,1297.2 658.554,1297.2 661.721,1297.2 664.889,1297.2 668.056,1297.2 671.224,1297.2 674.391,1297.2 677.558,1297.2 680.726,1297.2 683.893,1297.2 687.061,1297.2 690.228,1297.2 693.395,1297.2 696.563,1297.2 699.73,1297.2 702.898,1297.2 706.065,1297.2 709.232,1297.2 712.4,1297.2 715.567,1297.2 718.735,1297.2 721.902,1297.2 725.069,1297.2 728.237,1297.2 731.404,1297.2 734.572,1297.2 737.739,1297.2 740.907,1297.2 744.074,1297.2 747.241,1297.2 750.409,1297.2 753.576,1297.2 756.744,1297.2 759.911,1297.2 763.078,1297.2 766.246,1297.2 769.413,1297.2 772.581,1297.2 775.748,1297.2 778.915,1297.2 782.083,1297.2 785.25,1297.2 788.418,1297.2 791.585,1297.2 794.752,1297.2 797.92,1297.2 801.087,1297.2 804.255,1297.2 807.422,1297.2 810.59,1297.2 813.757,1297.2 816.924,1297.2 820.092,1297.2 823.259,1297.2 826.427,1297.2 829.594,1297.2 832.761,1297.2 835.929,1297.2 839.096,1297.2 842.264,1297.2 845.431,1297.2 848.598,1297.2 851.766,1297.2 854.933,1297.2 858.101,1297.2 861.268,1297.2 864.435,1297.2 867.603,1297.2 870.77,1297.2 873.938,1297.2 877.105,1297.2 880.273,1297.2 883.44,1297.2 886.607,1297.2 889.775,1297.2 892.942,1297.2 896.11,1297.2 899.277,1297.2 902.444,1297.2 905.612,1297.2 908.779,1297.2 911.947,1297.2 915.114,1297.2 918.281,1297.2 921.449,1297.2 924.616,1297.2 927.784,1297.2 930.951,1297.2 934.118,1297.2 937.286,1297.2 940.453,1297.2 943.621,1297.2 946.788,1297.2 949.955,1297.2 953.123,1297.2 956.29,1297.2 959.458,1297.2 962.625,1297.2 965.793,1297.2 968.96,1297.2 972.127,1297.2 975.295,1297.2 978.462,1297.2 981.63,1297.2 984.797,1297.2 987.964,1297.2 991.132,1297.2 994.299,1297.2 997.467,1297.2 1000.63,1297.2 1003.8,1297.2 1006.97,1297.2 1010.14,1297.2 1013.3,1297.2 1016.47,1297.2 1019.64,1297.2 1022.81,1297.2 1025.97,1297.2 1029.14,1297.2 1032.31,1297.2 1035.48,1297.2 "/>
<polyline clip-path="url(#clip822)" style="stroke:#578fc7; stroke-linecap:round; stroke-linejoin:round; stroke-width:4; stroke-opacity:1; fill:none" points="639.549,1336.61 642.717,1336.61 645.884,1336.61 649.052,1336.61 652.219,1336.61 655.387,1336.61 658.554,1336.61 661.721,1336.61 664.889,1336.61 668.056,1336.61 671.224,1336.61 674.391,1336.61 677.558,1336.61 680.726,1336.61 683.893,1336.61 687.061,1336.61 690.228,1336.61 693.395,1336.61 696.563,1336.61 699.73,1336.61 702.898,1336.61 706.065,1336.61 709.232,1336.61 712.4,1336.61 715.567,1336.61 718.735,1336.61 721.902,1336.61 725.069,1336.61 728.237,1336.61 731.404,1336.61 734.572,1336.61 737.739,1336.61 740.907,1336.61 744.074,1336.61 747.241,1336.61 750.409,1336.61 753.576,1336.61 756.744,1336.61 759.911,1336.61 763.078,1336.61 766.246,1336.61 769.413,1336.61 772.581,1336.61 775.748,1336.61 778.915,1336.61 782.083,1336.61 785.25,1336.61 788.418,1336.61 791.585,1336.61 794.752,1336.61 797.92,1336.61 801.087,1336.61 804.255,1336.61 807.422,1336.61 810.59,1336.61 813.757,1336.61 816.924,1336.61 820.092,1336.61 823.259,1336.61 826.427,1336.61 829.594,1336.61 832.761,1336.61 835.929,1336.61 839.096,1336.61 842.264,1336.61 845.431,1336.61 848.598,1336.61 851.766,1336.61 854.933,1336.61 858.101,1336.61 861.268,1336.61 864.435,1336.61 867.603,1336.61 870.77,1336.61 873.938,1336.61 877.105,1336.61 880.273,1336.61 883.44,1336.61 886.607,1336.61 889.775,1336.61 892.942,1336.61 896.11,1336.61 899.277,1336.61 902.444,1336.61 905.612,1336.61 908.779,1336.61 911.947,1336.61 915.114,1336.61 918.281,1336.61 921.449,1336.61 924.616,1336.61 927.784,1336.61 930.951,1336.61 934.118,1336.61 937.286,1336.61 940.453,1336.61 943.621,1336.61 946.788,1336.61 949.955,1336.61 953.123,1336.61 956.29,1336.61 959.458,1336.61 962.625,1336.61 965.793,1336.61 968.96,1336.61 972.127,1336.61 975.295,1336.61 978.462,1336.61 981.63,1336.61 984.797,1336.61 987.964,1336.61 991.132,1336.61 994.299,1336.61 997.467,1336.61 1000.63,1336.61 1003.8,1336.61 1006.97,1336.61 1010.14,1336.61 1013.3,1336.61 1016.47,1336.61 1019.64,1336.61 1022.81,1336.61 1025.97,1336.61 1029.14,1336.61 1032.31,1336.61 1035.48,1336.61 1038.64,1336.61 1041.81,1336.61 1044.98,1336.61 1048.15,1336.61 1051.31,1336.61 1054.48,1336.61 1057.65,1336.61 1060.81,1336.61 1063.98,1336.61 1067.15,1336.61 1070.32,1336.61 1073.48,1336.61 1076.65,1336.61 1079.82,1336.61 1082.99,1336.61 1086.15,1336.61 1089.32,1336.61 1092.49,1336.61 1095.66,1336.61 1098.82,1336.61 1101.99,1336.61 1105.16,1336.61 1108.33,1336.61 1111.49,1336.61 1114.66,1336.61 1117.83,1336.61 1121,1336.61 1124.16,1336.61 1127.33,1336.61 1130.5,1336.61 1133.67,1336.61 1136.83,1336.61 1140,1336.61 1143.17,1336.61 1146.33,1336.61 1149.5,1336.61 "/>
<polyline clip-path="url(#clip822)" style="stroke:#bc1c5f; stroke-linecap:round; stroke-linejoin:round; stroke-width:4; stroke-opacity:1; fill:none" points="509.686,1058.3 512.853,1058.3 516.021,1058.3 519.188,1058.3 522.355,1058.3 525.523,1058.3 528.69,1058.3 531.858,1058.3 535.025,1058.3 538.192,1058.3 541.36,1058.3 544.527,1058.3 547.695,1058.3 550.862,1058.3 554.029,1058.3 557.197,1058.3 560.364,1058.3 563.532,1058.3 566.699,1058.3 569.866,1058.3 573.034,1058.3 576.201,1058.3 579.369,1058.3 582.536,1058.3 585.704,1058.3 588.871,1058.3 592.038,1058.3 595.206,1058.3 598.373,1058.3 601.541,1058.3 604.708,1058.3 607.875,1058.3 611.043,1058.3 614.21,1058.3 617.378,1058.3 620.545,1058.3 623.712,1058.3 626.88,1058.3 630.047,1058.3 633.215,1058.3 636.382,1058.3 639.549,1058.3 642.717,1058.3 645.884,1058.3 649.052,1058.3 652.219,1058.3 655.387,1058.3 658.554,1058.3 661.721,1058.3 664.889,1058.3 668.056,1058.3 671.224,1058.3 674.391,1058.3 677.558,1058.3 680.726,1058.3 683.893,1058.3 687.061,1058.3 690.228,1058.3 693.395,1058.3 696.563,1058.3 699.73,1058.3 702.898,1058.3 706.065,1058.3 709.232,1058.3 712.4,1058.3 715.567,1058.3 718.735,1058.3 721.902,1058.3 725.069,1058.3 728.237,1058.3 731.404,1058.3 734.572,1058.3 737.739,1058.3 740.907,1058.3 744.074,1058.3 747.241,1058.3 750.409,1058.3 753.576,1058.3 756.744,1058.3 759.911,1058.3 763.078,1058.3 766.246,1058.3 769.413,1058.3 772.581,1058.3 775.748,1058.3 778.915,1058.3 782.083,1058.3 785.25,1058.3 788.418,1058.3 791.585,1058.3 794.752,1058.3 797.92,1058.3 801.087,1058.3 804.255,1058.3 807.422,1058.3 810.59,1058.3 813.757,1058.3 816.924,1058.3 820.092,1058.3 823.259,1058.3 826.427,1058.3 829.594,1058.3 832.761,1058.3 835.929,1058.3 839.096,1058.3 842.264,1058.3 845.431,1058.3 848.598,1058.3 851.766,1058.3 854.933,1058.3 858.101,1058.3 861.268,1058.3 864.435,1058.3 867.603,1058.3 870.77,1058.3 873.938,1058.3 877.105,1058.3 880.273,1058.3 883.44,1058.3 886.607,1058.3 889.775,1058.3 892.942,1058.3 896.11,1058.3 899.277,1058.3 902.444,1058.3 905.612,1058.3 908.779,1058.3 911.947,1058.3 915.114,1058.3 918.281,1058.3 921.449,1058.3 924.616,1058.3 927.784,1058.3 930.951,1058.3 934.118,1058.3 937.286,1058.3 940.453,1058.3 943.621,1058.3 946.788,1058.3 949.955,1058.3 953.123,1058.3 956.29,1058.3 959.458,1058.3 962.625,1058.3 965.793,1058.3 968.96,1058.3 972.127,1058.3 975.295,1058.3 978.462,1058.3 981.63,1058.3 984.797,1058.3 987.964,1058.3 991.132,1058.3 994.299,1058.3 997.467,1058.3 1000.63,1058.3 1003.8,1058.3 1006.97,1058.3 1010.14,1058.3 1013.3,1058.3 1016.47,1058.3 1019.64,1058.3 1022.81,1058.3 1025.97,1058.3 1029.14,1058.3 1032.31,1058.3 1035.48,1058.3 1038.64,1058.3 1041.81,1058.3 1044.98,1058.3 1048.15,1058.3 1051.31,1058.3 1054.48,1058.3 1057.65,1058.3 1060.81,1058.3 1063.98,1058.3 1067.15,1058.3 1070.32,1058.3 1073.48,1058.3 1076.65,1058.3 1079.82,1058.3 1082.99,1058.3 1086.15,1058.3 1089.32,1058.3 1092.49,1058.3 1095.66,1058.3 1098.82,1058.3 1101.99,1058.3 1105.16,1058.3 "/>
<polyline clip-path="url(#clip822)" style="stroke:#578fc7; stroke-linecap:round; stroke-linejoin:round; stroke-width:4; stroke-opacity:1; fill:none" points="607.875,1167.77 611.043,1167.77 614.21,1167.77 617.378,1167.77 620.545,1167.77 623.712,1167.77 626.88,1167.77 630.047,1167.77 633.215,1167.77 636.382,1167.77 639.549,1167.77 642.717,1167.77 645.884,1167.77 649.052,1167.77 652.219,1167.77 655.387,1167.77 658.554,1167.77 661.721,1167.77 664.889,1167.77 668.056,1167.77 671.224,1167.77 674.391,1167.77 677.558,1167.77 680.726,1167.77 683.893,1167.77 687.061,1167.77 690.228,1167.77 693.395,1167.77 696.563,1167.77 699.73,1167.77 702.898,1167.77 706.065,1167.77 709.232,1167.77 712.4,1167.77 715.567,1167.77 718.735,1167.77 721.902,1167.77 725.069,1167.77 728.237,1167.77 731.404,1167.77 734.572,1167.77 737.739,1167.77 740.907,1167.77 744.074,1167.77 747.241,1167.77 750.409,1167.77 753.576,1167.77 756.744,1167.77 759.911,1167.77 763.078,1167.77 766.246,1167.77 769.413,1167.77 772.581,1167.77 775.748,1167.77 778.915,1167.77 782.083,1167.77 785.25,1167.77 788.418,1167.77 791.585,1167.77 794.752,1167.77 797.92,1167.77 801.087,1167.77 804.255,1167.77 807.422,1167.77 810.59,1167.77 813.757,1167.77 816.924,1167.77 820.092,1167.77 823.259,1167.77 826.427,1167.77 829.594,1167.77 832.761,1167.77 835.929,1167.77 839.096,1167.77 842.264,1167.77 845.431,1167.77 848.598,1167.77 851.766,1167.77 854.933,1167.77 858.101,1167.77 861.268,1167.77 864.435,1167.77 867.603,1167.77 870.77,1167.77 873.938,1167.77 877.105,1167.77 880.273,1167.77 883.44,1167.77 886.607,1167.77 889.775,1167.77 892.942,1167.77 896.11,1167.77 899.277,1167.77 902.444,1167.77 905.612,1167.77 908.779,1167.77 911.947,1167.77 915.114,1167.77 918.281,1167.77 921.449,1167.77 924.616,1167.77 927.784,1167.77 930.951,1167.77 934.118,1167.77 937.286,1167.77 940.453,1167.77 943.621,1167.77 946.788,1167.77 949.955,1167.77 953.123,1167.77 956.29,1167.77 959.458,1167.77 962.625,1167.77 965.793,1167.77 968.96,1167.77 972.127,1167.77 975.295,1167.77 978.462,1167.77 981.63,1167.77 984.797,1167.77 987.964,1167.77 991.132,1167.77 994.299,1167.77 997.467,1167.77 1000.63,1167.77 1003.8,1167.77 1006.97,1167.77 1010.14,1167.77 1013.3,1167.77 1016.47,1167.77 1019.64,1167.77 1022.81,1167.77 1025.97,1167.77 1029.14,1167.77 1032.31,1167.77 1035.48,1167.77 1038.64,1167.77 1041.81,1167.77 1044.98,1167.77 1048.15,1167.77 1051.31,1167.77 1054.48,1167.77 1057.65,1167.77 1060.81,1167.77 1063.98,1167.77 1067.15,1167.77 1070.32,1167.77 1073.48,1167.77 1076.65,1167.77 1079.82,1167.77 1082.99,1167.77 1086.15,1167.77 1089.32,1167.77 1092.49,1167.77 1095.66,1167.77 1098.82,1167.77 1101.99,1167.77 1105.16,1167.77 1108.33,1167.77 1111.49,1167.77 1114.66,1167.77 1117.83,1167.77 1121,1167.77 1124.16,1167.77 1127.33,1167.77 1130.5,1167.77 1133.67,1167.77 1136.83,1167.77 1140,1167.77 1143.17,1167.77 1146.33,1167.77 1149.5,1167.77 1152.67,1167.77 1155.84,1167.77 1159,1167.77 1162.17,1167.77 1165.34,1167.77 1168.51,1167.77 1171.67,1167.77 1174.84,1167.77 1178.01,1167.77 1181.18,1167.77 1184.34,1167.77 1187.51,1167.77 1190.68,1167.77 1193.85,1167.77 1197.01,1167.77 1200.18,1167.77 1203.35,1167.77 1206.52,1167.77 1209.68,1167.77 1212.85,1167.77 1216.02,1167.77 1219.19,1167.77 1222.35,1167.77 1225.52,1167.77 1228.69,1167.77 1231.85,1167.77 1235.02,1167.77 1238.19,1167.77 1241.36,1167.77 1244.52,1167.77 1247.69,1167.77 1250.86,1167.77 1254.03,1167.77 1257.19,1167.77 1260.36,1167.77 1263.53,1167.77 1266.7,1167.77 1269.86,1167.77 1273.03,1167.77 1276.2,1167.77 1279.37,1167.77 1282.53,1167.77 1285.7,1167.77 1288.87,1167.77 1292.04,1167.77 1295.2,1167.77 1298.37,1167.77 1301.54,1167.77 1304.71,1167.77 1307.87,1167.77 1311.04,1167.77 1314.21,1167.77 1317.37,1167.77 1320.54,1167.77 1323.71,1167.77 "/>
<polyline clip-path="url(#clip822)" style="stroke:#bc1c5f; stroke-linecap:round; stroke-linejoin:round; stroke-width:4; stroke-opacity:1; fill:none" points="452.672,819.399 455.84,819.399 459.007,819.399 462.175,819.399 465.342,819.399 468.509,819.399 471.677,819.399 474.844,819.399 478.012,819.399 481.179,819.399 484.346,819.399 487.514,819.399 490.681,819.399 493.849,819.399 497.016,819.399 500.183,819.399 503.351,819.399 506.518,819.399 509.686,819.399 512.853,819.399 516.021,819.399 519.188,819.399 522.355,819.399 525.523,819.399 528.69,819.399 531.858,819.399 535.025,819.399 538.192,819.399 541.36,819.399 544.527,819.399 547.695,819.399 550.862,819.399 554.029,819.399 557.197,819.399 560.364,819.399 563.532,819.399 566.699,819.399 569.866,819.399 573.034,819.399 576.201,819.399 579.369,819.399 582.536,819.399 585.704,819.399 588.871,819.399 592.038,819.399 595.206,819.399 598.373,819.399 601.541,819.399 604.708,819.399 607.875,819.399 611.043,819.399 614.21,819.399 617.378,819.399 620.545,819.399 623.712,819.399 626.88,819.399 630.047,819.399 633.215,819.399 636.382,819.399 639.549,819.399 642.717,819.399 645.884,819.399 649.052,819.399 652.219,819.399 655.387,819.399 658.554,819.399 661.721,819.399 664.889,819.399 668.056,819.399 671.224,819.399 674.391,819.399 677.558,819.399 680.726,819.399 683.893,819.399 687.061,819.399 690.228,819.399 693.395,819.399 696.563,819.399 699.73,819.399 702.898,819.399 706.065,819.399 709.232,819.399 712.4,819.399 715.567,819.399 718.735,819.399 721.902,819.399 725.069,819.399 728.237,819.399 731.404,819.399 734.572,819.399 737.739,819.399 740.907,819.399 744.074,819.399 747.241,819.399 750.409,819.399 753.576,819.399 756.744,819.399 759.911,819.399 763.078,819.399 766.246,819.399 769.413,819.399 772.581,819.399 775.748,819.399 778.915,819.399 782.083,819.399 785.25,819.399 788.418,819.399 791.585,819.399 794.752,819.399 797.92,819.399 801.087,819.399 804.255,819.399 807.422,819.399 810.59,819.399 813.757,819.399 816.924,819.399 820.092,819.399 823.259,819.399 826.427,819.399 829.594,819.399 832.761,819.399 835.929,819.399 839.096,819.399 842.264,819.399 845.431,819.399 848.598,819.399 851.766,819.399 854.933,819.399 858.101,819.399 861.268,819.399 864.435,819.399 867.603,819.399 870.77,819.399 873.938,819.399 877.105,819.399 880.273,819.399 883.44,819.399 886.607,819.399 889.775,819.399 892.942,819.399 896.11,819.399 899.277,819.399 902.444,819.399 905.612,819.399 908.779,819.399 911.947,819.399 915.114,819.399 918.281,819.399 921.449,819.399 924.616,819.399 927.784,819.399 930.951,819.399 934.118,819.399 937.286,819.399 940.453,819.399 943.621,819.399 946.788,819.399 949.955,819.399 953.123,819.399 956.29,819.399 959.458,819.399 962.625,819.399 965.793,819.399 968.96,819.399 972.127,819.399 975.295,819.399 978.462,819.399 981.63,819.399 984.797,819.399 987.964,819.399 991.132,819.399 994.299,819.399 997.467,819.399 1000.63,819.399 1003.8,819.399 1006.97,819.399 1010.14,819.399 1013.3,819.399 1016.47,819.399 1019.64,819.399 1022.81,819.399 1025.97,819.399 1029.14,819.399 1032.31,819.399 1035.48,819.399 1038.64,819.399 1041.81,819.399 1044.98,819.399 1048.15,819.399 1051.31,819.399 1054.48,819.399 1057.65,819.399 1060.81,819.399 1063.98,819.399 1067.15,819.399 1070.32,819.399 1073.48,819.399 1076.65,819.399 1079.82,819.399 1082.99,819.399 1086.15,819.399 1089.32,819.399 1092.49,819.399 1095.66,819.399 1098.82,819.399 1101.99,819.399 1105.16,819.399 1108.33,819.399 1111.49,819.399 1114.66,819.399 1117.83,819.399 1121,819.399 1124.16,819.399 1127.33,819.399 1130.5,819.399 1133.67,819.399 1136.83,819.399 1140,819.399 1143.17,819.399 1146.33,819.399 1149.5,819.399 1152.67,819.399 1155.84,819.399 1159,819.399 "/>
<polyline clip-path="url(#clip822)" style="stroke:#578fc7; stroke-linecap:round; stroke-linejoin:round; stroke-width:4; stroke-opacity:1; fill:none" points="588.871,1033.97 592.038,1033.97 595.206,1033.97 598.373,1033.97 601.541,1033.97 604.708,1033.97 607.875,1033.97 611.043,1033.97 614.21,1033.97 617.378,1033.97 620.545,1033.97 623.712,1033.97 626.88,1033.97 630.047,1033.97 633.215,1033.97 636.382,1033.97 639.549,1033.97 642.717,1033.97 645.884,1033.97 649.052,1033.97 652.219,1033.97 655.387,1033.97 658.554,1033.97 661.721,1033.97 664.889,1033.97 668.056,1033.97 671.224,1033.97 674.391,1033.97 677.558,1033.97 680.726,1033.97 683.893,1033.97 687.061,1033.97 690.228,1033.97 693.395,1033.97 696.563,1033.97 699.73,1033.97 702.898,1033.97 706.065,1033.97 709.232,1033.97 712.4,1033.97 715.567,1033.97 718.735,1033.97 721.902,1033.97 725.069,1033.97 728.237,1033.97 731.404,1033.97 734.572,1033.97 737.739,1033.97 740.907,1033.97 744.074,1033.97 747.241,1033.97 750.409,1033.97 753.576,1033.97 756.744,1033.97 759.911,1033.97 763.078,1033.97 766.246,1033.97 769.413,1033.97 772.581,1033.97 775.748,1033.97 778.915,1033.97 782.083,1033.97 785.25,1033.97 788.418,1033.97 791.585,1033.97 794.752,1033.97 797.92,1033.97 801.087,1033.97 804.255,1033.97 807.422,1033.97 810.59,1033.97 813.757,1033.97 816.924,1033.97 820.092,1033.97 823.259,1033.97 826.427,1033.97 829.594,1033.97 832.761,1033.97 835.929,1033.97 839.096,1033.97 842.264,1033.97 845.431,1033.97 848.598,1033.97 851.766,1033.97 854.933,1033.97 858.101,1033.97 861.268,1033.97 864.435,1033.97 867.603,1033.97 870.77,1033.97 873.938,1033.97 877.105,1033.97 880.273,1033.97 883.44,1033.97 886.607,1033.97 889.775,1033.97 892.942,1033.97 896.11,1033.97 899.277,1033.97 902.444,1033.97 905.612,1033.97 908.779,1033.97 911.947,1033.97 915.114,1033.97 918.281,1033.97 921.449,1033.97 924.616,1033.97 927.784,1033.97 930.951,1033.97 934.118,1033.97 937.286,1033.97 940.453,1033.97 943.621,1033.97 946.788,1033.97 949.955,1033.97 953.123,1033.97 956.29,1033.97 959.458,1033.97 962.625,1033.97 965.793,1033.97 968.96,1033.97 972.127,1033.97 975.295,1033.97 978.462,1033.97 981.63,1033.97 984.797,1033.97 987.964,1033.97 991.132,1033.97 994.299,1033.97 997.467,1033.97 1000.63,1033.97 1003.8,1033.97 1006.97,1033.97 1010.14,1033.97 1013.3,1033.97 1016.47,1033.97 1019.64,1033.97 1022.81,1033.97 1025.97,1033.97 1029.14,1033.97 1032.31,1033.97 1035.48,1033.97 1038.64,1033.97 1041.81,1033.97 1044.98,1033.97 1048.15,1033.97 1051.31,1033.97 1054.48,1033.97 1057.65,1033.97 1060.81,1033.97 1063.98,1033.97 1067.15,1033.97 1070.32,1033.97 1073.48,1033.97 1076.65,1033.97 1079.82,1033.97 1082.99,1033.97 1086.15,1033.97 1089.32,1033.97 1092.49,1033.97 1095.66,1033.97 1098.82,1033.97 1101.99,1033.97 1105.16,1033.97 1108.33,1033.97 1111.49,1033.97 1114.66,1033.97 1117.83,1033.97 1121,1033.97 1124.16,1033.97 1127.33,1033.97 1130.5,1033.97 1133.67,1033.97 1136.83,1033.97 1140,1033.97 1143.17,1033.97 1146.33,1033.97 1149.5,1033.97 1152.67,1033.97 1155.84,1033.97 1159,1033.97 1162.17,1033.97 1165.34,1033.97 1168.51,1033.97 1171.67,1033.97 1174.84,1033.97 1178.01,1033.97 1181.18,1033.97 1184.34,1033.97 1187.51,1033.97 1190.68,1033.97 1193.85,1033.97 1197.01,1033.97 1200.18,1033.97 1203.35,1033.97 1206.52,1033.97 1209.68,1033.97 1212.85,1033.97 1216.02,1033.97 1219.19,1033.97 1222.35,1033.97 1225.52,1033.97 1228.69,1033.97 1231.85,1033.97 1235.02,1033.97 1238.19,1033.97 1241.36,1033.97 1244.52,1033.97 1247.69,1033.97 1250.86,1033.97 1254.03,1033.97 1257.19,1033.97 1260.36,1033.97 1263.53,1033.97 1266.7,1033.97 1269.86,1033.97 1273.03,1033.97 1276.2,1033.97 1279.37,1033.97 1282.53,1033.97 1285.7,1033.97 1288.87,1033.97 1292.04,1033.97 1295.2,1033.97 1298.37,1033.97 1301.54,1033.97 1304.71,1033.97 1307.87,1033.97 1311.04,1033.97 1314.21,1033.97 1317.37,1033.97 1320.54,1033.97 1323.71,1033.97 1326.88,1033.97 1330.04,1033.97 1333.21,1033.97 1336.38,1033.97 1339.55,1033.97 1342.71,1033.97 1345.88,1033.97 1349.05,1033.97 1352.22,1033.97 1355.38,1033.97 1358.55,1033.97 1361.72,1033.97 1364.89,1033.97 1368.05,1033.97 1371.22,1033.97 1374.39,1033.97 1377.56,1033.97 1380.72,1033.97 1383.89,1033.97 1387.06,1033.97 1390.23,1033.97 1393.39,1033.97 1396.56,1033.97 1399.73,1033.97 1402.89,1033.97 1406.06,1033.97 1409.23,1033.97 1412.4,1033.97 1415.56,1033.97 1418.73,1033.97 1421.9,1033.97 1425.07,1033.97 1428.23,1033.97 1431.4,1033.97 1434.57,1033.97 1437.74,1033.97 1440.9,1033.97 1444.07,1033.97 1447.24,1033.97 1450.41,1033.97 1453.57,1033.97 1456.74,1033.97 1459.91,1033.97 1463.08,1033.97 1466.24,1033.97 1469.41,1033.97 1472.58,1033.97 1475.75,1033.97 1478.91,1033.97 1482.08,1033.97 1485.25,1033.97 1488.41,1033.97 1491.58,1033.97 1494.75,1033.97 1497.92,1033.97 1501.08,1033.97 1504.25,1033.97 1507.42,1033.97 1510.59,1033.97 1513.75,1033.97 1516.92,1033.97 1520.09,1033.97 1523.26,1033.97 1526.42,1033.97 1529.59,1033.97 "/>
<polyline clip-path="url(#clip822)" style="stroke:#bc1c5f; stroke-linecap:round; stroke-linejoin:round; stroke-width:4; stroke-opacity:1; fill:none" points="405.161,580.496 408.329,580.496 411.496,580.496 414.663,580.496 417.831,580.496 420.998,580.496 424.166,580.496 427.333,580.496 430.501,580.496 433.668,580.496 436.835,580.496 440.003,580.496 443.17,580.496 446.338,580.496 449.505,580.496 452.672,580.496 455.84,580.496 459.007,580.496 462.175,580.496 465.342,580.496 468.509,580.496 471.677,580.496 474.844,580.496 478.012,580.496 481.179,580.496 484.346,580.496 487.514,580.496 490.681,580.496 493.849,580.496 497.016,580.496 500.183,580.496 503.351,580.496 506.518,580.496 509.686,580.496 512.853,580.496 516.021,580.496 519.188,580.496 522.355,580.496 525.523,580.496 528.69,580.496 531.858,580.496 535.025,580.496 538.192,580.496 541.36,580.496 544.527,580.496 547.695,580.496 550.862,580.496 554.029,580.496 557.197,580.496 560.364,580.496 563.532,580.496 566.699,580.496 569.866,580.496 573.034,580.496 576.201,580.496 579.369,580.496 582.536,580.496 585.704,580.496 588.871,580.496 592.038,580.496 595.206,580.496 598.373,580.496 601.541,580.496 604.708,580.496 607.875,580.496 611.043,580.496 614.21,580.496 617.378,580.496 620.545,580.496 623.712,580.496 626.88,580.496 630.047,580.496 633.215,580.496 636.382,580.496 639.549,580.496 642.717,580.496 645.884,580.496 649.052,580.496 652.219,580.496 655.387,580.496 658.554,580.496 661.721,580.496 664.889,580.496 668.056,580.496 671.224,580.496 674.391,580.496 677.558,580.496 680.726,580.496 683.893,580.496 687.061,580.496 690.228,580.496 693.395,580.496 696.563,580.496 699.73,580.496 702.898,580.496 706.065,580.496 709.232,580.496 712.4,580.496 715.567,580.496 718.735,580.496 721.902,580.496 725.069,580.496 728.237,580.496 731.404,580.496 734.572,580.496 737.739,580.496 740.907,580.496 744.074,580.496 747.241,580.496 750.409,580.496 753.576,580.496 756.744,580.496 759.911,580.496 763.078,580.496 766.246,580.496 769.413,580.496 772.581,580.496 775.748,580.496 778.915,580.496 782.083,580.496 785.25,580.496 788.418,580.496 791.585,580.496 794.752,580.496 797.92,580.496 801.087,580.496 804.255,580.496 807.422,580.496 810.59,580.496 813.757,580.496 816.924,580.496 820.092,580.496 823.259,580.496 826.427,580.496 829.594,580.496 832.761,580.496 835.929,580.496 839.096,580.496 842.264,580.496 845.431,580.496 848.598,580.496 851.766,580.496 854.933,580.496 858.101,580.496 861.268,580.496 864.435,580.496 867.603,580.496 870.77,580.496 873.938,580.496 877.105,580.496 880.273,580.496 883.44,580.496 886.607,580.496 889.775,580.496 892.942,580.496 896.11,580.496 899.277,580.496 902.444,580.496 905.612,580.496 908.779,580.496 911.947,580.496 915.114,580.496 918.281,580.496 921.449,580.496 924.616,580.496 927.784,580.496 930.951,580.496 934.118,580.496 937.286,580.496 940.453,580.496 943.621,580.496 946.788,580.496 949.955,580.496 953.123,580.496 956.29,580.496 959.458,580.496 962.625,580.496 965.793,580.496 968.96,580.496 972.127,580.496 975.295,580.496 978.462,580.496 981.63,580.496 984.797,580.496 987.964,580.496 991.132,580.496 994.299,580.496 997.467,580.496 1000.63,580.496 1003.8,580.496 1006.97,580.496 1010.14,580.496 1013.3,580.496 1016.47,580.496 1019.64,580.496 1022.81,580.496 1025.97,580.496 1029.14,580.496 1032.31,580.496 1035.48,580.496 1038.64,580.496 1041.81,580.496 1044.98,580.496 1048.15,580.496 1051.31,580.496 1054.48,580.496 1057.65,580.496 1060.81,580.496 1063.98,580.496 1067.15,580.496 1070.32,580.496 1073.48,580.496 1076.65,580.496 1079.82,580.496 1082.99,580.496 1086.15,580.496 1089.32,580.496 1092.49,580.496 1095.66,580.496 1098.82,580.496 1101.99,580.496 1105.16,580.496 1108.33,580.496 1111.49,580.496 1114.66,580.496 1117.83,580.496 1121,580.496 1124.16,580.496 1127.33,580.496 1130.5,580.496 1133.67,580.496 1136.83,580.496 1140,580.496 1143.17,580.496 1146.33,580.496 1149.5,580.496 1152.67,580.496 1155.84,580.496 1159,580.496 1162.17,580.496 1165.34,580.496 1168.51,580.496 1171.67,580.496 1174.84,580.496 1178.01,580.496 1181.18,580.496 1184.34,580.496 1187.51,580.496 1190.68,580.496 1193.85,580.496 1197.01,580.496 1200.18,580.496 1203.35,580.496 1206.52,580.496 "/>
<polyline clip-path="url(#clip822)" style="stroke:#578fc7; stroke-linecap:round; stroke-linejoin:round; stroke-width:4; stroke-opacity:1; fill:none" points="576.201,935.191 579.369,935.191 582.536,935.191 585.704,935.191 588.871,935.191 592.038,935.191 595.206,935.191 598.373,935.191 601.541,935.191 604.708,935.191 607.875,935.191 611.043,935.191 614.21,935.191 617.378,935.191 620.545,935.191 623.712,935.191 626.88,935.191 630.047,935.191 633.215,935.191 636.382,935.191 639.549,935.191 642.717,935.191 645.884,935.191 649.052,935.191 652.219,935.191 655.387,935.191 658.554,935.191 661.721,935.191 664.889,935.191 668.056,935.191 671.224,935.191 674.391,935.191 677.558,935.191 680.726,935.191 683.893,935.191 687.061,935.191 690.228,935.191 693.395,935.191 696.563,935.191 699.73,935.191 702.898,935.191 706.065,935.191 709.232,935.191 712.4,935.191 715.567,935.191 718.735,935.191 721.902,935.191 725.069,935.191 728.237,935.191 731.404,935.191 734.572,935.191 737.739,935.191 740.907,935.191 744.074,935.191 747.241,935.191 750.409,935.191 753.576,935.191 756.744,935.191 759.911,935.191 763.078,935.191 766.246,935.191 769.413,935.191 772.581,935.191 775.748,935.191 778.915,935.191 782.083,935.191 785.25,935.191 788.418,935.191 791.585,935.191 794.752,935.191 797.92,935.191 801.087,935.191 804.255,935.191 807.422,935.191 810.59,935.191 813.757,935.191 816.924,935.191 820.092,935.191 823.259,935.191 826.427,935.191 829.594,935.191 832.761,935.191 835.929,935.191 839.096,935.191 842.264,935.191 845.431,935.191 848.598,935.191 851.766,935.191 854.933,935.191 858.101,935.191 861.268,935.191 864.435,935.191 867.603,935.191 870.77,935.191 873.938,935.191 877.105,935.191 880.273,935.191 883.44,935.191 886.607,935.191 889.775,935.191 892.942,935.191 896.11,935.191 899.277,935.191 902.444,935.191 905.612,935.191 908.779,935.191 911.947,935.191 915.114,935.191 918.281,935.191 921.449,935.191 924.616,935.191 927.784,935.191 930.951,935.191 934.118,935.191 937.286,935.191 940.453,935.191 943.621,935.191 946.788,935.191 949.955,935.191 953.123,935.191 956.29,935.191 959.458,935.191 962.625,935.191 965.793,935.191 968.96,935.191 972.127,935.191 975.295,935.191 978.462,935.191 981.63,935.191 984.797,935.191 987.964,935.191 991.132,935.191 994.299,935.191 997.467,935.191 1000.63,935.191 1003.8,935.191 1006.97,935.191 1010.14,935.191 1013.3,935.191 1016.47,935.191 1019.64,935.191 1022.81,935.191 1025.97,935.191 1029.14,935.191 1032.31,935.191 1035.48,935.191 1038.64,935.191 1041.81,935.191 1044.98,935.191 1048.15,935.191 1051.31,935.191 1054.48,935.191 1057.65,935.191 1060.81,935.191 1063.98,935.191 1067.15,935.191 1070.32,935.191 1073.48,935.191 1076.65,935.191 1079.82,935.191 1082.99,935.191 1086.15,935.191 1089.32,935.191 1092.49,935.191 1095.66,935.191 1098.82,935.191 1101.99,935.191 1105.16,935.191 1108.33,935.191 1111.49,935.191 1114.66,935.191 1117.83,935.191 1121,935.191 1124.16,935.191 1127.33,935.191 1130.5,935.191 1133.67,935.191 1136.83,935.191 1140,935.191 1143.17,935.191 1146.33,935.191 1149.5,935.191 1152.67,935.191 1155.84,935.191 1159,935.191 1162.17,935.191 1165.34,935.191 1168.51,935.191 1171.67,935.191 1174.84,935.191 1178.01,935.191 1181.18,935.191 1184.34,935.191 1187.51,935.191 1190.68,935.191 1193.85,935.191 1197.01,935.191 1200.18,935.191 1203.35,935.191 1206.52,935.191 1209.68,935.191 1212.85,935.191 1216.02,935.191 1219.19,935.191 1222.35,935.191 1225.52,935.191 1228.69,935.191 1231.85,935.191 1235.02,935.191 1238.19,935.191 1241.36,935.191 1244.52,935.191 1247.69,935.191 1250.86,935.191 1254.03,935.191 1257.19,935.191 1260.36,935.191 1263.53,935.191 1266.7,935.191 1269.86,935.191 1273.03,935.191 1276.2,935.191 1279.37,935.191 1282.53,935.191 1285.7,935.191 1288.87,935.191 1292.04,935.191 1295.2,935.191 1298.37,935.191 1301.54,935.191 1304.71,935.191 1307.87,935.191 1311.04,935.191 1314.21,935.191 1317.37,935.191 1320.54,935.191 1323.71,935.191 1326.88,935.191 1330.04,935.191 1333.21,935.191 1336.38,935.191 1339.55,935.191 1342.71,935.191 1345.88,935.191 1349.05,935.191 1352.22,935.191 1355.38,935.191 1358.55,935.191 1361.72,935.191 1364.89,935.191 1368.05,935.191 1371.22,935.191 1374.39,935.191 1377.56,935.191 1380.72,935.191 1383.89,935.191 1387.06,935.191 1390.23,935.191 1393.39,935.191 1396.56,935.191 1399.73,935.191 1402.89,935.191 1406.06,935.191 1409.23,935.191 1412.4,935.191 1415.56,935.191 1418.73,935.191 1421.9,935.191 1425.07,935.191 1428.23,935.191 1431.4,935.191 1434.57,935.191 1437.74,935.191 1440.9,935.191 1444.07,935.191 1447.24,935.191 1450.41,935.191 1453.57,935.191 1456.74,935.191 1459.91,935.191 1463.08,935.191 1466.24,935.191 1469.41,935.191 1472.58,935.191 1475.75,935.191 1478.91,935.191 1482.08,935.191 1485.25,935.191 1488.41,935.191 1491.58,935.191 1494.75,935.191 1497.92,935.191 1501.08,935.191 1504.25,935.191 1507.42,935.191 1510.59,935.191 1513.75,935.191 1516.92,935.191 1520.09,935.191 1523.26,935.191 1526.42,935.191 1529.59,935.191 1532.76,935.191 1535.93,935.191 1539.09,935.191 1542.26,935.191 1545.43,935.191 1548.6,935.191 1551.76,935.191 1554.93,935.191 1558.1,935.191 1561.27,935.191 1564.43,935.191 1567.6,935.191 1570.77,935.191 1573.93,935.191 1577.1,935.191 1580.27,935.191 1583.44,935.191 1586.6,935.191 1589.77,935.191 1592.94,935.191 1596.11,935.191 1599.27,935.191 1602.44,935.191 1605.61,935.191 1608.78,935.191 1611.94,935.191 1615.11,935.191 1618.28,935.191 1621.45,935.191 1624.61,935.191 1627.78,935.191 1630.95,935.191 1634.12,935.191 1637.28,935.191 1640.45,935.191 1643.62,935.191 1646.79,935.191 1649.95,935.191 1653.12,935.191 1656.29,935.191 1659.45,935.191 1662.62,935.191 1665.79,935.191 1668.96,935.191 1672.12,935.191 1675.29,935.191 1678.46,935.191 1681.63,935.191 1684.79,935.191 1687.96,935.191 1691.13,935.191 1694.3,935.191 1697.46,935.191 1700.63,935.191 1703.8,935.191 1706.97,935.191 1710.13,935.191 1713.3,935.191 1716.47,935.191 1719.64,935.191 1722.8,935.191 1725.97,935.191 1729.14,935.191 1732.31,935.191 1735.47,935.191 1738.64,935.191 1741.81,935.191 1744.98,935.191 1748.14,935.191 1751.31,935.191 1754.48,935.191 1757.64,935.191 1760.81,935.191 1763.98,935.191 1767.15,935.191 1770.31,935.191 1773.48,935.191 1776.65,935.191 1779.82,935.191 1782.98,935.191 1786.15,935.191 1789.32,935.191 1792.49,935.191 "/>
<polyline clip-path="url(#clip822)" style="stroke:#bc1c5f; stroke-linecap:round; stroke-linejoin:round; stroke-width:4; stroke-opacity:1; fill:none" points="363.985,341.594 367.152,341.594 370.32,341.594 373.487,341.594 376.655,341.594 379.822,341.594 382.989,341.594 386.157,341.594 389.324,341.594 392.492,341.594 395.659,341.594 398.826,341.594 401.994,341.594 405.161,341.594 408.329,341.594 411.496,341.594 414.663,341.594 417.831,341.594 420.998,341.594 424.166,341.594 427.333,341.594 430.501,341.594 433.668,341.594 436.835,341.594 440.003,341.594 443.17,341.594 446.338,341.594 449.505,341.594 452.672,341.594 455.84,341.594 459.007,341.594 462.175,341.594 465.342,341.594 468.509,341.594 471.677,341.594 474.844,341.594 478.012,341.594 481.179,341.594 484.346,341.594 487.514,341.594 490.681,341.594 493.849,341.594 497.016,341.594 500.183,341.594 503.351,341.594 506.518,341.594 509.686,341.594 512.853,341.594 516.021,341.594 519.188,341.594 522.355,341.594 525.523,341.594 528.69,341.594 531.858,341.594 535.025,341.594 538.192,341.594 541.36,341.594 544.527,341.594 547.695,341.594 550.862,341.594 554.029,341.594 557.197,341.594 560.364,341.594 563.532,341.594 566.699,341.594 569.866,341.594 573.034,341.594 576.201,341.594 579.369,341.594 582.536,341.594 585.704,341.594 588.871,341.594 592.038,341.594 595.206,341.594 598.373,341.594 601.541,341.594 604.708,341.594 607.875,341.594 611.043,341.594 614.21,341.594 617.378,341.594 620.545,341.594 623.712,341.594 626.88,341.594 630.047,341.594 633.215,341.594 636.382,341.594 639.549,341.594 642.717,341.594 645.884,341.594 649.052,341.594 652.219,341.594 655.387,341.594 658.554,341.594 661.721,341.594 664.889,341.594 668.056,341.594 671.224,341.594 674.391,341.594 677.558,341.594 680.726,341.594 683.893,341.594 687.061,341.594 690.228,341.594 693.395,341.594 696.563,341.594 699.73,341.594 702.898,341.594 706.065,341.594 709.232,341.594 712.4,341.594 715.567,341.594 718.735,341.594 721.902,341.594 725.069,341.594 728.237,341.594 731.404,341.594 734.572,341.594 737.739,341.594 740.907,341.594 744.074,341.594 747.241,341.594 750.409,341.594 753.576,341.594 756.744,341.594 759.911,341.594 763.078,341.594 766.246,341.594 769.413,341.594 772.581,341.594 775.748,341.594 778.915,341.594 782.083,341.594 785.25,341.594 788.418,341.594 791.585,341.594 794.752,341.594 797.92,341.594 801.087,341.594 804.255,341.594 807.422,341.594 810.59,341.594 813.757,341.594 816.924,341.594 820.092,341.594 823.259,341.594 826.427,341.594 829.594,341.594 832.761,341.594 835.929,341.594 839.096,341.594 842.264,341.594 845.431,341.594 848.598,341.594 851.766,341.594 854.933,341.594 858.101,341.594 861.268,341.594 864.435,341.594 867.603,341.594 870.77,341.594 873.938,341.594 877.105,341.594 880.273,341.594 883.44,341.594 886.607,341.594 889.775,341.594 892.942,341.594 896.11,341.594 899.277,341.594 902.444,341.594 905.612,341.594 908.779,341.594 911.947,341.594 915.114,341.594 918.281,341.594 921.449,341.594 924.616,341.594 927.784,341.594 930.951,341.594 934.118,341.594 937.286,341.594 940.453,341.594 943.621,341.594 946.788,341.594 949.955,341.594 953.123,341.594 956.29,341.594 959.458,341.594 962.625,341.594 965.793,341.594 968.96,341.594 972.127,341.594 975.295,341.594 978.462,341.594 981.63,341.594 984.797,341.594 987.964,341.594 991.132,341.594 994.299,341.594 997.467,341.594 1000.63,341.594 1003.8,341.594 1006.97,341.594 1010.14,341.594 1013.3,341.594 1016.47,341.594 1019.64,341.594 1022.81,341.594 1025.97,341.594 1029.14,341.594 1032.31,341.594 1035.48,341.594 1038.64,341.594 1041.81,341.594 1044.98,341.594 1048.15,341.594 1051.31,341.594 1054.48,341.594 1057.65,341.594 1060.81,341.594 1063.98,341.594 1067.15,341.594 1070.32,341.594 1073.48,341.594 1076.65,341.594 1079.82,341.594 1082.99,341.594 1086.15,341.594 1089.32,341.594 1092.49,341.594 1095.66,341.594 1098.82,341.594 1101.99,341.594 1105.16,341.594 1108.33,341.594 1111.49,341.594 1114.66,341.594 1117.83,341.594 1121,341.594 1124.16,341.594 1127.33,341.594 1130.5,341.594 1133.67,341.594 1136.83,341.594 1140,341.594 1143.17,341.594 1146.33,341.594 1149.5,341.594 1152.67,341.594 1155.84,341.594 1159,341.594 1162.17,341.594 1165.34,341.594 1168.51,341.594 1171.67,341.594 1174.84,341.594 1178.01,341.594 1181.18,341.594 1184.34,341.594 1187.51,341.594 1190.68,341.594 1193.85,341.594 1197.01,341.594 1200.18,341.594 1203.35,341.594 1206.52,341.594 1209.68,341.594 1212.85,341.594 1216.02,341.594 1219.19,341.594 1222.35,341.594 1225.52,341.594 1228.69,341.594 1231.85,341.594 1235.02,341.594 1238.19,341.594 1241.36,341.594 1244.52,341.594 1247.69,341.594 "/>
<polyline clip-path="url(#clip822)" style="stroke:#578fc7; stroke-linecap:round; stroke-linejoin:round; stroke-width:4; stroke-opacity:1; fill:none" points="569.866,871.447 573.034,871.447 576.201,871.447 579.369,871.447 582.536,871.447 585.704,871.447 588.871,871.447 592.038,871.447 595.206,871.447 598.373,871.447 601.541,871.447 604.708,871.447 607.875,871.447 611.043,871.447 614.21,871.447 617.378,871.447 620.545,871.447 623.712,871.447 626.88,871.447 630.047,871.447 633.215,871.447 636.382,871.447 639.549,871.447 642.717,871.447 645.884,871.447 649.052,871.447 652.219,871.447 655.387,871.447 658.554,871.447 661.721,871.447 664.889,871.447 668.056,871.447 671.224,871.447 674.391,871.447 677.558,871.447 680.726,871.447 683.893,871.447 687.061,871.447 690.228,871.447 693.395,871.447 696.563,871.447 699.73,871.447 702.898,871.447 706.065,871.447 709.232,871.447 712.4,871.447 715.567,871.447 718.735,871.447 721.902,871.447 725.069,871.447 728.237,871.447 731.404,871.447 734.572,871.447 737.739,871.447 740.907,871.447 744.074,871.447 747.241,871.447 750.409,871.447 753.576,871.447 756.744,871.447 759.911,871.447 763.078,871.447 766.246,871.447 769.413,871.447 772.581,871.447 775.748,871.447 778.915,871.447 782.083,871.447 785.25,871.447 788.418,871.447 791.585,871.447 794.752,871.447 797.92,871.447 801.087,871.447 804.255,871.447 807.422,871.447 810.59,871.447 813.757,871.447 816.924,871.447 820.092,871.447 823.259,871.447 826.427,871.447 829.594,871.447 832.761,871.447 835.929,871.447 839.096,871.447 842.264,871.447 845.431,871.447 848.598,871.447 851.766,871.447 854.933,871.447 858.101,871.447 861.268,871.447 864.435,871.447 867.603,871.447 870.77,871.447 873.938,871.447 877.105,871.447 880.273,871.447 883.44,871.447 886.607,871.447 889.775,871.447 892.942,871.447 896.11,871.447 899.277,871.447 902.444,871.447 905.612,871.447 908.779,871.447 911.947,871.447 915.114,871.447 918.281,871.447 921.449,871.447 924.616,871.447 927.784,871.447 930.951,871.447 934.118,871.447 937.286,871.447 940.453,871.447 943.621,871.447 946.788,871.447 949.955,871.447 953.123,871.447 956.29,871.447 959.458,871.447 962.625,871.447 965.793,871.447 968.96,871.447 972.127,871.447 975.295,871.447 978.462,871.447 981.63,871.447 984.797,871.447 987.964,871.447 991.132,871.447 994.299,871.447 997.467,871.447 1000.63,871.447 1003.8,871.447 1006.97,871.447 1010.14,871.447 1013.3,871.447 1016.47,871.447 1019.64,871.447 1022.81,871.447 1025.97,871.447 1029.14,871.447 1032.31,871.447 1035.48,871.447 1038.64,871.447 1041.81,871.447 1044.98,871.447 1048.15,871.447 1051.31,871.447 1054.48,871.447 1057.65,871.447 1060.81,871.447 1063.98,871.447 1067.15,871.447 1070.32,871.447 1073.48,871.447 1076.65,871.447 1079.82,871.447 1082.99,871.447 1086.15,871.447 1089.32,871.447 1092.49,871.447 1095.66,871.447 1098.82,871.447 1101.99,871.447 1105.16,871.447 1108.33,871.447 1111.49,871.447 1114.66,871.447 1117.83,871.447 1121,871.447 1124.16,871.447 1127.33,871.447 1130.5,871.447 1133.67,871.447 1136.83,871.447 1140,871.447 1143.17,871.447 1146.33,871.447 1149.5,871.447 1152.67,871.447 1155.84,871.447 1159,871.447 1162.17,871.447 1165.34,871.447 1168.51,871.447 1171.67,871.447 1174.84,871.447 1178.01,871.447 1181.18,871.447 1184.34,871.447 1187.51,871.447 1190.68,871.447 1193.85,871.447 1197.01,871.447 1200.18,871.447 1203.35,871.447 1206.52,871.447 1209.68,871.447 1212.85,871.447 1216.02,871.447 1219.19,871.447 1222.35,871.447 1225.52,871.447 1228.69,871.447 1231.85,871.447 1235.02,871.447 1238.19,871.447 1241.36,871.447 1244.52,871.447 1247.69,871.447 1250.86,871.447 1254.03,871.447 1257.19,871.447 1260.36,871.447 1263.53,871.447 1266.7,871.447 1269.86,871.447 1273.03,871.447 1276.2,871.447 1279.37,871.447 1282.53,871.447 1285.7,871.447 1288.87,871.447 1292.04,871.447 1295.2,871.447 1298.37,871.447 1301.54,871.447 1304.71,871.447 1307.87,871.447 1311.04,871.447 1314.21,871.447 1317.37,871.447 1320.54,871.447 1323.71,871.447 1326.88,871.447 1330.04,871.447 1333.21,871.447 1336.38,871.447 1339.55,871.447 1342.71,871.447 1345.88,871.447 1349.05,871.447 1352.22,871.447 1355.38,871.447 1358.55,871.447 1361.72,871.447 1364.89,871.447 1368.05,871.447 1371.22,871.447 1374.39,871.447 1377.56,871.447 1380.72,871.447 1383.89,871.447 1387.06,871.447 1390.23,871.447 1393.39,871.447 1396.56,871.447 1399.73,871.447 1402.89,871.447 1406.06,871.447 1409.23,871.447 1412.4,871.447 1415.56,871.447 1418.73,871.447 1421.9,871.447 1425.07,871.447 1428.23,871.447 1431.4,871.447 1434.57,871.447 1437.74,871.447 1440.9,871.447 1444.07,871.447 1447.24,871.447 1450.41,871.447 1453.57,871.447 1456.74,871.447 1459.91,871.447 1463.08,871.447 1466.24,871.447 1469.41,871.447 1472.58,871.447 1475.75,871.447 1478.91,871.447 1482.08,871.447 1485.25,871.447 1488.41,871.447 1491.58,871.447 1494.75,871.447 1497.92,871.447 1501.08,871.447 1504.25,871.447 1507.42,871.447 1510.59,871.447 1513.75,871.447 1516.92,871.447 1520.09,871.447 1523.26,871.447 1526.42,871.447 1529.59,871.447 1532.76,871.447 1535.93,871.447 1539.09,871.447 1542.26,871.447 1545.43,871.447 1548.6,871.447 1551.76,871.447 1554.93,871.447 1558.1,871.447 1561.27,871.447 1564.43,871.447 1567.6,871.447 1570.77,871.447 1573.93,871.447 1577.1,871.447 1580.27,871.447 1583.44,871.447 1586.6,871.447 1589.77,871.447 1592.94,871.447 1596.11,871.447 1599.27,871.447 1602.44,871.447 1605.61,871.447 1608.78,871.447 1611.94,871.447 1615.11,871.447 1618.28,871.447 1621.45,871.447 1624.61,871.447 1627.78,871.447 1630.95,871.447 1634.12,871.447 1637.28,871.447 1640.45,871.447 1643.62,871.447 1646.79,871.447 1649.95,871.447 1653.12,871.447 1656.29,871.447 1659.45,871.447 1662.62,871.447 1665.79,871.447 1668.96,871.447 1672.12,871.447 1675.29,871.447 1678.46,871.447 1681.63,871.447 1684.79,871.447 1687.96,871.447 1691.13,871.447 1694.3,871.447 1697.46,871.447 1700.63,871.447 1703.8,871.447 1706.97,871.447 1710.13,871.447 1713.3,871.447 1716.47,871.447 1719.64,871.447 1722.8,871.447 1725.97,871.447 1729.14,871.447 1732.31,871.447 1735.47,871.447 1738.64,871.447 1741.81,871.447 1744.98,871.447 1748.14,871.447 1751.31,871.447 1754.48,871.447 1757.64,871.447 1760.81,871.447 1763.98,871.447 1767.15,871.447 1770.31,871.447 1773.48,871.447 1776.65,871.447 1779.82,871.447 1782.98,871.447 1786.15,871.447 1789.32,871.447 1792.49,871.447 1795.65,871.447 1798.82,871.447 1801.99,871.447 1805.16,871.447 1808.32,871.447 1811.49,871.447 1814.66,871.447 1817.83,871.447 1820.99,871.447 1824.16,871.447 1827.33,871.447 1830.5,871.447 1833.66,871.447 1836.83,871.447 1840,871.447 1843.16,871.447 1846.33,871.447 1849.5,871.447 1852.67,871.447 1855.83,871.447 1859,871.447 1862.17,871.447 1865.34,871.447 1868.5,871.447 1871.67,871.447 1874.84,871.447 1878.01,871.447 1881.17,871.447 1884.34,871.447 1887.51,871.447 1890.68,871.447 1893.84,871.447 1897.01,871.447 1900.18,871.447 1903.35,871.447 1906.51,871.447 1909.68,871.447 1912.85,871.447 1916.02,871.447 1919.18,871.447 1922.35,871.447 1925.52,871.447 1928.68,871.447 1931.85,871.447 1935.02,871.447 1938.19,871.447 1941.35,871.447 1944.52,871.447 1947.69,871.447 1950.86,871.447 1954.02,871.447 1957.19,871.447 1960.36,871.447 1963.53,871.447 1966.69,871.447 1969.86,871.447 1973.03,871.447 1976.2,871.447 1979.36,871.447 1982.53,871.447 1985.7,871.447 1988.87,871.447 1992.03,871.447 1995.2,871.447 1998.37,871.447 2001.54,871.447 2004.7,871.447 2007.87,871.447 2011.04,871.447 2014.2,871.447 2017.37,871.447 2020.54,871.447 2023.71,871.447 2026.87,871.447 2030.04,871.447 2033.21,871.447 2036.38,871.447 2039.54,871.447 2042.71,871.447 2045.88,871.447 2049.05,871.447 2052.21,871.447 2055.38,871.447 2058.55,871.447 2061.72,871.447 2064.88,871.447 2068.05,871.447 2071.22,871.447 2074.39,871.447 2077.55,871.447 2080.72,871.447 2083.89,871.447 2087.06,871.447 2090.22,871.447 2093.39,871.447 2096.56,871.447 2099.72,871.447 2102.89,871.447 2106.06,871.447 2109.23,871.447 2112.39,871.447 2115.56,871.447 2118.73,871.447 2121.9,871.447 2125.06,871.447 2128.23,871.447 2131.4,871.447 2134.57,871.447 2137.73,871.447 2140.9,871.447 2144.07,871.447 2147.24,871.447 2150.4,871.447 2153.57,871.447 2156.74,871.447 2159.91,871.447 2163.07,871.447 2166.24,871.447 2169.41,871.447 2172.58,871.447 2175.74,871.447 2178.91,871.447 2182.08,871.447 2185.24,871.447 2188.41,871.447 2191.58,871.447 "/>
<polyline clip-path="url(#clip822)" style="stroke:#bc1c5f; stroke-linecap:round; stroke-linejoin:round; stroke-width:4; stroke-opacity:1; fill:none" points="325.976,102.692 329.143,102.692 332.311,102.692 335.478,102.692 338.646,102.692 341.813,102.692 344.98,102.692 348.148,102.692 351.315,102.692 354.483,102.692 357.65,102.692 360.818,102.692 363.985,102.692 367.152,102.692 370.32,102.692 373.487,102.692 376.655,102.692 379.822,102.692 382.989,102.692 386.157,102.692 389.324,102.692 392.492,102.692 395.659,102.692 398.826,102.692 401.994,102.692 405.161,102.692 408.329,102.692 411.496,102.692 414.663,102.692 417.831,102.692 420.998,102.692 424.166,102.692 427.333,102.692 430.501,102.692 433.668,102.692 436.835,102.692 440.003,102.692 443.17,102.692 446.338,102.692 449.505,102.692 452.672,102.692 455.84,102.692 459.007,102.692 462.175,102.692 465.342,102.692 468.509,102.692 471.677,102.692 474.844,102.692 478.012,102.692 481.179,102.692 484.346,102.692 487.514,102.692 490.681,102.692 493.849,102.692 497.016,102.692 500.183,102.692 503.351,102.692 506.518,102.692 509.686,102.692 512.853,102.692 516.021,102.692 519.188,102.692 522.355,102.692 525.523,102.692 528.69,102.692 531.858,102.692 535.025,102.692 538.192,102.692 541.36,102.692 544.527,102.692 547.695,102.692 550.862,102.692 554.029,102.692 557.197,102.692 560.364,102.692 563.532,102.692 566.699,102.692 569.866,102.692 573.034,102.692 576.201,102.692 579.369,102.692 582.536,102.692 585.704,102.692 588.871,102.692 592.038,102.692 595.206,102.692 598.373,102.692 601.541,102.692 604.708,102.692 607.875,102.692 611.043,102.692 614.21,102.692 617.378,102.692 620.545,102.692 623.712,102.692 626.88,102.692 630.047,102.692 633.215,102.692 636.382,102.692 639.549,102.692 642.717,102.692 645.884,102.692 649.052,102.692 652.219,102.692 655.387,102.692 658.554,102.692 661.721,102.692 664.889,102.692 668.056,102.692 671.224,102.692 674.391,102.692 677.558,102.692 680.726,102.692 683.893,102.692 687.061,102.692 690.228,102.692 693.395,102.692 696.563,102.692 699.73,102.692 702.898,102.692 706.065,102.692 709.232,102.692 712.4,102.692 715.567,102.692 718.735,102.692 721.902,102.692 725.069,102.692 728.237,102.692 731.404,102.692 734.572,102.692 737.739,102.692 740.907,102.692 744.074,102.692 747.241,102.692 750.409,102.692 753.576,102.692 756.744,102.692 759.911,102.692 763.078,102.692 766.246,102.692 769.413,102.692 772.581,102.692 775.748,102.692 778.915,102.692 782.083,102.692 785.25,102.692 788.418,102.692 791.585,102.692 794.752,102.692 797.92,102.692 801.087,102.692 804.255,102.692 807.422,102.692 810.59,102.692 813.757,102.692 816.924,102.692 820.092,102.692 823.259,102.692 826.427,102.692 829.594,102.692 832.761,102.692 835.929,102.692 839.096,102.692 842.264,102.692 845.431,102.692 848.598,102.692 851.766,102.692 854.933,102.692 858.101,102.692 861.268,102.692 864.435,102.692 867.603,102.692 870.77,102.692 873.938,102.692 877.105,102.692 880.273,102.692 883.44,102.692 886.607,102.692 889.775,102.692 892.942,102.692 896.11,102.692 899.277,102.692 902.444,102.692 905.612,102.692 908.779,102.692 911.947,102.692 915.114,102.692 918.281,102.692 921.449,102.692 924.616,102.692 927.784,102.692 930.951,102.692 934.118,102.692 937.286,102.692 940.453,102.692 943.621,102.692 946.788,102.692 949.955,102.692 953.123,102.692 956.29,102.692 959.458,102.692 962.625,102.692 965.793,102.692 968.96,102.692 972.127,102.692 975.295,102.692 978.462,102.692 981.63,102.692 984.797,102.692 987.964,102.692 991.132,102.692 994.299,102.692 997.467,102.692 1000.63,102.692 1003.8,102.692 1006.97,102.692 1010.14,102.692 1013.3,102.692 1016.47,102.692 1019.64,102.692 1022.81,102.692 1025.97,102.692 1029.14,102.692 1032.31,102.692 1035.48,102.692 1038.64,102.692 1041.81,102.692 1044.98,102.692 1048.15,102.692 1051.31,102.692 1054.48,102.692 1057.65,102.692 1060.81,102.692 1063.98,102.692 1067.15,102.692 1070.32,102.692 1073.48,102.692 1076.65,102.692 1079.82,102.692 1082.99,102.692 1086.15,102.692 1089.32,102.692 1092.49,102.692 1095.66,102.692 1098.82,102.692 1101.99,102.692 1105.16,102.692 1108.33,102.692 1111.49,102.692 1114.66,102.692 1117.83,102.692 1121,102.692 1124.16,102.692 1127.33,102.692 1130.5,102.692 1133.67,102.692 1136.83,102.692 1140,102.692 1143.17,102.692 1146.33,102.692 1149.5,102.692 1152.67,102.692 1155.84,102.692 1159,102.692 1162.17,102.692 1165.34,102.692 1168.51,102.692 1171.67,102.692 1174.84,102.692 1178.01,102.692 1181.18,102.692 1184.34,102.692 1187.51,102.692 1190.68,102.692 1193.85,102.692 1197.01,102.692 1200.18,102.692 1203.35,102.692 1206.52,102.692 1209.68,102.692 1212.85,102.692 1216.02,102.692 1219.19,102.692 1222.35,102.692 1225.52,102.692 1228.69,102.692 1231.85,102.692 1235.02,102.692 1238.19,102.692 1241.36,102.692 1244.52,102.692 1247.69,102.692 1250.86,102.692 1254.03,102.692 1257.19,102.692 1260.36,102.692 1263.53,102.692 1266.7,102.692 1269.86,102.692 1273.03,102.692 1276.2,102.692 1279.37,102.692 1282.53,102.692 1285.7,102.692 1288.87,102.692 "/>
<polyline clip-path="url(#clip822)" style="stroke:#578fc7; stroke-linecap:round; stroke-linejoin:round; stroke-width:4; stroke-opacity:1; fill:none" points="566.699,842.734 569.866,842.734 573.034,842.734 576.201,842.734 579.369,842.734 582.536,842.734 585.704,842.734 588.871,842.734 592.038,842.734 595.206,842.734 598.373,842.734 601.541,842.734 604.708,842.734 607.875,842.734 611.043,842.734 614.21,842.734 617.378,842.734 620.545,842.734 623.712,842.734 626.88,842.734 630.047,842.734 633.215,842.734 636.382,842.734 639.549,842.734 642.717,842.734 645.884,842.734 649.052,842.734 652.219,842.734 655.387,842.734 658.554,842.734 661.721,842.734 664.889,842.734 668.056,842.734 671.224,842.734 674.391,842.734 677.558,842.734 680.726,842.734 683.893,842.734 687.061,842.734 690.228,842.734 693.395,842.734 696.563,842.734 699.73,842.734 702.898,842.734 706.065,842.734 709.232,842.734 712.4,842.734 715.567,842.734 718.735,842.734 721.902,842.734 725.069,842.734 728.237,842.734 731.404,842.734 734.572,842.734 737.739,842.734 740.907,842.734 744.074,842.734 747.241,842.734 750.409,842.734 753.576,842.734 756.744,842.734 759.911,842.734 763.078,842.734 766.246,842.734 769.413,842.734 772.581,842.734 775.748,842.734 778.915,842.734 782.083,842.734 785.25,842.734 788.418,842.734 791.585,842.734 794.752,842.734 797.92,842.734 801.087,842.734 804.255,842.734 807.422,842.734 810.59,842.734 813.757,842.734 816.924,842.734 820.092,842.734 823.259,842.734 826.427,842.734 829.594,842.734 832.761,842.734 835.929,842.734 839.096,842.734 842.264,842.734 845.431,842.734 848.598,842.734 851.766,842.734 854.933,842.734 858.101,842.734 861.268,842.734 864.435,842.734 867.603,842.734 870.77,842.734 873.938,842.734 877.105,842.734 880.273,842.734 883.44,842.734 886.607,842.734 889.775,842.734 892.942,842.734 896.11,842.734 899.277,842.734 902.444,842.734 905.612,842.734 908.779,842.734 911.947,842.734 915.114,842.734 918.281,842.734 921.449,842.734 924.616,842.734 927.784,842.734 930.951,842.734 934.118,842.734 937.286,842.734 940.453,842.734 943.621,842.734 946.788,842.734 949.955,842.734 953.123,842.734 956.29,842.734 959.458,842.734 962.625,842.734 965.793,842.734 968.96,842.734 972.127,842.734 975.295,842.734 978.462,842.734 981.63,842.734 984.797,842.734 987.964,842.734 991.132,842.734 994.299,842.734 997.467,842.734 1000.63,842.734 1003.8,842.734 1006.97,842.734 1010.14,842.734 1013.3,842.734 1016.47,842.734 1019.64,842.734 1022.81,842.734 1025.97,842.734 1029.14,842.734 1032.31,842.734 1035.48,842.734 1038.64,842.734 1041.81,842.734 1044.98,842.734 1048.15,842.734 1051.31,842.734 1054.48,842.734 1057.65,842.734 1060.81,842.734 1063.98,842.734 1067.15,842.734 1070.32,842.734 1073.48,842.734 1076.65,842.734 1079.82,842.734 1082.99,842.734 1086.15,842.734 1089.32,842.734 1092.49,842.734 1095.66,842.734 1098.82,842.734 1101.99,842.734 1105.16,842.734 1108.33,842.734 1111.49,842.734 1114.66,842.734 1117.83,842.734 1121,842.734 1124.16,842.734 1127.33,842.734 1130.5,842.734 1133.67,842.734 1136.83,842.734 1140,842.734 1143.17,842.734 1146.33,842.734 1149.5,842.734 1152.67,842.734 1155.84,842.734 1159,842.734 1162.17,842.734 1165.34,842.734 1168.51,842.734 1171.67,842.734 1174.84,842.734 1178.01,842.734 1181.18,842.734 1184.34,842.734 1187.51,842.734 1190.68,842.734 1193.85,842.734 1197.01,842.734 1200.18,842.734 1203.35,842.734 1206.52,842.734 1209.68,842.734 1212.85,842.734 1216.02,842.734 1219.19,842.734 1222.35,842.734 1225.52,842.734 1228.69,842.734 1231.85,842.734 1235.02,842.734 1238.19,842.734 1241.36,842.734 1244.52,842.734 1247.69,842.734 1250.86,842.734 1254.03,842.734 1257.19,842.734 1260.36,842.734 1263.53,842.734 1266.7,842.734 1269.86,842.734 1273.03,842.734 1276.2,842.734 1279.37,842.734 1282.53,842.734 1285.7,842.734 1288.87,842.734 1292.04,842.734 1295.2,842.734 1298.37,842.734 1301.54,842.734 1304.71,842.734 1307.87,842.734 1311.04,842.734 1314.21,842.734 1317.37,842.734 1320.54,842.734 1323.71,842.734 1326.88,842.734 1330.04,842.734 1333.21,842.734 1336.38,842.734 1339.55,842.734 1342.71,842.734 1345.88,842.734 1349.05,842.734 1352.22,842.734 1355.38,842.734 1358.55,842.734 1361.72,842.734 1364.89,842.734 1368.05,842.734 1371.22,842.734 1374.39,842.734 1377.56,842.734 1380.72,842.734 1383.89,842.734 1387.06,842.734 1390.23,842.734 1393.39,842.734 1396.56,842.734 1399.73,842.734 1402.89,842.734 1406.06,842.734 1409.23,842.734 1412.4,842.734 1415.56,842.734 1418.73,842.734 1421.9,842.734 1425.07,842.734 1428.23,842.734 1431.4,842.734 1434.57,842.734 1437.74,842.734 1440.9,842.734 1444.07,842.734 1447.24,842.734 1450.41,842.734 1453.57,842.734 1456.74,842.734 1459.91,842.734 1463.08,842.734 1466.24,842.734 1469.41,842.734 1472.58,842.734 1475.75,842.734 1478.91,842.734 1482.08,842.734 1485.25,842.734 1488.41,842.734 1491.58,842.734 1494.75,842.734 1497.92,842.734 1501.08,842.734 1504.25,842.734 1507.42,842.734 1510.59,842.734 1513.75,842.734 1516.92,842.734 1520.09,842.734 1523.26,842.734 1526.42,842.734 1529.59,842.734 1532.76,842.734 1535.93,842.734 1539.09,842.734 1542.26,842.734 1545.43,842.734 1548.6,842.734 1551.76,842.734 1554.93,842.734 1558.1,842.734 1561.27,842.734 1564.43,842.734 1567.6,842.734 1570.77,842.734 1573.93,842.734 1577.1,842.734 1580.27,842.734 1583.44,842.734 1586.6,842.734 1589.77,842.734 1592.94,842.734 1596.11,842.734 1599.27,842.734 1602.44,842.734 1605.61,842.734 1608.78,842.734 1611.94,842.734 1615.11,842.734 1618.28,842.734 1621.45,842.734 1624.61,842.734 1627.78,842.734 1630.95,842.734 1634.12,842.734 1637.28,842.734 1640.45,842.734 1643.62,842.734 1646.79,842.734 1649.95,842.734 1653.12,842.734 1656.29,842.734 1659.45,842.734 1662.62,842.734 1665.79,842.734 1668.96,842.734 1672.12,842.734 1675.29,842.734 1678.46,842.734 1681.63,842.734 1684.79,842.734 1687.96,842.734 1691.13,842.734 1694.3,842.734 1697.46,842.734 1700.63,842.734 1703.8,842.734 1706.97,842.734 1710.13,842.734 1713.3,842.734 1716.47,842.734 1719.64,842.734 1722.8,842.734 1725.97,842.734 1729.14,842.734 1732.31,842.734 1735.47,842.734 1738.64,842.734 1741.81,842.734 1744.98,842.734 1748.14,842.734 1751.31,842.734 1754.48,842.734 1757.64,842.734 1760.81,842.734 1763.98,842.734 1767.15,842.734 1770.31,842.734 1773.48,842.734 1776.65,842.734 1779.82,842.734 1782.98,842.734 1786.15,842.734 1789.32,842.734 1792.49,842.734 1795.65,842.734 1798.82,842.734 1801.99,842.734 1805.16,842.734 1808.32,842.734 1811.49,842.734 1814.66,842.734 1817.83,842.734 1820.99,842.734 1824.16,842.734 1827.33,842.734 1830.5,842.734 1833.66,842.734 1836.83,842.734 1840,842.734 1843.16,842.734 1846.33,842.734 1849.5,842.734 1852.67,842.734 1855.83,842.734 1859,842.734 1862.17,842.734 1865.34,842.734 1868.5,842.734 1871.67,842.734 1874.84,842.734 1878.01,842.734 1881.17,842.734 1884.34,842.734 1887.51,842.734 1890.68,842.734 1893.84,842.734 1897.01,842.734 1900.18,842.734 1903.35,842.734 1906.51,842.734 1909.68,842.734 1912.85,842.734 1916.02,842.734 1919.18,842.734 1922.35,842.734 1925.52,842.734 1928.68,842.734 1931.85,842.734 1935.02,842.734 1938.19,842.734 1941.35,842.734 1944.52,842.734 1947.69,842.734 1950.86,842.734 1954.02,842.734 1957.19,842.734 1960.36,842.734 1963.53,842.734 1966.69,842.734 1969.86,842.734 1973.03,842.734 1976.2,842.734 1979.36,842.734 1982.53,842.734 1985.7,842.734 1988.87,842.734 1992.03,842.734 1995.2,842.734 1998.37,842.734 2001.54,842.734 2004.7,842.734 2007.87,842.734 2011.04,842.734 2014.2,842.734 2017.37,842.734 2020.54,842.734 2023.71,842.734 2026.87,842.734 2030.04,842.734 2033.21,842.734 2036.38,842.734 2039.54,842.734 2042.71,842.734 2045.88,842.734 2049.05,842.734 2052.21,842.734 2055.38,842.734 2058.55,842.734 2061.72,842.734 2064.88,842.734 2068.05,842.734 2071.22,842.734 2074.39,842.734 2077.55,842.734 2080.72,842.734 2083.89,842.734 2087.06,842.734 2090.22,842.734 2093.39,842.734 2096.56,842.734 2099.72,842.734 2102.89,842.734 2106.06,842.734 2109.23,842.734 2112.39,842.734 2115.56,842.734 2118.73,842.734 2121.9,842.734 2125.06,842.734 2128.23,842.734 2131.4,842.734 2134.57,842.734 2137.73,842.734 2140.9,842.734 2144.07,842.734 2147.24,842.734 2150.4,842.734 2153.57,842.734 2156.74,842.734 2159.91,842.734 2163.07,842.734 2166.24,842.734 2169.41,842.734 2172.58,842.734 2175.74,842.734 2178.91,842.734 2182.08,842.734 2185.24,842.734 2188.41,842.734 2191.58,842.734 2194.75,842.734 2197.91,842.734 2201.08,842.734 2204.25,842.734 2207.42,842.734 2210.58,842.734 2213.75,842.734 2216.92,842.734 2220.09,842.734 2223.25,842.734 2226.42,842.734 2229.59,842.734 2232.76,842.734 2235.92,842.734 2239.09,842.734 2242.26,842.734 2245.43,842.734 2248.59,842.734 2251.76,842.734 2254.93,842.734 2258.1,842.734 2261.26,842.734 2264.43,842.734 2267.6,842.734 2270.76,842.734 2273.93,842.734 2277.1,842.734 2280.27,842.734 2283.43,842.734 2286.6,842.734 2289.77,842.734 2292.94,842.734 2296.1,842.734 2299.27,842.734 2302.44,842.734 2305.61,842.734 2308.77,842.734 2311.94,842.734 2315.11,842.734 2318.28,842.734 2321.44,842.734 2324.61,842.734 2327.78,842.734 2330.95,842.734 2334.11,842.734 2337.28,842.734 2340.45,842.734 2343.62,842.734 2346.78,842.734 2349.95,842.734 2353.12,842.734 2356.28,842.734 2359.45,842.734 2362.62,842.734 2365.79,842.734 2368.95,842.734 2372.12,842.734 2375.29,842.734 2378.46,842.734 2381.62,842.734 2384.79,842.734 2387.96,842.734 2391.13,842.734 2394.29,842.734 2397.46,842.734 2400.63,842.734 2403.8,842.734 2406.96,842.734 2410.13,842.734 2413.3,842.734 2416.47,842.734 2419.63,842.734 2422.8,842.734 2425.97,842.734 2429.14,842.734 2432.3,842.734 2435.47,842.734 2438.64,842.734 2441.8,842.734 2444.97,842.734 2448.14,842.734 2451.31,842.734 2454.47,842.734 2457.64,842.734 2460.81,842.734 2463.98,842.734 2467.14,842.734 2470.31,842.734 2473.48,842.734 2476.65,842.734 2479.81,842.734 2482.98,842.734 2486.15,842.734 2489.32,842.734 2492.48,842.734 2495.65,842.734 2498.82,842.734 2501.99,842.734 2505.15,842.734 2508.32,842.734 2511.49,842.734 2514.66,842.734 2517.82,842.734 2520.99,842.734 2524.16,842.734 2527.32,842.734 2530.49,842.734 2533.66,842.734 2536.83,842.734 2539.99,842.734 2543.16,842.734 2546.33,842.734 2549.5,842.734 2552.66,842.734 2555.83,842.734 2559,842.734 2562.17,842.734 2565.33,842.734 2568.5,842.734 2571.67,842.734 2574.84,842.734 2578,842.734 2581.17,842.734 2584.34,842.734 2587.51,842.734 2590.67,842.734 2593.84,842.734 2597.01,842.734 2600.18,842.734 2603.34,842.734 2606.51,842.734 2609.68,842.734 2612.84,842.734 2616.01,842.734 2619.18,842.734 2622.35,842.734 2625.51,842.734 2628.68,842.734 2631.85,842.734 2635.02,842.734 2638.18,842.734 2641.35,842.734 2644.52,842.734 2647.69,842.734 2650.85,842.734 2654.02,842.734 2657.19,842.734 2660.36,842.734 2663.52,842.734 2666.69,842.734 2669.86,842.734 2673.03,842.734 2676.19,842.734 2679.36,842.734 2682.53,842.734 2685.7,842.734 2688.86,842.734 2692.03,842.734 2695.2,842.734 2698.36,842.734 2701.53,842.734 2704.7,842.734 2707.87,842.734 2711.03,842.734 2714.2,842.734 2717.37,842.734 2720.54,842.734 2723.7,842.734 2726.87,842.734 2730.04,842.734 2733.21,842.734 2736.37,842.734 2739.54,842.734 2742.71,842.734 2745.88,842.734 2749.04,842.734 2752.21,842.734 2755.38,842.734 2758.55,842.734 2761.71,842.734 2764.88,842.734 2768.05,842.734 2771.22,842.734 2774.38,842.734 2777.55,842.734 2780.72,842.734 2783.88,842.734 2787.05,842.734 2790.22,842.734 2793.39,842.734 2796.55,842.734 2799.72,842.734 2802.89,842.734 2806.06,842.734 2809.22,842.734 2812.39,842.734 2815.56,842.734 2818.73,842.734 2821.89,842.734 2825.06,842.734 2828.23,842.734 2831.4,842.734 2834.56,842.734 2837.73,842.734 2840.9,842.734 2844.07,842.734 2847.23,842.734 2850.4,842.734 2853.57,842.734 2856.74,842.734 2859.9,842.734 2863.07,842.734 2866.24,842.734 2869.4,842.734 2872.57,842.734 2875.74,842.734 2878.91,842.734 2882.07,842.734 2885.24,842.734 2888.41,842.734 2891.58,842.734 2894.74,842.734 2897.91,842.734 2901.08,842.734 2904.25,842.734 2907.41,842.734 2910.58,842.734 2913.75,842.734 2916.92,842.734 2920.08,842.734 2923.25,842.734 2926.42,842.734 2929.59,842.734 2932.75,842.734 2935.92,842.734 2939.09,842.734 2942.26,842.734 2945.42,842.734 2948.59,842.734 2951.76,842.734 2954.93,842.734 2958.09,842.734 2961.26,842.734 2964.43,842.734 2967.59,842.734 2970.76,842.734 2973.93,842.734 2977.1,842.734 2980.26,842.734 2983.43,842.734 2986.6,842.734 2989.77,842.734 2992.93,842.734 2996.1,842.734 2999.27,842.734 3002.44,842.734 3005.6,842.734 3008.77,842.734 3011.94,842.734 3015.11,842.734 3018.27,842.734 3021.44,842.734 3024.61,842.734 3027.78,842.734 3030.94,842.734 3034.11,842.734 3037.28,842.734 3040.45,842.734 3043.61,842.734 3046.78,842.734 3049.95,842.734 3053.11,842.734 3056.28,842.734 3059.45,842.734 3062.62,842.734 3065.78,842.734 3068.95,842.734 3072.12,842.734 3075.29,842.734 3078.45,842.734 3081.62,842.734 3084.79,842.734 3087.96,842.734 3091.12,842.734 3094.29,842.734 3097.46,842.734 3100.63,842.734 3103.79,842.734 3106.96,842.734 3110.13,842.734 3113.3,842.734 3116.46,842.734 3119.63,842.734 3122.8,842.734 3125.97,842.734 3129.13,842.734 3132.3,842.734 3135.47,842.734 3138.63,842.734 3141.8,842.734 3144.97,842.734 3148.14,842.734 3151.3,842.734 3154.47,842.734 3157.64,842.734 3160.81,842.734 3163.97,842.734 3167.14,842.734 3170.31,842.734 3173.48,842.734 3176.64,842.734 3179.81,842.734 3182.98,842.734 3186.15,842.734 3189.31,842.734 "/>
</svg>
