<?xml version="1.0" encoding="utf-8"?>
<svg xmlns="http://www.w3.org/2000/svg" xmlns:xlink="http://www.w3.org/1999/xlink" width="450" height="400" viewBox="0 0 1800 1600">
<defs>
  <clipPath id="clip330">
    <rect x="0" y="0" width="1800" height="1600"/>
  </clipPath>
</defs>
<path clip-path="url(#clip330)" d="M0 1600 L1800 1600 L1800 0 L0 0  Z" fill="#ffffff" fill-rule="evenodd" fill-opacity="1"/>
<defs>
  <clipPath id="clip331">
    <rect x="360" y="0" width="1261" height="1261"/>
  </clipPath>
</defs>
<path clip-path="url(#clip330)" d="M183.989 1395.82 L1752.76 1395.82 L1752.76 47.2441 L183.989 47.2441  Z" fill="#ffffff" fill-rule="evenodd" fill-opacity="1"/>
<defs>
  <clipPath id="clip332">
    <rect x="183" y="47" width="1570" height="1350"/>
  </clipPath>
</defs>
<polyline clip-path="url(#clip332)" style="stroke:#000000; stroke-linecap:round; stroke-linejoin:round; stroke-width:2; stroke-opacity:0.1; fill:none" points="314.72,1395.82 314.72,47.2441 "/>
<polyline clip-path="url(#clip332)" style="stroke:#000000; stroke-linecap:round; stroke-linejoin:round; stroke-width:2; stroke-opacity:0.1; fill:none" points="532.604,1395.82 532.604,47.2441 "/>
<polyline clip-path="url(#clip332)" style="stroke:#000000; stroke-linecap:round; stroke-linejoin:round; stroke-width:2; stroke-opacity:0.1; fill:none" points="750.488,1395.82 750.488,47.2441 "/>
<polyline clip-path="url(#clip332)" style="stroke:#000000; stroke-linecap:round; stroke-linejoin:round; stroke-width:2; stroke-opacity:0.1; fill:none" points="968.372,1395.82 968.372,47.2441 "/>
<polyline clip-path="url(#clip332)" style="stroke:#000000; stroke-linecap:round; stroke-linejoin:round; stroke-width:2; stroke-opacity:0.1; fill:none" points="1186.26,1395.82 1186.26,47.2441 "/>
<polyline clip-path="url(#clip332)" style="stroke:#000000; stroke-linecap:round; stroke-linejoin:round; stroke-width:2; stroke-opacity:0.1; fill:none" points="1404.14,1395.82 1404.14,47.2441 "/>
<polyline clip-path="url(#clip332)" style="stroke:#000000; stroke-linecap:round; stroke-linejoin:round; stroke-width:2; stroke-opacity:0.1; fill:none" points="1622.03,1395.82 1622.03,47.2441 "/>
<polyline clip-path="url(#clip330)" style="stroke:#000000; stroke-linecap:round; stroke-linejoin:round; stroke-width:4; stroke-opacity:1; fill:none" points="183.989,1395.82 1752.76,1395.82 "/>
<polyline clip-path="url(#clip330)" style="stroke:#000000; stroke-linecap:round; stroke-linejoin:round; stroke-width:4; stroke-opacity:1; fill:none" points="314.72,1395.82 314.72,1376.92 "/>
<polyline clip-path="url(#clip330)" style="stroke:#000000; stroke-linecap:round; stroke-linejoin:round; stroke-width:4; stroke-opacity:1; fill:none" points="532.604,1395.82 532.604,1376.92 "/>
<polyline clip-path="url(#clip330)" style="stroke:#000000; stroke-linecap:round; stroke-linejoin:round; stroke-width:4; stroke-opacity:1; fill:none" points="750.488,1395.82 750.488,1376.92 "/>
<polyline clip-path="url(#clip330)" style="stroke:#000000; stroke-linecap:round; stroke-linejoin:round; stroke-width:4; stroke-opacity:1; fill:none" points="968.372,1395.82 968.372,1376.92 "/>
<polyline clip-path="url(#clip330)" style="stroke:#000000; stroke-linecap:round; stroke-linejoin:round; stroke-width:4; stroke-opacity:1; fill:none" points="1186.26,1395.82 1186.26,1376.92 "/>
<polyline clip-path="url(#clip330)" style="stroke:#000000; stroke-linecap:round; stroke-linejoin:round; stroke-width:4; stroke-opacity:1; fill:none" points="1404.14,1395.82 1404.14,1376.92 "/>
<polyline clip-path="url(#clip330)" style="stroke:#000000; stroke-linecap:round; stroke-linejoin:round; stroke-width:4; stroke-opacity:1; fill:none" points="1622.03,1395.82 1622.03,1376.92 "/>
<path clip-path="url(#clip330)" d="M284.187 1436.59 L313.863 1436.59 L313.863 1440.53 L284.187 1440.53 L284.187 1436.59 Z" fill="#000000" fill-rule="nonzero" fill-opacity="1" /><path clip-path="url(#clip330)" d="M338.122 1434.79 Q341.479 1435.5 343.354 1437.77 Q345.252 1440.04 345.252 1443.37 Q345.252 1448.49 341.733 1451.29 Q338.215 1454.09 331.733 1454.09 Q329.557 1454.09 327.243 1453.65 Q324.951 1453.23 322.497 1452.38 L322.497 1447.86 Q324.442 1449 326.756 1449.58 Q329.071 1450.16 331.594 1450.16 Q335.993 1450.16 338.284 1448.42 Q340.599 1446.68 340.599 1443.37 Q340.599 1440.32 338.446 1438.61 Q336.317 1436.87 332.497 1436.87 L328.469 1436.87 L328.469 1433.03 L332.682 1433.03 Q336.131 1433.03 337.96 1431.66 Q339.789 1430.27 339.789 1427.68 Q339.789 1425.02 337.891 1423.61 Q336.016 1422.17 332.497 1422.17 Q330.576 1422.17 328.377 1422.59 Q326.178 1423 323.539 1423.88 L323.539 1419.72 Q326.201 1418.98 328.516 1418.61 Q330.854 1418.23 332.914 1418.23 Q338.238 1418.23 341.34 1420.67 Q344.442 1423.07 344.442 1427.19 Q344.442 1430.06 342.798 1432.05 Q341.155 1434.02 338.122 1434.79 Z" fill="#000000" fill-rule="nonzero" fill-opacity="1" /><path clip-path="url(#clip330)" d="M502.546 1436.59 L532.222 1436.59 L532.222 1440.53 L502.546 1440.53 L502.546 1436.59 Z" fill="#000000" fill-rule="nonzero" fill-opacity="1" /><path clip-path="url(#clip330)" d="M546.342 1449.48 L562.662 1449.48 L562.662 1453.42 L540.717 1453.42 L540.717 1449.48 Q543.379 1446.73 547.963 1442.1 Q552.569 1437.45 553.75 1436.11 Q555.995 1433.58 556.875 1431.85 Q557.777 1430.09 557.777 1428.4 Q557.777 1425.64 555.833 1423.91 Q553.912 1422.17 550.81 1422.17 Q548.611 1422.17 546.157 1422.93 Q543.726 1423.7 540.949 1425.25 L540.949 1420.53 Q543.773 1419.39 546.226 1418.81 Q548.68 1418.23 550.717 1418.23 Q556.087 1418.23 559.282 1420.92 Q562.476 1423.61 562.476 1428.1 Q562.476 1430.23 561.666 1432.15 Q560.879 1434.04 558.773 1436.64 Q558.194 1437.31 555.092 1440.53 Q551.99 1443.72 546.342 1449.48 Z" fill="#000000" fill-rule="nonzero" fill-opacity="1" /><path clip-path="url(#clip330)" d="M720.245 1436.59 L749.921 1436.59 L749.921 1440.53 L720.245 1440.53 L720.245 1436.59 Z" fill="#000000" fill-rule="nonzero" fill-opacity="1" /><path clip-path="url(#clip330)" d="M760.824 1449.48 L768.463 1449.48 L768.463 1423.12 L760.152 1424.79 L760.152 1420.53 L768.416 1418.86 L773.092 1418.86 L773.092 1449.48 L780.731 1449.48 L780.731 1453.42 L760.824 1453.42 L760.824 1449.48 Z" fill="#000000" fill-rule="nonzero" fill-opacity="1" /><path clip-path="url(#clip330)" d="M968.372 1421.94 Q964.761 1421.94 962.933 1425.5 Q961.127 1429.04 961.127 1436.17 Q961.127 1443.28 962.933 1446.85 Q964.761 1450.39 968.372 1450.39 Q972.007 1450.39 973.812 1446.85 Q975.641 1443.28 975.641 1436.17 Q975.641 1429.04 973.812 1425.5 Q972.007 1421.94 968.372 1421.94 M968.372 1418.23 Q974.183 1418.23 977.238 1422.84 Q980.317 1427.42 980.317 1436.17 Q980.317 1444.9 977.238 1449.51 Q974.183 1454.09 968.372 1454.09 Q962.562 1454.09 959.484 1449.51 Q956.428 1444.9 956.428 1436.17 Q956.428 1427.42 959.484 1422.84 Q962.562 1418.23 968.372 1418.23 Z" fill="#000000" fill-rule="nonzero" fill-opacity="1" /><path clip-path="url(#clip330)" d="M1176.64 1449.48 L1184.28 1449.48 L1184.28 1423.12 L1175.97 1424.79 L1175.97 1420.53 L1184.23 1418.86 L1188.91 1418.86 L1188.91 1449.48 L1196.55 1449.48 L1196.55 1453.42 L1176.64 1453.42 L1176.64 1449.48 Z" fill="#000000" fill-rule="nonzero" fill-opacity="1" /><path clip-path="url(#clip330)" d="M1398.79 1449.48 L1415.11 1449.48 L1415.11 1453.42 L1393.17 1453.42 L1393.17 1449.48 Q1395.83 1446.73 1400.41 1442.1 Q1405.02 1437.45 1406.2 1436.11 Q1408.45 1433.58 1409.33 1431.85 Q1410.23 1430.09 1410.23 1428.4 Q1410.23 1425.64 1408.28 1423.91 Q1406.36 1422.17 1403.26 1422.17 Q1401.06 1422.17 1398.61 1422.93 Q1396.18 1423.7 1393.4 1425.25 L1393.4 1420.53 Q1396.22 1419.39 1398.68 1418.81 Q1401.13 1418.23 1403.17 1418.23 Q1408.54 1418.23 1411.73 1420.92 Q1414.93 1423.61 1414.93 1428.1 Q1414.93 1430.23 1414.12 1432.15 Q1413.33 1434.04 1411.22 1436.64 Q1410.65 1437.31 1407.54 1440.53 Q1404.44 1443.72 1398.79 1449.48 Z" fill="#000000" fill-rule="nonzero" fill-opacity="1" /><path clip-path="url(#clip330)" d="M1626.27 1434.79 Q1629.63 1435.5 1631.5 1437.77 Q1633.4 1440.04 1633.4 1443.37 Q1633.4 1448.49 1629.88 1451.29 Q1626.37 1454.09 1619.88 1454.09 Q1617.71 1454.09 1615.39 1453.65 Q1613.1 1453.23 1610.65 1452.38 L1610.65 1447.86 Q1612.59 1449 1614.91 1449.58 Q1617.22 1450.16 1619.75 1450.16 Q1624.14 1450.16 1626.44 1448.42 Q1628.75 1446.68 1628.75 1443.37 Q1628.75 1440.32 1626.6 1438.61 Q1624.47 1436.87 1620.65 1436.87 L1616.62 1436.87 L1616.62 1433.03 L1620.83 1433.03 Q1624.28 1433.03 1626.11 1431.66 Q1627.94 1430.27 1627.94 1427.68 Q1627.94 1425.02 1626.04 1423.61 Q1624.17 1422.17 1620.65 1422.17 Q1618.73 1422.17 1616.53 1422.59 Q1614.33 1423 1611.69 1423.88 L1611.69 1419.72 Q1614.35 1418.98 1616.67 1418.61 Q1619 1418.23 1621.06 1418.23 Q1626.39 1418.23 1629.49 1420.67 Q1632.59 1423.07 1632.59 1427.19 Q1632.59 1430.06 1630.95 1432.05 Q1629.31 1434.02 1626.27 1434.79 Z" fill="#000000" fill-rule="nonzero" fill-opacity="1" /><path clip-path="url(#clip330)" d="M984.987 1496.04 L972.096 1513.38 L985.655 1531.68 L978.749 1531.68 L968.372 1517.68 L957.996 1531.68 L951.09 1531.68 L964.935 1513.03 L952.267 1496.04 L959.174 1496.04 L968.627 1508.74 L978.08 1496.04 L984.987 1496.04 Z" fill="#000000" fill-rule="nonzero" fill-opacity="1" /><polyline clip-path="url(#clip332)" style="stroke:#000000; stroke-linecap:round; stroke-linejoin:round; stroke-width:2; stroke-opacity:0.1; fill:none" points="183.989,1395.82 1752.76,1395.82 "/>
<polyline clip-path="url(#clip332)" style="stroke:#000000; stroke-linecap:round; stroke-linejoin:round; stroke-width:2; stroke-opacity:0.1; fill:none" points="183.989,974.39 1752.76,974.39 "/>
<polyline clip-path="url(#clip332)" style="stroke:#000000; stroke-linecap:round; stroke-linejoin:round; stroke-width:2; stroke-opacity:0.1; fill:none" points="183.989,552.96 1752.76,552.96 "/>
<polyline clip-path="url(#clip332)" style="stroke:#000000; stroke-linecap:round; stroke-linejoin:round; stroke-width:2; stroke-opacity:0.1; fill:none" points="183.989,131.53 1752.76,131.53 "/>
<polyline clip-path="url(#clip330)" style="stroke:#000000; stroke-linecap:round; stroke-linejoin:round; stroke-width:4; stroke-opacity:1; fill:none" points="183.989,1395.82 183.989,47.2441 "/>
<polyline clip-path="url(#clip330)" style="stroke:#000000; stroke-linecap:round; stroke-linejoin:round; stroke-width:4; stroke-opacity:1; fill:none" points="183.989,1395.82 202.887,1395.82 "/>
<polyline clip-path="url(#clip330)" style="stroke:#000000; stroke-linecap:round; stroke-linejoin:round; stroke-width:4; stroke-opacity:1; fill:none" points="183.989,974.39 202.887,974.39 "/>
<polyline clip-path="url(#clip330)" style="stroke:#000000; stroke-linecap:round; stroke-linejoin:round; stroke-width:4; stroke-opacity:1; fill:none" points="183.989,552.96 202.887,552.96 "/>
<polyline clip-path="url(#clip330)" style="stroke:#000000; stroke-linecap:round; stroke-linejoin:round; stroke-width:4; stroke-opacity:1; fill:none" points="183.989,131.53 202.887,131.53 "/>
<path clip-path="url(#clip330)" d="M145.045 1381.62 Q141.433 1381.62 139.605 1385.18 Q137.799 1388.72 137.799 1395.85 Q137.799 1402.96 139.605 1406.53 Q141.433 1410.07 145.045 1410.07 Q148.679 1410.07 150.484 1406.53 Q152.313 1402.96 152.313 1395.85 Q152.313 1388.72 150.484 1385.18 Q148.679 1381.62 145.045 1381.62 M145.045 1377.91 Q150.855 1377.91 153.91 1382.52 Q156.989 1387.1 156.989 1395.85 Q156.989 1404.58 153.91 1409.19 Q150.855 1413.77 145.045 1413.77 Q139.234 1413.77 136.156 1409.19 Q133.1 1404.58 133.1 1395.85 Q133.1 1387.1 136.156 1382.52 Q139.234 1377.91 145.045 1377.91 Z" fill="#000000" fill-rule="nonzero" fill-opacity="1" /><path clip-path="url(#clip330)" d="M137.082 987.735 L144.72 987.735 L144.72 961.369 L136.41 963.036 L136.41 958.777 L144.674 957.11 L149.35 957.11 L149.35 987.735 L156.989 987.735 L156.989 991.67 L137.082 991.67 L137.082 987.735 Z" fill="#000000" fill-rule="nonzero" fill-opacity="1" /><path clip-path="url(#clip330)" d="M140.67 566.305 L156.989 566.305 L156.989 570.24 L135.045 570.24 L135.045 566.305 Q137.707 563.55 142.29 558.921 Q146.896 554.268 148.077 552.925 Q150.322 550.402 151.202 548.666 Q152.105 546.907 152.105 545.217 Q152.105 542.462 150.16 540.726 Q148.239 538.99 145.137 538.99 Q142.938 538.99 140.484 539.754 Q138.054 540.518 135.276 542.069 L135.276 537.347 Q138.1 536.212 140.554 535.634 Q143.008 535.055 145.045 535.055 Q150.415 535.055 153.609 537.74 Q156.804 540.425 156.804 544.916 Q156.804 547.046 155.994 548.967 Q155.207 550.865 153.1 553.458 Q152.521 554.129 149.42 557.347 Q146.318 560.541 140.67 566.305 Z" fill="#000000" fill-rule="nonzero" fill-opacity="1" /><path clip-path="url(#clip330)" d="M149.859 130.176 Q153.216 130.894 155.091 133.162 Q156.989 135.431 156.989 138.764 Q156.989 143.88 153.47 146.68 Q149.952 149.481 143.47 149.481 Q141.295 149.481 138.98 149.042 Q136.688 148.625 134.234 147.768 L134.234 143.255 Q136.179 144.389 138.494 144.968 Q140.808 145.546 143.332 145.546 Q147.73 145.546 150.021 143.81 Q152.336 142.074 152.336 138.764 Q152.336 135.708 150.183 133.995 Q148.054 132.259 144.234 132.259 L140.207 132.259 L140.207 128.417 L144.42 128.417 Q147.869 128.417 149.697 127.051 Q151.526 125.662 151.526 123.069 Q151.526 120.407 149.628 118.995 Q147.753 117.56 144.234 117.56 Q142.313 117.56 140.114 117.977 Q137.915 118.394 135.276 119.273 L135.276 115.107 Q137.938 114.366 140.253 113.995 Q142.591 113.625 144.651 113.625 Q149.975 113.625 153.077 116.056 Q156.179 118.463 156.179 122.583 Q156.179 125.454 154.535 127.444 Q152.892 129.412 149.859 130.176 Z" fill="#000000" fill-rule="nonzero" fill-opacity="1" /><path clip-path="url(#clip330)" d="M91.8442 767.349 L44.3242 785.491 L44.3242 778.776 L84.3326 763.721 L44.3242 748.634 L44.3242 741.95 L91.8442 760.06 L91.8442 767.349 Z" fill="#000000" fill-rule="nonzero" fill-opacity="1" /><path clip-path="url(#clip330)" d="M42.3826 721.198 Q49.7032 725.463 56.8646 727.532 Q64.026 729.601 71.3784 729.601 Q78.7308 729.601 85.9559 727.532 Q93.1491 725.431 100.438 721.198 L100.438 726.29 Q92.9582 731.065 85.7331 733.452 Q78.508 735.807 71.3784 735.807 Q64.2806 735.807 57.0874 733.452 Q49.8942 731.096 42.3826 726.29 L42.3826 721.198 Z" fill="#000000" fill-rule="nonzero" fill-opacity="1" /><path clip-path="url(#clip330)" d="M56.1962 680.203 L73.5428 693.093 L91.8442 679.534 L91.8442 686.441 L77.8396 696.817 L91.8442 707.193 L91.8442 714.1 L73.1926 700.255 L56.1962 712.922 L56.1962 706.016 L68.8958 696.562 L56.1962 687.109 L56.1962 680.203 Z" fill="#000000" fill-rule="nonzero" fill-opacity="1" /><path clip-path="url(#clip330)" d="M42.3826 672.182 L42.3826 667.089 Q49.8942 662.315 57.0874 659.96 Q64.2806 657.573 71.3784 657.573 Q78.508 657.573 85.7331 659.96 Q92.9582 662.315 100.438 667.089 L100.438 672.182 Q93.1491 667.949 85.9559 665.88 Q78.7308 663.779 71.3784 663.779 Q64.026 663.779 56.8646 665.88 Q49.7032 667.949 42.3826 672.182 Z" fill="#000000" fill-rule="nonzero" fill-opacity="1" /><polyline clip-path="url(#clip332)" style="stroke:#000000; stroke-linecap:round; stroke-linejoin:round; stroke-width:8; stroke-opacity:1; fill:none" points="314.72,-500.615 319.077,-475.413 323.435,-450.38 327.793,-425.516 332.15,-400.82 336.508,-376.293 340.866,-351.934 345.223,-327.744 349.581,-303.723 353.939,-279.87 358.296,-256.185 362.654,-232.67 367.012,-209.322 371.369,-186.144 375.727,-163.134 380.085,-140.292 384.442,-117.619 388.8,-95.1149 393.158,-72.7791 397.516,-50.6119 401.873,-28.6133 406.231,-6.78322 410.589,14.8783 414.946,36.3712 419.304,57.6956 423.662,78.8513 428.019,99.8385 432.377,120.657 436.735,141.307 441.092,161.789 445.45,182.102 449.808,202.246 454.165,222.222 458.523,242.029 462.881,261.668 467.239,281.138 471.596,300.439 475.954,319.572 480.312,338.536 484.669,357.332 489.027,375.959 493.385,394.418 497.742,412.708 502.1,430.83 506.458,448.783 510.815,466.567 515.173,484.183 519.531,501.63 523.888,518.908 528.246,536.019 532.604,552.96 536.961,569.733 541.319,586.337 545.677,602.773 550.035,619.04 554.392,635.139 558.75,651.069 563.108,666.83 567.465,682.423 571.823,697.848 576.181,713.103 580.538,728.191 584.896,743.109 589.254,757.859 593.611,772.441 597.969,786.854 602.327,801.098 606.684,815.174 611.042,829.081 615.4,842.819 619.758,856.39 624.115,869.791 628.473,883.024 632.831,896.088 637.188,908.984 641.546,921.711 645.904,934.27 650.261,946.66 654.619,958.881 658.977,970.934 663.334,982.819 667.692,994.534 672.05,1006.08 676.407,1017.46 680.765,1028.67 685.123,1039.71 689.481,1050.58 693.838,1061.29 698.196,1071.82 702.554,1082.19 706.911,1092.39 711.269,1102.42 715.627,1112.28 719.984,1121.97 724.342,1131.5 728.7,1140.85 733.057,1150.04 737.415,1159.06 741.773,1167.91 746.13,1176.59 750.488,1185.1 754.846,1193.45 759.203,1201.62 763.561,1209.63 767.919,1217.47 772.277,1225.14 776.634,1232.64 780.992,1239.98 785.35,1247.14 789.707,1254.14 794.065,1260.96 798.423,1267.62 802.78,1274.11 807.138,1280.43 811.496,1286.59 815.853,1292.57 820.211,1298.39 824.569,1304.03 828.926,1309.51 833.284,1314.82 837.642,1319.96 842,1324.94 846.357,1329.74 850.715,1334.38 855.073,1338.84 859.43,1343.14 863.788,1347.27 868.146,1351.23 872.503,1355.03 876.861,1358.65 881.219,1362.11 885.576,1365.39 889.934,1368.51 894.292,1371.46 898.649,1374.24 903.007,1376.86 907.365,1379.3 911.722,1381.58 916.08,1383.68 920.438,1385.62 924.796,1387.39 929.153,1388.99 933.511,1390.43 937.869,1391.69 942.226,1392.79 946.584,1393.71 950.942,1394.47 955.299,1395.06 959.657,1395.48 964.015,1395.74 968.372,1395.82 972.73,1395.74 977.088,1395.48 981.445,1395.06 985.803,1394.47 990.161,1393.71 994.519,1392.79 998.876,1391.69 1003.23,1390.43 1007.59,1388.99 1011.95,1387.39 1016.31,1385.62 1020.66,1383.68 1025.02,1381.58 1029.38,1379.3 1033.74,1376.86 1038.1,1374.24 1042.45,1371.46 1046.81,1368.51 1051.17,1365.39 1055.53,1362.11 1059.88,1358.65 1064.24,1355.03 1068.6,1351.23 1072.96,1347.27 1077.31,1343.14 1081.67,1338.84 1086.03,1334.38 1090.39,1329.74 1094.75,1324.94 1099.1,1319.96 1103.46,1314.82 1107.82,1309.51 1112.18,1304.03 1116.53,1298.39 1120.89,1292.57 1125.25,1286.59 1129.61,1280.43 1133.96,1274.11 1138.32,1267.62 1142.68,1260.96 1147.04,1254.14 1151.4,1247.14 1155.75,1239.98 1160.11,1232.64 1164.47,1225.14 1168.83,1217.47 1173.18,1209.63 1177.54,1201.62 1181.9,1193.45 1186.26,1185.1 1190.61,1176.59 1194.97,1167.91 1199.33,1159.06 1203.69,1150.04 1208.05,1140.85 1212.4,1131.5 1216.76,1121.97 1221.12,1112.28 1225.48,1102.42 1229.83,1092.39 1234.19,1082.19 1238.55,1071.82 1242.91,1061.29 1247.26,1050.58 1251.62,1039.71 1255.98,1028.67 1260.34,1017.46 1264.7,1006.08 1269.05,994.534 1273.41,982.819 1277.77,970.934 1282.13,958.881 1286.48,946.66 1290.84,934.27 1295.2,921.711 1299.56,908.984 1303.91,896.088 1308.27,883.024 1312.63,869.791 1316.99,856.39 1321.34,842.819 1325.7,829.081 1330.06,815.174 1334.42,801.098 1338.78,786.854 1343.13,772.441 1347.49,757.859 1351.85,743.109 1356.21,728.191 1360.56,713.103 1364.92,697.848 1369.28,682.423 1373.64,666.83 1377.99,651.069 1382.35,635.139 1386.71,619.04 1391.07,602.773 1395.43,586.337 1399.78,569.733 1404.14,552.96 1408.5,536.019 1412.86,518.908 1417.21,501.63 1421.57,484.183 1425.93,466.567 1430.29,448.783 1434.64,430.83 1439,412.708 1443.36,394.418 1447.72,375.959 1452.08,357.332 1456.43,338.536 1460.79,319.572 1465.15,300.439 1469.51,281.138 1473.86,261.668 1478.22,242.029 1482.58,222.222 1486.94,202.246 1491.29,182.102 1495.65,161.789 1500.01,141.307 1504.37,120.657 1508.73,99.8385 1513.08,78.8513 1517.44,57.6956 1521.8,36.3712 1526.16,14.8783 1530.51,-6.78322 1534.87,-28.6133 1539.23,-50.6119 1543.59,-72.7791 1547.94,-95.1149 1552.3,-117.619 1556.66,-140.292 1561.02,-163.134 1565.38,-186.144 1569.73,-209.322 1574.09,-232.67 1578.45,-256.185 1582.81,-279.87 1587.16,-303.723 1591.52,-327.744 1595.88,-351.934 1600.24,-376.293 1604.59,-400.82 1608.95,-425.516 1613.31,-450.38 1617.67,-475.413 1622.03,-500.615 "/>
<polyline clip-path="url(#clip332)" style="stroke:#000000; stroke-linecap:round; stroke-linejoin:round; stroke-width:4; stroke-opacity:1; fill:none" stroke-dasharray="16, 10" points="-1384.78,1246.82 3321.52,1246.82 "/>
<polyline clip-path="url(#clip332)" style="stroke:#000000; stroke-linecap:round; stroke-linejoin:round; stroke-width:8; stroke-opacity:1; fill:none" points="785.154,1246.82 1151.59,1246.82 "/>
<polyline clip-path="url(#clip332)" style="stroke:#009af9; stroke-linecap:round; stroke-linejoin:round; stroke-width:8; stroke-opacity:1; fill:none" points="205.777,1246.79 210.135,1246.79 214.493,1246.79 218.85,1246.78 223.208,1246.78 227.566,1246.77 231.923,1246.77 236.281,1246.76 240.639,1246.76 244.997,1246.75 249.354,1246.74 253.712,1246.74 258.07,1246.73 262.427,1246.72 266.785,1246.71 271.143,1246.7 275.5,1246.69 279.858,1246.67 284.216,1246.66 288.573,1246.64 292.931,1246.63 297.289,1246.61 301.646,1246.59 306.004,1246.57 310.362,1246.55 314.72,1246.52 319.077,1246.5 323.435,1246.47 327.793,1246.44 332.15,1246.41 336.508,1246.37 340.866,1246.33 345.223,1246.29 349.581,1246.25 353.939,1246.2 358.296,1246.15 362.654,1246.09 367.012,1246.03 371.369,1245.97 375.727,1245.9 380.085,1245.83 384.442,1245.75 388.8,1245.66 393.158,1245.57 397.516,1245.48 401.873,1245.37 406.231,1245.26 410.589,1245.15 414.946,1245.02 419.304,1244.89 423.662,1244.74 428.019,1244.59 432.377,1244.43 436.735,1244.26 441.092,1244.08 445.45,1243.88 449.808,1243.68 454.165,1243.46 458.523,1243.23 462.881,1242.98 467.239,1242.72 471.596,1242.45 475.954,1242.16 480.312,1241.85 484.669,1241.53 489.027,1241.19 493.385,1240.83 497.742,1240.45 502.1,1240.05 506.458,1239.63 510.815,1239.19 515.173,1238.72 519.531,1238.23 523.888,1237.72 528.246,1237.18 532.604,1236.62 536.961,1236.03 541.319,1235.41 545.677,1234.76 550.035,1234.09 554.392,1233.38 558.75,1232.64 563.108,1231.87 567.465,1231.07 571.823,1230.23 576.181,1229.36 580.538,1228.45 584.896,1227.51 589.254,1226.53 593.611,1225.51 597.969,1224.46 602.327,1223.36 606.684,1222.23 611.042,1221.05 615.4,1219.84 619.758,1218.58 624.115,1217.28 628.473,1215.94 632.831,1214.56 637.188,1213.13 641.546,1211.66 645.904,1210.15 650.261,1208.59 654.619,1206.99 658.977,1205.34 663.334,1203.66 667.692,1201.93 672.05,1200.15 676.407,1198.34 680.765,1196.48 685.123,1194.58 689.481,1192.63 693.838,1190.65 698.196,1188.63 702.554,1186.57 706.911,1184.47 711.269,1182.34 715.627,1180.17 719.984,1177.97 724.342,1175.73 728.7,1173.46 733.057,1171.17 737.415,1168.84 741.773,1166.49 746.13,1164.12 750.488,1161.72 754.846,1159.3 759.203,1156.87 763.561,1154.42 767.919,1151.96 772.277,1149.48 776.634,1147 780.992,1144.51 785.35,1142.02 789.707,1139.53 794.065,1137.05 798.423,1134.57 802.78,1132.1 807.138,1129.64 811.496,1127.19 815.853,1124.77 820.211,1122.36 824.569,1119.98 828.926,1117.63 833.284,1115.3 837.642,1113.01 842,1110.76 846.357,1108.55 850.715,1106.38 855.073,1104.26 859.43,1102.19 863.788,1100.17 868.146,1098.21 872.503,1096.31 876.861,1094.46 881.219,1092.69 885.576,1090.98 889.934,1089.34 894.292,1087.77 898.649,1086.28 903.007,1084.87 907.365,1083.53 911.722,1082.28 916.08,1081.11 920.438,1080.03 924.796,1079.04 929.153,1078.13 933.511,1077.32 937.869,1076.6 942.226,1075.97 946.584,1075.44 950.942,1075 955.299,1074.66 959.657,1074.42 964.015,1074.27 968.372,1074.22 972.73,1074.27 977.088,1074.42 981.445,1074.66 985.803,1075 990.161,1075.44 994.519,1075.97 998.876,1076.6 1003.23,1077.32 1007.59,1078.13 1011.95,1079.04 1016.31,1080.03 1020.66,1081.11 1025.02,1082.28 1029.38,1083.53 1033.74,1084.87 1038.1,1086.28 1042.45,1087.77 1046.81,1089.34 1051.17,1090.98 1055.53,1092.69 1059.88,1094.46 1064.24,1096.31 1068.6,1098.21 1072.96,1100.17 1077.31,1102.19 1081.67,1104.26 1086.03,1106.38 1090.39,1108.55 1094.75,1110.76 1099.1,1113.01 1103.46,1115.3 1107.82,1117.63 1112.18,1119.98 1116.53,1122.36 1120.89,1124.77 1125.25,1127.19 1129.61,1129.64 1133.96,1132.1 1138.32,1134.57 1142.68,1137.05 1147.04,1139.53 1151.4,1142.02 1155.75,1144.51 1160.11,1147 1164.47,1149.48 1168.83,1151.96 1173.18,1154.42 1177.54,1156.87 1181.9,1159.3 1186.26,1161.72 1190.61,1164.12 1194.97,1166.49 1199.33,1168.84 1203.69,1171.17 1208.05,1173.46 1212.4,1175.73 1216.76,1177.97 1221.12,1180.17 1225.48,1182.34 1229.83,1184.47 1234.19,1186.57 1238.55,1188.63 1242.91,1190.65 1247.26,1192.63 1251.62,1194.58 1255.98,1196.48 1260.34,1198.34 1264.7,1200.15 1269.05,1201.93 1273.41,1203.66 1277.77,1205.34 1282.13,1206.99 1286.48,1208.59 1290.84,1210.15 1295.2,1211.66 1299.56,1213.13 1303.91,1214.56 1308.27,1215.94 1312.63,1217.28 1316.99,1218.58 1321.34,1219.84 1325.7,1221.05 1330.06,1222.23 1334.42,1223.36 1338.78,1224.46 1343.13,1225.51 1347.49,1226.53 1351.85,1227.51 1356.21,1228.45 1360.56,1229.36 1364.92,1230.23 1369.28,1231.07 1373.64,1231.87 1377.99,1232.64 1382.35,1233.38 1386.71,1234.09 1391.07,1234.76 1395.43,1235.41 1399.78,1236.03 1404.14,1236.62 1408.5,1237.18 1412.86,1237.72 1417.21,1238.23 1421.57,1238.72 1425.93,1239.19 1430.29,1239.63 1434.64,1240.05 1439,1240.45 1443.36,1240.83 1447.72,1241.19 1452.08,1241.53 1456.43,1241.85 1460.79,1242.16 1465.15,1242.45 1469.51,1242.72 1473.86,1242.98 1478.22,1243.23 1482.58,1243.46 1486.94,1243.68 1491.29,1243.88 1495.65,1244.08 1500.01,1244.26 1504.37,1244.43 1508.73,1244.59 1513.08,1244.74 1517.44,1244.89 1521.8,1245.02 1526.16,1245.15 1530.51,1245.26 1534.87,1245.37 1539.23,1245.48 1543.59,1245.57 1547.94,1245.66 1552.3,1245.75 1556.66,1245.83 1561.02,1245.9 1565.38,1245.97 1569.73,1246.03 1574.09,1246.09 1578.45,1246.15 1582.81,1246.2 1587.16,1246.25 1591.52,1246.29 1595.88,1246.33 1600.24,1246.37 1604.59,1246.41 1608.95,1246.44 1613.31,1246.47 1617.67,1246.5 1622.03,1246.52 1626.38,1246.55 1630.74,1246.57 1635.1,1246.59 1639.46,1246.61 1643.81,1246.63 1648.17,1246.64 1652.53,1246.66 1656.89,1246.67 1661.24,1246.69 1665.6,1246.7 1669.96,1246.71 1674.32,1246.72 1678.68,1246.73 1683.03,1246.74 1687.39,1246.74 1691.75,1246.75 1696.11,1246.76 1700.46,1246.76 1704.82,1246.77 1709.18,1246.77 1713.54,1246.78 1717.89,1246.78 1722.25,1246.79 1726.61,1246.79 1730.97,1246.79 "/>
<polyline clip-path="url(#clip332)" style="stroke:#000000; stroke-linecap:round; stroke-linejoin:round; stroke-width:4; stroke-opacity:1; fill:none" stroke-dasharray="16, 10" points="-1384.78,948.826 3321.52,948.826 "/>
<polyline clip-path="url(#clip332)" style="stroke:#000000; stroke-linecap:round; stroke-linejoin:round; stroke-width:8; stroke-opacity:1; fill:none" points="651.029,948.826 1285.72,948.826 "/>
<polyline clip-path="url(#clip332)" style="stroke:#e26f46; stroke-linecap:round; stroke-linejoin:round; stroke-width:8; stroke-opacity:1; fill:none" points="205.777,949.002 210.135,949.019 214.493,949.038 218.85,949.058 223.208,949.08 227.566,949.104 231.923,949.13 236.281,949.159 240.639,949.19 244.997,949.223 249.354,949.26 253.712,949.299 258.07,949.342 262.427,949.388 266.785,949.438 271.143,949.492 275.5,949.55 279.858,949.613 284.216,949.681 288.573,949.754 292.931,949.833 297.289,949.918 301.646,950.009 306.004,950.107 310.362,950.213 314.72,950.326 319.077,950.447 323.435,950.578 327.793,950.717 332.15,950.867 336.508,951.027 340.866,951.198 345.223,951.38 349.581,951.575 353.939,951.783 358.296,952.005 362.654,952.242 367.012,952.494 371.369,952.762 375.727,953.047 380.085,953.349 384.442,953.671 388.8,954.012 393.158,954.373 397.516,954.757 401.873,955.162 406.231,955.591 410.589,956.045 414.946,956.524 419.304,957.03 423.662,957.564 428.019,958.127 432.377,958.719 436.735,959.343 441.092,959.999 445.45,960.688 449.808,961.412 454.165,962.172 458.523,962.968 462.881,963.802 467.239,964.675 471.596,965.589 475.954,966.544 480.312,967.541 484.669,968.581 489.027,969.666 493.385,970.796 497.742,971.973 502.1,973.196 506.458,974.468 510.815,975.788 515.173,977.157 519.531,978.577 523.888,980.047 528.246,981.568 532.604,983.14 536.961,984.763 541.319,986.439 545.677,988.166 550.035,989.945 554.392,991.775 558.75,993.657 563.108,995.589 567.465,997.571 571.823,999.603 576.181,1001.68 580.538,1003.81 584.896,1005.98 589.254,1008.2 593.611,1010.46 597.969,1012.76 602.327,1015.11 606.684,1017.48 611.042,1019.9 615.4,1022.34 619.758,1024.82 624.115,1027.32 628.473,1029.85 632.831,1032.39 637.188,1034.95 641.546,1037.53 645.904,1040.11 650.261,1042.7 654.619,1045.29 658.977,1047.88 663.334,1050.46 667.692,1053.02 672.05,1055.57 676.407,1058.1 680.765,1060.59 685.123,1063.05 689.481,1065.47 693.838,1067.85 698.196,1070.18 702.554,1072.45 706.911,1074.65 711.269,1076.79 715.627,1078.86 719.984,1080.84 724.342,1082.74 728.7,1084.54 733.057,1086.24 737.415,1087.84 741.773,1089.33 746.13,1090.7 750.488,1091.95 754.846,1093.07 759.203,1094.06 763.561,1094.91 767.919,1095.61 772.277,1096.16 776.634,1096.56 780.992,1096.8 785.35,1096.87 789.707,1096.78 794.065,1096.52 798.423,1096.08 802.78,1095.46 807.138,1094.67 811.496,1093.68 815.853,1092.52 820.211,1091.16 824.569,1089.62 828.926,1087.89 833.284,1085.96 837.642,1083.85 842,1081.54 846.357,1079.05 850.715,1076.37 855.073,1073.5 859.43,1070.45 863.788,1067.21 868.146,1063.8 872.503,1060.21 876.861,1056.44 881.219,1052.52 885.576,1048.42 889.934,1044.17 894.292,1039.77 898.649,1035.23 903.007,1030.54 907.365,1025.72 911.722,1020.77 916.08,1015.71 920.438,1010.54 924.796,1005.26 929.153,999.892 933.511,994.437 937.869,988.905 942.226,983.306 946.584,977.649 950.942,971.943 955.299,966.198 959.657,960.424 964.015,954.63 968.372,948.826 972.73,943.022 977.088,937.228 981.445,931.454 985.803,925.709 990.161,920.003 994.519,914.346 998.876,908.747 1003.23,903.215 1007.59,897.76 1011.95,892.39 1016.31,887.114 1020.66,881.94 1025.02,876.877 1029.38,871.932 1033.74,867.113 1038.1,862.426 1042.45,857.879 1046.81,853.478 1051.17,849.228 1055.53,845.137 1059.88,841.207 1064.24,837.446 1068.6,833.855 1072.96,830.441 1077.31,827.206 1081.67,824.152 1086.03,821.283 1090.39,818.601 1094.75,816.107 1099.1,813.803 1103.46,811.689 1107.82,809.765 1112.18,808.032 1116.53,806.489 1120.89,805.134 1125.25,803.967 1129.61,802.986 1133.96,802.188 1138.32,801.571 1142.68,801.133 1147.04,800.869 1151.4,800.777 1155.75,800.853 1160.11,801.092 1164.47,801.491 1168.83,802.044 1173.18,802.746 1177.54,803.593 1181.9,804.58 1186.26,805.701 1190.61,806.949 1194.97,808.321 1199.33,809.81 1203.69,811.409 1208.05,813.113 1212.4,814.917 1216.76,816.813 1221.12,818.796 1225.48,820.86 1229.83,822.998 1234.19,825.205 1238.55,827.474 1242.91,829.801 1247.26,832.178 1251.62,834.6 1255.98,837.061 1260.34,839.557 1264.7,842.08 1269.05,844.627 1273.41,847.193 1277.77,849.771 1282.13,852.358 1286.48,854.948 1290.84,857.538 1295.2,860.122 1299.56,862.698 1303.91,865.26 1308.27,867.806 1312.63,870.331 1316.99,872.833 1321.34,875.308 1325.7,877.754 1330.06,880.168 1334.42,882.546 1338.78,884.888 1343.13,887.19 1347.49,889.451 1351.85,891.669 1356.21,893.842 1360.56,895.969 1364.92,898.049 1369.28,900.08 1373.64,902.063 1377.99,903.995 1382.35,905.876 1386.71,907.707 1391.07,909.486 1395.43,911.213 1399.78,912.888 1404.14,914.512 1408.5,916.084 1412.86,917.605 1417.21,919.075 1421.57,920.495 1425.93,921.864 1430.29,923.184 1434.64,924.456 1439,925.679 1443.36,926.855 1447.72,927.986 1452.08,929.07 1456.43,930.111 1460.79,931.108 1465.15,932.063 1469.51,932.976 1473.86,933.85 1478.22,934.684 1482.58,935.48 1486.94,936.24 1491.29,936.964 1495.65,937.653 1500.01,938.309 1504.37,938.933 1508.73,939.525 1513.08,940.088 1517.44,940.621 1521.8,941.127 1526.16,941.607 1530.51,942.06 1534.87,942.49 1539.23,942.895 1543.59,943.278 1547.94,943.64 1552.3,943.981 1556.66,944.302 1561.02,944.605 1565.38,944.89 1569.73,945.158 1574.09,945.41 1578.45,945.646 1582.81,945.868 1587.16,946.076 1591.52,946.272 1595.88,946.454 1600.24,946.625 1604.59,946.785 1608.95,946.935 1613.31,947.074 1617.67,947.204 1622.03,947.326 1626.38,947.439 1630.74,947.545 1635.1,947.643 1639.46,947.734 1643.81,947.819 1648.17,947.898 1652.53,947.971 1656.89,948.039 1661.24,948.102 1665.6,948.16 1669.96,948.214 1674.32,948.264 1678.68,948.31 1683.03,948.353 1687.39,948.392 1691.75,948.429 1696.11,948.462 1700.46,948.493 1704.82,948.522 1709.18,948.548 1713.54,948.572 1717.89,948.594 1722.25,948.614 1726.61,948.633 1730.97,948.65 "/>
<polyline clip-path="url(#clip332)" style="stroke:#000000; stroke-linecap:round; stroke-linejoin:round; stroke-width:4; stroke-opacity:1; fill:none" stroke-dasharray="16, 10" points="-1384.78,650.83 3321.52,650.83 "/>
<polyline clip-path="url(#clip332)" style="stroke:#000000; stroke-linecap:round; stroke-linejoin:round; stroke-width:8; stroke-opacity:1; fill:none" points="558.684,650.83 1378.06,650.83 "/>
<polyline clip-path="url(#clip332)" style="stroke:#3da44d; stroke-linecap:round; stroke-linejoin:round; stroke-width:8; stroke-opacity:1; fill:none" points="205.777,650.119 210.135,650.055 214.493,649.985 218.85,649.91 223.208,649.828 227.566,649.74 231.923,649.644 236.281,649.542 240.639,649.431 244.997,649.312 249.354,649.184 253.712,649.046 258.07,648.897 262.427,648.738 266.785,648.567 271.143,648.384 275.5,648.187 279.858,647.977 284.216,647.752 288.573,647.511 292.931,647.254 297.289,646.98 301.646,646.687 306.004,646.375 310.362,646.043 314.72,645.689 319.077,645.312 323.435,644.912 327.793,644.488 332.15,644.037 336.508,643.559 340.866,643.053 345.223,642.518 349.581,641.951 353.939,641.353 358.296,640.72 362.654,640.053 367.012,639.35 371.369,638.609 375.727,637.83 380.085,637.01 384.442,636.149 388.8,635.245 393.158,634.297 397.516,633.303 401.873,632.263 406.231,631.175 410.589,630.038 414.946,628.85 419.304,627.612 423.662,626.321 428.019,624.977 432.377,623.578 436.735,622.125 441.092,620.617 445.45,619.052 449.808,617.431 454.165,615.753 458.523,614.018 462.881,612.225 467.239,610.376 471.596,608.47 475.954,606.507 480.312,604.489 484.669,602.416 489.027,600.289 493.385,598.11 497.742,595.879 502.1,593.598 506.458,591.269 510.815,588.895 515.173,586.478 519.531,584.02 523.888,581.524 528.246,578.993 532.604,576.431 536.961,573.842 541.319,571.228 545.677,568.596 550.035,565.948 554.392,563.29 558.75,560.627 563.108,557.964 567.465,555.307 571.823,552.661 576.181,550.032 580.538,547.428 584.896,544.854 589.254,542.317 593.611,539.824 597.969,537.382 602.327,535 606.684,532.683 611.042,530.44 615.4,528.278 619.758,526.206 624.115,524.231 628.473,522.361 632.831,520.604 637.188,518.969 641.546,517.463 645.904,516.094 650.261,514.87 654.619,513.799 658.977,512.888 663.334,512.144 667.692,511.576 672.05,511.189 676.407,510.99 680.765,510.986 685.123,511.183 689.481,511.586 693.838,512.2 698.196,513.03 702.554,514.08 706.911,515.354 711.269,516.855 715.627,518.586 719.984,520.549 724.342,522.744 728.7,525.173 733.057,527.836 737.415,530.732 741.773,533.86 746.13,537.217 750.488,540.801 754.846,544.608 759.203,548.634 763.561,552.873 767.919,557.321 772.277,561.969 776.634,566.811 780.992,571.838 785.35,577.043 789.707,582.414 794.065,587.941 798.423,593.615 802.78,599.422 807.138,605.351 811.496,611.389 815.853,617.522 820.211,623.735 824.569,630.016 828.926,636.348 833.284,642.716 837.642,649.105 842,655.498 846.357,661.879 850.715,668.231 855.073,674.539 859.43,680.784 863.788,686.951 868.146,693.022 872.503,698.981 876.861,704.811 881.219,710.497 885.576,716.021 889.934,721.368 894.292,726.523 898.649,731.472 903.007,736.198 907.365,740.69 911.722,744.933 916.08,748.915 920.438,752.624 924.796,756.049 929.153,759.18 933.511,762.008 937.869,764.523 942.226,766.719 946.584,768.588 950.942,770.125 955.299,771.326 959.657,772.186 964.015,772.703 968.372,772.875 972.73,772.703 977.088,772.186 981.445,771.326 985.803,770.125 990.161,768.588 994.519,766.719 998.876,764.523 1003.23,762.008 1007.59,759.18 1011.95,756.049 1016.31,752.624 1020.66,748.915 1025.02,744.933 1029.38,740.69 1033.74,736.198 1038.1,731.472 1042.45,726.523 1046.81,721.368 1051.17,716.021 1055.53,710.497 1059.88,704.811 1064.24,698.981 1068.6,693.022 1072.96,686.951 1077.31,680.784 1081.67,674.539 1086.03,668.231 1090.39,661.879 1094.75,655.498 1099.1,649.105 1103.46,642.716 1107.82,636.348 1112.18,630.016 1116.53,623.735 1120.89,617.522 1125.25,611.389 1129.61,605.351 1133.96,599.422 1138.32,593.615 1142.68,587.941 1147.04,582.414 1151.4,577.043 1155.75,571.838 1160.11,566.811 1164.47,561.969 1168.83,557.321 1173.18,552.873 1177.54,548.634 1181.9,544.608 1186.26,540.801 1190.61,537.217 1194.97,533.86 1199.33,530.732 1203.69,527.836 1208.05,525.173 1212.4,522.744 1216.76,520.549 1221.12,518.586 1225.48,516.855 1229.83,515.354 1234.19,514.08 1238.55,513.03 1242.91,512.2 1247.26,511.586 1251.62,511.183 1255.98,510.986 1260.34,510.99 1264.7,511.189 1269.05,511.576 1273.41,512.144 1277.77,512.888 1282.13,513.799 1286.48,514.87 1290.84,516.094 1295.2,517.463 1299.56,518.969 1303.91,520.604 1308.27,522.361 1312.63,524.231 1316.99,526.206 1321.34,528.278 1325.7,530.44 1330.06,532.683 1334.42,535 1338.78,537.382 1343.13,539.824 1347.49,542.317 1351.85,544.854 1356.21,547.428 1360.56,550.032 1364.92,552.661 1369.28,555.307 1373.64,557.964 1377.99,560.627 1382.35,563.29 1386.71,565.948 1391.07,568.596 1395.43,571.228 1399.78,573.842 1404.14,576.431 1408.5,578.993 1412.86,581.524 1417.21,584.02 1421.57,586.478 1425.93,588.895 1430.29,591.269 1434.64,593.598 1439,595.879 1443.36,598.11 1447.72,600.289 1452.08,602.416 1456.43,604.489 1460.79,606.507 1465.15,608.47 1469.51,610.376 1473.86,612.225 1478.22,614.018 1482.58,615.753 1486.94,617.431 1491.29,619.052 1495.65,620.617 1500.01,622.125 1504.37,623.578 1508.73,624.977 1513.08,626.321 1517.44,627.612 1521.8,628.85 1526.16,630.038 1530.51,631.175 1534.87,632.263 1539.23,633.303 1543.59,634.297 1547.94,635.245 1552.3,636.149 1556.66,637.01 1561.02,637.83 1565.38,638.609 1569.73,639.35 1574.09,640.053 1578.45,640.72 1582.81,641.353 1587.16,641.951 1591.52,642.518 1595.88,643.053 1600.24,643.559 1604.59,644.037 1608.95,644.488 1613.31,644.912 1617.67,645.312 1622.03,645.689 1626.38,646.043 1630.74,646.375 1635.1,646.687 1639.46,646.98 1643.81,647.254 1648.17,647.511 1652.53,647.752 1656.89,647.977 1661.24,648.187 1665.6,648.384 1669.96,648.567 1674.32,648.738 1678.68,648.897 1683.03,649.046 1687.39,649.184 1691.75,649.312 1696.11,649.431 1700.46,649.542 1704.82,649.644 1709.18,649.74 1713.54,649.828 1717.89,649.91 1722.25,649.985 1726.61,650.055 1730.97,650.119 "/>
</svg>
