<?xml version="1.0" encoding="utf-8"?>
<svg xmlns="http://www.w3.org/2000/svg" xmlns:xlink="http://www.w3.org/1999/xlink" width="450" height="400" viewBox="0 0 1800 1600">
<defs>
  <clipPath id="clip300">
    <rect x="0" y="0" width="1800" height="1600"/>
  </clipPath>
</defs>
<path clip-path="url(#clip300)" d="M0 1600 L1800 1600 L1800 0 L0 0  Z" fill="#ffffff" fill-rule="evenodd" fill-opacity="1"/>
<defs>
  <clipPath id="clip301">
    <rect x="360" y="0" width="1261" height="1261"/>
  </clipPath>
</defs>
<path clip-path="url(#clip300)" d="M183.989 1395.82 L1752.76 1395.82 L1752.76 47.2441 L183.989 47.2441  Z" fill="#ffffff" fill-rule="evenodd" fill-opacity="1"/>
<defs>
  <clipPath id="clip302">
    <rect x="183" y="47" width="1570" height="1350"/>
  </clipPath>
</defs>
<polyline clip-path="url(#clip302)" style="stroke:#000000; stroke-linecap:round; stroke-linejoin:round; stroke-width:2; stroke-opacity:0.1; fill:none" points="314.72,1395.82 314.72,47.2441 "/>
<polyline clip-path="url(#clip302)" style="stroke:#000000; stroke-linecap:round; stroke-linejoin:round; stroke-width:2; stroke-opacity:0.1; fill:none" points="532.604,1395.82 532.604,47.2441 "/>
<polyline clip-path="url(#clip302)" style="stroke:#000000; stroke-linecap:round; stroke-linejoin:round; stroke-width:2; stroke-opacity:0.1; fill:none" points="750.488,1395.82 750.488,47.2441 "/>
<polyline clip-path="url(#clip302)" style="stroke:#000000; stroke-linecap:round; stroke-linejoin:round; stroke-width:2; stroke-opacity:0.1; fill:none" points="968.372,1395.82 968.372,47.2441 "/>
<polyline clip-path="url(#clip302)" style="stroke:#000000; stroke-linecap:round; stroke-linejoin:round; stroke-width:2; stroke-opacity:0.1; fill:none" points="1186.26,1395.82 1186.26,47.2441 "/>
<polyline clip-path="url(#clip302)" style="stroke:#000000; stroke-linecap:round; stroke-linejoin:round; stroke-width:2; stroke-opacity:0.1; fill:none" points="1404.14,1395.82 1404.14,47.2441 "/>
<polyline clip-path="url(#clip302)" style="stroke:#000000; stroke-linecap:round; stroke-linejoin:round; stroke-width:2; stroke-opacity:0.1; fill:none" points="1622.03,1395.82 1622.03,47.2441 "/>
<polyline clip-path="url(#clip300)" style="stroke:#000000; stroke-linecap:round; stroke-linejoin:round; stroke-width:4; stroke-opacity:1; fill:none" points="183.989,1395.82 1752.76,1395.82 "/>
<polyline clip-path="url(#clip300)" style="stroke:#000000; stroke-linecap:round; stroke-linejoin:round; stroke-width:4; stroke-opacity:1; fill:none" points="314.72,1395.82 314.72,1376.92 "/>
<polyline clip-path="url(#clip300)" style="stroke:#000000; stroke-linecap:round; stroke-linejoin:round; stroke-width:4; stroke-opacity:1; fill:none" points="532.604,1395.82 532.604,1376.92 "/>
<polyline clip-path="url(#clip300)" style="stroke:#000000; stroke-linecap:round; stroke-linejoin:round; stroke-width:4; stroke-opacity:1; fill:none" points="750.488,1395.82 750.488,1376.92 "/>
<polyline clip-path="url(#clip300)" style="stroke:#000000; stroke-linecap:round; stroke-linejoin:round; stroke-width:4; stroke-opacity:1; fill:none" points="968.372,1395.82 968.372,1376.92 "/>
<polyline clip-path="url(#clip300)" style="stroke:#000000; stroke-linecap:round; stroke-linejoin:round; stroke-width:4; stroke-opacity:1; fill:none" points="1186.26,1395.82 1186.26,1376.92 "/>
<polyline clip-path="url(#clip300)" style="stroke:#000000; stroke-linecap:round; stroke-linejoin:round; stroke-width:4; stroke-opacity:1; fill:none" points="1404.14,1395.82 1404.14,1376.92 "/>
<polyline clip-path="url(#clip300)" style="stroke:#000000; stroke-linecap:round; stroke-linejoin:round; stroke-width:4; stroke-opacity:1; fill:none" points="1622.03,1395.82 1622.03,1376.92 "/>
<path clip-path="url(#clip300)" d="M284.187 1436.59 L313.863 1436.59 L313.863 1440.53 L284.187 1440.53 L284.187 1436.59 Z" fill="#000000" fill-rule="nonzero" fill-opacity="1" /><path clip-path="url(#clip300)" d="M338.122 1434.79 Q341.479 1435.5 343.354 1437.77 Q345.252 1440.04 345.252 1443.37 Q345.252 1448.49 341.733 1451.29 Q338.215 1454.09 331.733 1454.09 Q329.557 1454.09 327.243 1453.65 Q324.951 1453.23 322.497 1452.38 L322.497 1447.86 Q324.442 1449 326.756 1449.58 Q329.071 1450.16 331.594 1450.16 Q335.993 1450.16 338.284 1448.42 Q340.599 1446.68 340.599 1443.37 Q340.599 1440.32 338.446 1438.61 Q336.317 1436.87 332.497 1436.87 L328.469 1436.87 L328.469 1433.03 L332.682 1433.03 Q336.131 1433.03 337.96 1431.66 Q339.789 1430.27 339.789 1427.68 Q339.789 1425.02 337.891 1423.61 Q336.016 1422.17 332.497 1422.17 Q330.576 1422.17 328.377 1422.59 Q326.178 1423 323.539 1423.88 L323.539 1419.72 Q326.201 1418.98 328.516 1418.61 Q330.854 1418.23 332.914 1418.23 Q338.238 1418.23 341.34 1420.67 Q344.442 1423.07 344.442 1427.19 Q344.442 1430.06 342.798 1432.05 Q341.155 1434.02 338.122 1434.79 Z" fill="#000000" fill-rule="nonzero" fill-opacity="1" /><path clip-path="url(#clip300)" d="M502.546 1436.59 L532.222 1436.59 L532.222 1440.53 L502.546 1440.53 L502.546 1436.59 Z" fill="#000000" fill-rule="nonzero" fill-opacity="1" /><path clip-path="url(#clip300)" d="M546.342 1449.48 L562.662 1449.48 L562.662 1453.42 L540.717 1453.42 L540.717 1449.48 Q543.379 1446.73 547.963 1442.1 Q552.569 1437.45 553.75 1436.11 Q555.995 1433.58 556.875 1431.85 Q557.777 1430.09 557.777 1428.4 Q557.777 1425.64 555.833 1423.91 Q553.912 1422.17 550.81 1422.17 Q548.611 1422.17 546.157 1422.93 Q543.726 1423.7 540.949 1425.25 L540.949 1420.53 Q543.773 1419.39 546.226 1418.81 Q548.68 1418.23 550.717 1418.23 Q556.087 1418.23 559.282 1420.92 Q562.476 1423.61 562.476 1428.1 Q562.476 1430.23 561.666 1432.15 Q560.879 1434.04 558.773 1436.64 Q558.194 1437.31 555.092 1440.53 Q551.99 1443.72 546.342 1449.48 Z" fill="#000000" fill-rule="nonzero" fill-opacity="1" /><path clip-path="url(#clip300)" d="M720.245 1436.59 L749.921 1436.59 L749.921 1440.53 L720.245 1440.53 L720.245 1436.59 Z" fill="#000000" fill-rule="nonzero" fill-opacity="1" /><path clip-path="url(#clip300)" d="M760.824 1449.48 L768.463 1449.48 L768.463 1423.12 L760.152 1424.79 L760.152 1420.53 L768.416 1418.86 L773.092 1418.86 L773.092 1449.48 L780.731 1449.48 L780.731 1453.42 L760.824 1453.42 L760.824 1449.48 Z" fill="#000000" fill-rule="nonzero" fill-opacity="1" /><path clip-path="url(#clip300)" d="M968.372 1421.94 Q964.761 1421.94 962.933 1425.5 Q961.127 1429.04 961.127 1436.17 Q961.127 1443.28 962.933 1446.85 Q964.761 1450.39 968.372 1450.39 Q972.007 1450.39 973.812 1446.85 Q975.641 1443.28 975.641 1436.17 Q975.641 1429.04 973.812 1425.5 Q972.007 1421.94 968.372 1421.94 M968.372 1418.23 Q974.183 1418.23 977.238 1422.84 Q980.317 1427.42 980.317 1436.17 Q980.317 1444.9 977.238 1449.51 Q974.183 1454.09 968.372 1454.09 Q962.562 1454.09 959.484 1449.51 Q956.428 1444.9 956.428 1436.17 Q956.428 1427.42 959.484 1422.84 Q962.562 1418.23 968.372 1418.23 Z" fill="#000000" fill-rule="nonzero" fill-opacity="1" /><path clip-path="url(#clip300)" d="M1176.64 1449.48 L1184.28 1449.48 L1184.28 1423.12 L1175.97 1424.79 L1175.97 1420.53 L1184.23 1418.86 L1188.91 1418.86 L1188.91 1449.48 L1196.55 1449.48 L1196.55 1453.42 L1176.64 1453.42 L1176.64 1449.48 Z" fill="#000000" fill-rule="nonzero" fill-opacity="1" /><path clip-path="url(#clip300)" d="M1398.79 1449.48 L1415.11 1449.48 L1415.11 1453.42 L1393.17 1453.42 L1393.17 1449.48 Q1395.83 1446.73 1400.41 1442.1 Q1405.02 1437.45 1406.2 1436.11 Q1408.45 1433.58 1409.33 1431.85 Q1410.23 1430.09 1410.23 1428.4 Q1410.23 1425.64 1408.28 1423.91 Q1406.36 1422.17 1403.26 1422.17 Q1401.06 1422.17 1398.61 1422.93 Q1396.18 1423.7 1393.4 1425.25 L1393.4 1420.53 Q1396.22 1419.39 1398.68 1418.81 Q1401.13 1418.23 1403.17 1418.23 Q1408.54 1418.23 1411.73 1420.92 Q1414.93 1423.61 1414.93 1428.1 Q1414.93 1430.23 1414.12 1432.15 Q1413.33 1434.04 1411.22 1436.64 Q1410.65 1437.31 1407.54 1440.53 Q1404.44 1443.72 1398.79 1449.48 Z" fill="#000000" fill-rule="nonzero" fill-opacity="1" /><path clip-path="url(#clip300)" d="M1626.27 1434.79 Q1629.63 1435.5 1631.5 1437.77 Q1633.4 1440.04 1633.4 1443.37 Q1633.4 1448.49 1629.88 1451.29 Q1626.37 1454.09 1619.88 1454.09 Q1617.71 1454.09 1615.39 1453.65 Q1613.1 1453.23 1610.65 1452.38 L1610.65 1447.86 Q1612.59 1449 1614.91 1449.58 Q1617.22 1450.16 1619.75 1450.16 Q1624.14 1450.16 1626.44 1448.42 Q1628.75 1446.68 1628.75 1443.37 Q1628.75 1440.32 1626.6 1438.61 Q1624.47 1436.87 1620.65 1436.87 L1616.62 1436.87 L1616.62 1433.03 L1620.83 1433.03 Q1624.28 1433.03 1626.11 1431.66 Q1627.94 1430.27 1627.94 1427.68 Q1627.94 1425.02 1626.04 1423.61 Q1624.17 1422.17 1620.65 1422.17 Q1618.73 1422.17 1616.53 1422.59 Q1614.33 1423 1611.69 1423.88 L1611.69 1419.72 Q1614.35 1418.98 1616.67 1418.61 Q1619 1418.23 1621.06 1418.23 Q1626.39 1418.23 1629.49 1420.67 Q1632.59 1423.07 1632.59 1427.19 Q1632.59 1430.06 1630.95 1432.05 Q1629.31 1434.02 1626.27 1434.79 Z" fill="#000000" fill-rule="nonzero" fill-opacity="1" /><path clip-path="url(#clip300)" d="M984.987 1496.04 L972.096 1513.38 L985.655 1531.68 L978.749 1531.68 L968.372 1517.68 L957.996 1531.68 L951.09 1531.68 L964.935 1513.03 L952.267 1496.04 L959.174 1496.04 L968.627 1508.74 L978.08 1496.04 L984.987 1496.04 Z" fill="#000000" fill-rule="nonzero" fill-opacity="1" /><polyline clip-path="url(#clip302)" style="stroke:#000000; stroke-linecap:round; stroke-linejoin:round; stroke-width:2; stroke-opacity:0.1; fill:none" points="183.989,1395.82 1752.76,1395.82 "/>
<polyline clip-path="url(#clip302)" style="stroke:#000000; stroke-linecap:round; stroke-linejoin:round; stroke-width:2; stroke-opacity:0.1; fill:none" points="183.989,974.39 1752.76,974.39 "/>
<polyline clip-path="url(#clip302)" style="stroke:#000000; stroke-linecap:round; stroke-linejoin:round; stroke-width:2; stroke-opacity:0.1; fill:none" points="183.989,552.96 1752.76,552.96 "/>
<polyline clip-path="url(#clip302)" style="stroke:#000000; stroke-linecap:round; stroke-linejoin:round; stroke-width:2; stroke-opacity:0.1; fill:none" points="183.989,131.53 1752.76,131.53 "/>
<polyline clip-path="url(#clip300)" style="stroke:#000000; stroke-linecap:round; stroke-linejoin:round; stroke-width:4; stroke-opacity:1; fill:none" points="183.989,1395.82 183.989,47.2441 "/>
<polyline clip-path="url(#clip300)" style="stroke:#000000; stroke-linecap:round; stroke-linejoin:round; stroke-width:4; stroke-opacity:1; fill:none" points="183.989,1395.82 202.887,1395.82 "/>
<polyline clip-path="url(#clip300)" style="stroke:#000000; stroke-linecap:round; stroke-linejoin:round; stroke-width:4; stroke-opacity:1; fill:none" points="183.989,974.39 202.887,974.39 "/>
<polyline clip-path="url(#clip300)" style="stroke:#000000; stroke-linecap:round; stroke-linejoin:round; stroke-width:4; stroke-opacity:1; fill:none" points="183.989,552.96 202.887,552.96 "/>
<polyline clip-path="url(#clip300)" style="stroke:#000000; stroke-linecap:round; stroke-linejoin:round; stroke-width:4; stroke-opacity:1; fill:none" points="183.989,131.53 202.887,131.53 "/>
<path clip-path="url(#clip300)" d="M145.045 1381.62 Q141.433 1381.62 139.605 1385.18 Q137.799 1388.72 137.799 1395.85 Q137.799 1402.96 139.605 1406.53 Q141.433 1410.07 145.045 1410.07 Q148.679 1410.07 150.484 1406.53 Q152.313 1402.96 152.313 1395.85 Q152.313 1388.72 150.484 1385.18 Q148.679 1381.62 145.045 1381.62 M145.045 1377.91 Q150.855 1377.91 153.91 1382.52 Q156.989 1387.1 156.989 1395.85 Q156.989 1404.58 153.91 1409.19 Q150.855 1413.77 145.045 1413.77 Q139.234 1413.77 136.156 1409.19 Q133.1 1404.58 133.1 1395.85 Q133.1 1387.1 136.156 1382.52 Q139.234 1377.91 145.045 1377.91 Z" fill="#000000" fill-rule="nonzero" fill-opacity="1" /><path clip-path="url(#clip300)" d="M137.082 987.735 L144.72 987.735 L144.72 961.369 L136.41 963.036 L136.41 958.777 L144.674 957.11 L149.35 957.11 L149.35 987.735 L156.989 987.735 L156.989 991.67 L137.082 991.67 L137.082 987.735 Z" fill="#000000" fill-rule="nonzero" fill-opacity="1" /><path clip-path="url(#clip300)" d="M140.67 566.305 L156.989 566.305 L156.989 570.24 L135.045 570.24 L135.045 566.305 Q137.707 563.55 142.29 558.921 Q146.896 554.268 148.077 552.925 Q150.322 550.402 151.202 548.666 Q152.105 546.907 152.105 545.217 Q152.105 542.462 150.16 540.726 Q148.239 538.99 145.137 538.99 Q142.938 538.99 140.484 539.754 Q138.054 540.518 135.276 542.069 L135.276 537.347 Q138.1 536.212 140.554 535.634 Q143.008 535.055 145.045 535.055 Q150.415 535.055 153.609 537.74 Q156.804 540.425 156.804 544.916 Q156.804 547.046 155.994 548.967 Q155.207 550.865 153.1 553.458 Q152.521 554.129 149.42 557.347 Q146.318 560.541 140.67 566.305 Z" fill="#000000" fill-rule="nonzero" fill-opacity="1" /><path clip-path="url(#clip300)" d="M149.859 130.176 Q153.216 130.894 155.091 133.162 Q156.989 135.431 156.989 138.764 Q156.989 143.88 153.47 146.68 Q149.952 149.481 143.47 149.481 Q141.295 149.481 138.98 149.042 Q136.688 148.625 134.234 147.768 L134.234 143.255 Q136.179 144.389 138.494 144.968 Q140.808 145.546 143.332 145.546 Q147.73 145.546 150.021 143.81 Q152.336 142.074 152.336 138.764 Q152.336 135.708 150.183 133.995 Q148.054 132.259 144.234 132.259 L140.207 132.259 L140.207 128.417 L144.42 128.417 Q147.869 128.417 149.697 127.051 Q151.526 125.662 151.526 123.069 Q151.526 120.407 149.628 118.995 Q147.753 117.56 144.234 117.56 Q142.313 117.56 140.114 117.977 Q137.915 118.394 135.276 119.273 L135.276 115.107 Q137.938 114.366 140.253 113.995 Q142.591 113.625 144.651 113.625 Q149.975 113.625 153.077 116.056 Q156.179 118.463 156.179 122.583 Q156.179 125.454 154.535 127.444 Q152.892 129.412 149.859 130.176 Z" fill="#000000" fill-rule="nonzero" fill-opacity="1" /><path clip-path="url(#clip300)" d="M91.8442 767.349 L44.3242 785.491 L44.3242 778.776 L84.3326 763.721 L44.3242 748.634 L44.3242 741.95 L91.8442 760.06 L91.8442 767.349 Z" fill="#000000" fill-rule="nonzero" fill-opacity="1" /><path clip-path="url(#clip300)" d="M42.3826 721.198 Q49.7032 725.463 56.8646 727.532 Q64.026 729.601 71.3784 729.601 Q78.7308 729.601 85.9559 727.532 Q93.1491 725.431 100.438 721.198 L100.438 726.29 Q92.9582 731.065 85.7331 733.452 Q78.508 735.807 71.3784 735.807 Q64.2806 735.807 57.0874 733.452 Q49.8942 731.096 42.3826 726.29 L42.3826 721.198 Z" fill="#000000" fill-rule="nonzero" fill-opacity="1" /><path clip-path="url(#clip300)" d="M56.1962 680.203 L73.5428 693.093 L91.8442 679.534 L91.8442 686.441 L77.8396 696.817 L91.8442 707.193 L91.8442 714.1 L73.1926 700.255 L56.1962 712.922 L56.1962 706.016 L68.8958 696.562 L56.1962 687.109 L56.1962 680.203 Z" fill="#000000" fill-rule="nonzero" fill-opacity="1" /><path clip-path="url(#clip300)" d="M42.3826 672.182 L42.3826 667.089 Q49.8942 662.315 57.0874 659.96 Q64.2806 657.573 71.3784 657.573 Q78.508 657.573 85.7331 659.96 Q92.9582 662.315 100.438 667.089 L100.438 672.182 Q93.1491 667.949 85.9559 665.88 Q78.7308 663.779 71.3784 663.779 Q64.026 663.779 56.8646 665.88 Q49.7032 667.949 42.3826 672.182 Z" fill="#000000" fill-rule="nonzero" fill-opacity="1" /><polyline clip-path="url(#clip302)" style="stroke:#000000; stroke-linecap:round; stroke-linejoin:round; stroke-width:8; stroke-opacity:1; fill:none" points="314.72,-500.615 319.077,-475.413 323.435,-450.38 327.793,-425.516 332.15,-400.82 336.508,-376.293 340.866,-351.934 345.223,-327.744 349.581,-303.723 353.939,-279.87 358.296,-256.185 362.654,-232.67 367.012,-209.322 371.369,-186.144 375.727,-163.134 380.085,-140.292 384.442,-117.619 388.8,-95.1149 393.158,-72.7791 397.516,-50.6119 401.873,-28.6133 406.231,-6.78322 410.589,14.8783 414.946,36.3712 419.304,57.6956 423.662,78.8513 428.019,99.8385 432.377,120.657 436.735,141.307 441.092,161.789 445.45,182.102 449.808,202.246 454.165,222.222 458.523,242.029 462.881,261.668 467.239,281.138 471.596,300.439 475.954,319.572 480.312,338.536 484.669,357.332 489.027,375.959 493.385,394.418 497.742,412.708 502.1,430.83 506.458,448.783 510.815,466.567 515.173,484.183 519.531,501.63 523.888,518.908 528.246,536.019 532.604,552.96 536.961,569.733 541.319,586.337 545.677,602.773 550.035,619.04 554.392,635.139 558.75,651.069 563.108,666.83 567.465,682.423 571.823,697.848 576.181,713.103 580.538,728.191 584.896,743.109 589.254,757.859 593.611,772.441 597.969,786.854 602.327,801.098 606.684,815.174 611.042,829.081 615.4,842.819 619.758,856.39 624.115,869.791 628.473,883.024 632.831,896.088 637.188,908.984 641.546,921.711 645.904,934.27 650.261,946.66 654.619,958.881 658.977,970.934 663.334,982.819 667.692,994.534 672.05,1006.08 676.407,1017.46 680.765,1028.67 685.123,1039.71 689.481,1050.58 693.838,1061.29 698.196,1071.82 702.554,1082.19 706.911,1092.39 711.269,1102.42 715.627,1112.28 719.984,1121.97 724.342,1131.5 728.7,1140.85 733.057,1150.04 737.415,1159.06 741.773,1167.91 746.13,1176.59 750.488,1185.1 754.846,1193.45 759.203,1201.62 763.561,1209.63 767.919,1217.47 772.277,1225.14 776.634,1232.64 780.992,1239.98 785.35,1247.14 789.707,1254.14 794.065,1260.96 798.423,1267.62 802.78,1274.11 807.138,1280.43 811.496,1286.59 815.853,1292.57 820.211,1298.39 824.569,1304.03 828.926,1309.51 833.284,1314.82 837.642,1319.96 842,1324.94 846.357,1329.74 850.715,1334.38 855.073,1338.84 859.43,1343.14 863.788,1347.27 868.146,1351.23 872.503,1355.03 876.861,1358.65 881.219,1362.11 885.576,1365.39 889.934,1368.51 894.292,1371.46 898.649,1374.24 903.007,1376.86 907.365,1379.3 911.722,1381.58 916.08,1383.68 920.438,1385.62 924.796,1387.39 929.153,1388.99 933.511,1390.43 937.869,1391.69 942.226,1392.79 946.584,1393.71 950.942,1394.47 955.299,1395.06 959.657,1395.48 964.015,1395.74 968.372,1395.82 972.73,1395.74 977.088,1395.48 981.445,1395.06 985.803,1394.47 990.161,1393.71 994.519,1392.79 998.876,1391.69 1003.23,1390.43 1007.59,1388.99 1011.95,1387.39 1016.31,1385.62 1020.66,1383.68 1025.02,1381.58 1029.38,1379.3 1033.74,1376.86 1038.1,1374.24 1042.45,1371.46 1046.81,1368.51 1051.17,1365.39 1055.53,1362.11 1059.88,1358.65 1064.24,1355.03 1068.6,1351.23 1072.96,1347.27 1077.31,1343.14 1081.67,1338.84 1086.03,1334.38 1090.39,1329.74 1094.75,1324.94 1099.1,1319.96 1103.46,1314.82 1107.82,1309.51 1112.18,1304.03 1116.53,1298.39 1120.89,1292.57 1125.25,1286.59 1129.61,1280.43 1133.96,1274.11 1138.32,1267.62 1142.68,1260.96 1147.04,1254.14 1151.4,1247.14 1155.75,1239.98 1160.11,1232.64 1164.47,1225.14 1168.83,1217.47 1173.18,1209.63 1177.54,1201.62 1181.9,1193.45 1186.26,1185.1 1190.61,1176.59 1194.97,1167.91 1199.33,1159.06 1203.69,1150.04 1208.05,1140.85 1212.4,1131.5 1216.76,1121.97 1221.12,1112.28 1225.48,1102.42 1229.83,1092.39 1234.19,1082.19 1238.55,1071.82 1242.91,1061.29 1247.26,1050.58 1251.62,1039.71 1255.98,1028.67 1260.34,1017.46 1264.7,1006.08 1269.05,994.534 1273.41,982.819 1277.77,970.934 1282.13,958.881 1286.48,946.66 1290.84,934.27 1295.2,921.711 1299.56,908.984 1303.91,896.088 1308.27,883.024 1312.63,869.791 1316.99,856.39 1321.34,842.819 1325.7,829.081 1330.06,815.174 1334.42,801.098 1338.78,786.854 1343.13,772.441 1347.49,757.859 1351.85,743.109 1356.21,728.191 1360.56,713.103 1364.92,697.848 1369.28,682.423 1373.64,666.83 1377.99,651.069 1382.35,635.139 1386.71,619.04 1391.07,602.773 1395.43,586.337 1399.78,569.733 1404.14,552.96 1408.5,536.019 1412.86,518.908 1417.21,501.63 1421.57,484.183 1425.93,466.567 1430.29,448.783 1434.64,430.83 1439,412.708 1443.36,394.418 1447.72,375.959 1452.08,357.332 1456.43,338.536 1460.79,319.572 1465.15,300.439 1469.51,281.138 1473.86,261.668 1478.22,242.029 1482.58,222.222 1486.94,202.246 1491.29,182.102 1495.65,161.789 1500.01,141.307 1504.37,120.657 1508.73,99.8385 1513.08,78.8513 1517.44,57.6956 1521.8,36.3712 1526.16,14.8783 1530.51,-6.78322 1534.87,-28.6133 1539.23,-50.6119 1543.59,-72.7791 1547.94,-95.1149 1552.3,-117.619 1556.66,-140.292 1561.02,-163.134 1565.38,-186.144 1569.73,-209.322 1574.09,-232.67 1578.45,-256.185 1582.81,-279.87 1587.16,-303.723 1591.52,-327.744 1595.88,-351.934 1600.24,-376.293 1604.59,-400.82 1608.95,-425.516 1613.31,-450.38 1617.67,-475.413 1622.03,-500.615 "/>
<polyline clip-path="url(#clip302)" style="stroke:#000000; stroke-linecap:round; stroke-linejoin:round; stroke-width:4; stroke-opacity:1; fill:none" stroke-dasharray="16, 10" points="-1384.78,1185.1 3321.52,1185.1 "/>
<polyline clip-path="url(#clip302)" style="stroke:#000000; stroke-linecap:round; stroke-linejoin:round; stroke-width:8; stroke-opacity:1; fill:none" points="750.488,1185.1 1186.26,1185.1 "/>
<polyline clip-path="url(#clip302)" style="stroke:#009af9; stroke-linecap:round; stroke-linejoin:round; stroke-width:8; stroke-opacity:1; fill:none" points="205.777,1184.76 210.135,1184.73 214.493,1184.71 218.85,1184.68 223.208,1184.65 227.566,1184.62 231.923,1184.58 236.281,1184.55 240.639,1184.51 244.997,1184.47 249.354,1184.42 253.712,1184.38 258.07,1184.33 262.427,1184.27 266.785,1184.22 271.143,1184.16 275.5,1184.1 279.858,1184.03 284.216,1183.96 288.573,1183.89 292.931,1183.81 297.289,1183.73 301.646,1183.64 306.004,1183.55 310.362,1183.45 314.72,1183.35 319.077,1183.24 323.435,1183.12 327.793,1183 332.15,1182.88 336.508,1182.74 340.866,1182.6 345.223,1182.45 349.581,1182.3 353.939,1182.14 358.296,1181.96 362.654,1181.78 367.012,1181.6 371.369,1181.4 375.727,1181.19 380.085,1180.97 384.442,1180.74 388.8,1180.5 393.158,1180.25 397.516,1179.99 401.873,1179.72 406.231,1179.43 410.589,1179.13 414.946,1178.82 419.304,1178.49 423.662,1178.15 428.019,1177.8 432.377,1177.43 436.735,1177.04 441.092,1176.64 445.45,1176.22 449.808,1175.79 454.165,1175.33 458.523,1174.86 462.881,1174.37 467.239,1173.87 471.596,1173.34 475.954,1172.79 480.312,1172.23 484.669,1171.64 489.027,1171.03 493.385,1170.4 497.742,1169.75 502.1,1169.07 506.458,1168.38 510.815,1167.66 515.173,1166.91 519.531,1166.14 523.888,1165.35 528.246,1164.53 532.604,1163.68 536.961,1162.82 541.319,1161.92 545.677,1161 550.035,1160.05 554.392,1159.07 558.75,1158.07 563.108,1157.04 567.465,1155.98 571.823,1154.9 576.181,1153.78 580.538,1152.64 584.896,1151.47 589.254,1150.27 593.611,1149.05 597.969,1147.79 602.327,1146.51 606.684,1145.2 611.042,1143.86 615.4,1142.49 619.758,1141.1 624.115,1139.68 628.473,1138.23 632.831,1136.75 637.188,1135.25 641.546,1133.72 645.904,1132.17 650.261,1130.59 654.619,1128.98 658.977,1127.35 663.334,1125.7 667.692,1124.03 672.05,1122.33 676.407,1120.61 680.765,1118.88 685.123,1117.12 689.481,1115.34 693.838,1113.55 698.196,1111.73 702.554,1109.91 706.911,1108.06 711.269,1106.21 715.627,1104.34 719.984,1102.46 724.342,1100.57 728.7,1098.68 733.057,1096.77 737.415,1094.86 741.773,1092.95 746.13,1091.03 750.488,1089.11 754.846,1087.19 759.203,1085.27 763.561,1083.35 767.919,1081.44 772.277,1079.54 776.634,1077.64 780.992,1075.76 785.35,1073.88 789.707,1072.02 794.065,1070.17 798.423,1068.34 802.78,1066.53 807.138,1064.74 811.496,1062.97 815.853,1061.22 820.211,1059.5 824.569,1057.81 828.926,1056.14 833.284,1054.51 837.642,1052.9 842,1051.33 846.357,1049.8 850.715,1048.3 855.073,1046.85 859.43,1045.43 863.788,1044.05 868.146,1042.72 872.503,1041.43 876.861,1040.19 881.219,1039 885.576,1037.86 889.934,1036.76 894.292,1035.72 898.649,1034.73 903.007,1033.8 907.365,1032.92 911.722,1032.09 916.08,1031.32 920.438,1030.62 924.796,1029.97 929.153,1029.37 933.511,1028.84 937.869,1028.37 942.226,1027.97 946.584,1027.62 950.942,1027.34 955.299,1027.12 959.657,1026.96 964.015,1026.86 968.372,1026.83 972.73,1026.86 977.088,1026.96 981.445,1027.12 985.803,1027.34 990.161,1027.62 994.519,1027.97 998.876,1028.37 1003.23,1028.84 1007.59,1029.37 1011.95,1029.97 1016.31,1030.62 1020.66,1031.32 1025.02,1032.09 1029.38,1032.92 1033.74,1033.8 1038.1,1034.73 1042.45,1035.72 1046.81,1036.76 1051.17,1037.86 1055.53,1039 1059.88,1040.19 1064.24,1041.43 1068.6,1042.72 1072.96,1044.05 1077.31,1045.43 1081.67,1046.85 1086.03,1048.3 1090.39,1049.8 1094.75,1051.33 1099.1,1052.9 1103.46,1054.51 1107.82,1056.14 1112.18,1057.81 1116.53,1059.5 1120.89,1061.22 1125.25,1062.97 1129.61,1064.74 1133.96,1066.53 1138.32,1068.34 1142.68,1070.17 1147.04,1072.02 1151.4,1073.88 1155.75,1075.76 1160.11,1077.64 1164.47,1079.54 1168.83,1081.44 1173.18,1083.35 1177.54,1085.27 1181.9,1087.19 1186.26,1089.11 1190.61,1091.03 1194.97,1092.95 1199.33,1094.86 1203.69,1096.77 1208.05,1098.68 1212.4,1100.57 1216.76,1102.46 1221.12,1104.34 1225.48,1106.21 1229.83,1108.06 1234.19,1109.91 1238.55,1111.73 1242.91,1113.55 1247.26,1115.34 1251.62,1117.12 1255.98,1118.88 1260.34,1120.61 1264.7,1122.33 1269.05,1124.03 1273.41,1125.7 1277.77,1127.35 1282.13,1128.98 1286.48,1130.59 1290.84,1132.17 1295.2,1133.72 1299.56,1135.25 1303.91,1136.75 1308.27,1138.23 1312.63,1139.68 1316.99,1141.1 1321.34,1142.49 1325.7,1143.86 1330.06,1145.2 1334.42,1146.51 1338.78,1147.79 1343.13,1149.05 1347.49,1150.27 1351.85,1151.47 1356.21,1152.64 1360.56,1153.78 1364.92,1154.9 1369.28,1155.98 1373.64,1157.04 1377.99,1158.07 1382.35,1159.07 1386.71,1160.05 1391.07,1161 1395.43,1161.92 1399.78,1162.82 1404.14,1163.68 1408.5,1164.53 1412.86,1165.35 1417.21,1166.14 1421.57,1166.91 1425.93,1167.66 1430.29,1168.38 1434.64,1169.07 1439,1169.75 1443.36,1170.4 1447.72,1171.03 1452.08,1171.64 1456.43,1172.23 1460.79,1172.79 1465.15,1173.34 1469.51,1173.87 1473.86,1174.37 1478.22,1174.86 1482.58,1175.33 1486.94,1175.79 1491.29,1176.22 1495.65,1176.64 1500.01,1177.04 1504.37,1177.43 1508.73,1177.8 1513.08,1178.15 1517.44,1178.49 1521.8,1178.82 1526.16,1179.13 1530.51,1179.43 1534.87,1179.72 1539.23,1179.99 1543.59,1180.25 1547.94,1180.5 1552.3,1180.74 1556.66,1180.97 1561.02,1181.19 1565.38,1181.4 1569.73,1181.6 1574.09,1181.78 1578.45,1181.96 1582.81,1182.14 1587.16,1182.3 1591.52,1182.45 1595.88,1182.6 1600.24,1182.74 1604.59,1182.88 1608.95,1183 1613.31,1183.12 1617.67,1183.24 1622.03,1183.35 1626.38,1183.45 1630.74,1183.55 1635.1,1183.64 1639.46,1183.73 1643.81,1183.81 1648.17,1183.89 1652.53,1183.96 1656.89,1184.03 1661.24,1184.1 1665.6,1184.16 1669.96,1184.22 1674.32,1184.27 1678.68,1184.33 1683.03,1184.38 1687.39,1184.42 1691.75,1184.47 1696.11,1184.51 1700.46,1184.55 1704.82,1184.58 1709.18,1184.62 1713.54,1184.65 1717.89,1184.68 1722.25,1184.71 1726.61,1184.73 1730.97,1184.76 "/>
<polyline clip-path="url(#clip302)" style="stroke:#000000; stroke-linecap:round; stroke-linejoin:round; stroke-width:4; stroke-opacity:1; fill:none" stroke-dasharray="16, 10" points="-1384.78,763.675 3321.52,763.675 "/>
<polyline clip-path="url(#clip302)" style="stroke:#000000; stroke-linecap:round; stroke-linejoin:round; stroke-width:8; stroke-opacity:1; fill:none" points="590.986,763.675 1345.76,763.675 "/>
<polyline clip-path="url(#clip302)" style="stroke:#e26f46; stroke-linecap:round; stroke-linejoin:round; stroke-width:8; stroke-opacity:1; fill:none" points="205.777,765.389 210.135,765.502 214.493,765.622 218.85,765.749 223.208,765.884 227.566,766.026 231.923,766.176 236.281,766.334 240.639,766.502 244.997,766.678 249.354,766.864 253.712,767.061 258.07,767.267 262.427,767.485 266.785,767.714 271.143,767.955 275.5,768.209 279.858,768.475 284.216,768.755 288.573,769.049 292.931,769.357 297.289,769.68 301.646,770.019 306.004,770.374 310.362,770.746 314.72,771.135 319.077,771.542 323.435,771.967 327.793,772.411 332.15,772.876 336.508,773.36 340.866,773.866 345.223,774.393 349.581,774.942 353.939,775.514 358.296,776.11 362.654,776.73 367.012,777.374 371.369,778.044 375.727,778.739 380.085,779.461 384.442,780.211 388.8,780.987 393.158,781.792 397.516,782.626 401.873,783.489 406.231,784.382 410.589,785.305 414.946,786.259 419.304,787.245 423.662,788.261 428.019,789.31 432.377,790.391 436.735,791.504 441.092,792.651 445.45,793.83 449.808,795.043 454.165,796.29 458.523,797.569 462.881,798.883 467.239,800.23 471.596,801.61 475.954,803.024 480.312,804.471 484.669,805.95 489.027,807.463 493.385,809.007 497.742,810.584 502.1,812.191 506.458,813.83 510.815,815.498 515.173,817.195 519.531,818.921 523.888,820.675 528.246,822.455 532.604,824.26 536.961,826.089 541.319,827.942 545.677,829.816 550.035,831.71 554.392,833.623 558.75,835.553 563.108,837.498 567.465,839.457 571.823,841.428 576.181,843.408 580.538,845.396 584.896,847.389 589.254,849.386 593.611,851.384 597.969,853.38 602.327,855.372 606.684,857.358 611.042,859.334 615.4,861.299 619.758,863.249 624.115,865.181 628.473,867.093 632.831,868.982 637.188,870.844 641.546,872.677 645.904,874.476 650.261,876.24 654.619,877.965 658.977,879.648 663.334,881.284 667.692,882.872 672.05,884.408 676.407,885.888 680.765,887.309 685.123,888.668 689.481,889.962 693.838,891.187 698.196,892.34 702.554,893.417 706.911,894.416 711.269,895.334 715.627,896.166 719.984,896.911 724.342,897.566 728.7,898.127 733.057,898.592 737.415,898.958 741.773,899.222 746.13,899.382 750.488,899.436 754.846,899.381 759.203,899.216 763.561,898.938 767.919,898.546 772.277,898.037 776.634,897.41 780.992,896.665 785.35,895.799 789.707,894.812 794.065,893.703 798.423,892.472 802.78,891.117 807.138,889.638 811.496,888.037 815.853,886.311 820.211,884.463 824.569,882.492 828.926,880.399 833.284,878.185 837.642,875.851 842,873.399 846.357,870.83 850.715,868.146 855.073,865.349 859.43,862.441 863.788,859.424 868.146,856.301 872.503,853.075 876.861,849.748 881.219,846.324 885.576,842.807 889.934,839.199 894.292,835.504 898.649,831.726 903.007,827.87 907.365,823.939 911.722,819.937 916.08,815.87 920.438,811.741 924.796,807.555 929.153,803.317 933.511,799.033 937.869,794.706 942.226,790.342 946.584,785.947 950.942,781.524 955.299,777.081 959.657,772.621 964.015,768.151 968.372,763.675 972.73,759.199 977.088,754.729 981.445,750.269 985.803,745.826 990.161,741.403 994.519,737.008 998.876,732.644 1003.23,728.317 1007.59,724.033 1011.95,719.795 1016.31,715.609 1020.66,711.48 1025.02,707.413 1029.38,703.411 1033.74,699.48 1038.1,695.624 1042.45,691.846 1046.81,688.151 1051.17,684.543 1055.53,681.026 1059.88,677.602 1064.24,674.275 1068.6,671.049 1072.96,667.926 1077.31,664.909 1081.67,662.001 1086.03,659.204 1090.39,656.52 1094.75,653.951 1099.1,651.499 1103.46,649.165 1107.82,646.951 1112.18,644.858 1116.53,642.887 1120.89,641.039 1125.25,639.313 1129.61,637.711 1133.96,636.233 1138.32,634.878 1142.68,633.646 1147.04,632.537 1151.4,631.551 1155.75,630.685 1160.11,629.939 1164.47,629.313 1168.83,628.804 1173.18,628.412 1177.54,628.134 1181.9,627.968 1186.26,627.914 1190.61,627.968 1194.97,628.128 1199.33,628.392 1203.69,628.758 1208.05,629.223 1212.4,629.784 1216.76,630.438 1221.12,631.184 1225.48,632.016 1229.83,632.934 1234.19,633.933 1238.55,635.01 1242.91,636.163 1247.26,637.388 1251.62,638.681 1255.98,640.041 1260.34,641.462 1264.7,642.942 1269.05,644.478 1273.41,646.065 1277.77,647.702 1282.13,649.385 1286.48,651.11 1290.84,652.874 1295.2,654.673 1299.56,656.506 1303.91,658.368 1308.27,660.257 1312.63,662.169 1316.99,664.101 1321.34,666.051 1325.7,668.016 1330.06,669.992 1334.42,671.978 1338.78,673.97 1343.13,675.966 1347.49,677.964 1351.85,679.961 1356.21,681.954 1360.56,683.942 1364.92,685.922 1369.28,687.893 1373.64,689.852 1377.99,691.797 1382.35,693.727 1386.71,695.64 1391.07,697.534 1395.43,699.408 1399.78,701.261 1404.14,703.09 1408.5,704.895 1412.86,706.675 1417.21,708.429 1421.57,710.154 1425.93,711.852 1430.29,713.52 1434.64,715.158 1439,716.766 1443.36,718.343 1447.72,719.887 1452.08,721.4 1456.43,722.879 1460.79,724.326 1465.15,725.74 1469.51,727.12 1473.86,728.467 1478.22,729.781 1482.58,731.06 1486.94,732.307 1491.29,733.519 1495.65,734.699 1500.01,735.845 1504.37,736.959 1508.73,738.04 1513.08,739.089 1517.44,740.105 1521.8,741.091 1526.16,742.044 1530.51,742.968 1534.87,743.861 1539.23,744.724 1543.59,745.557 1547.94,746.363 1552.3,747.139 1556.66,747.889 1561.02,748.611 1565.38,749.306 1569.73,749.976 1574.09,750.62 1578.45,751.24 1582.81,751.836 1587.16,752.408 1591.52,752.957 1595.88,753.484 1600.24,753.99 1604.59,754.474 1608.95,754.938 1613.31,755.383 1617.67,755.808 1622.03,756.215 1626.38,756.604 1630.74,756.976 1635.1,757.331 1639.46,757.67 1643.81,757.993 1648.17,758.301 1652.53,758.595 1656.89,758.875 1661.24,759.141 1665.6,759.395 1669.96,759.636 1674.32,759.865 1678.68,760.083 1683.03,760.289 1687.39,760.486 1691.75,760.672 1696.11,760.848 1700.46,761.016 1704.82,761.174 1709.18,761.324 1713.54,761.466 1717.89,761.601 1722.25,761.728 1726.61,761.848 1730.97,761.961 "/>
<polyline clip-path="url(#clip302)" style="stroke:#000000; stroke-linecap:round; stroke-linejoin:round; stroke-width:4; stroke-opacity:1; fill:none" stroke-dasharray="16, 10" points="-1384.78,342.245 3321.52,342.245 "/>
<polyline clip-path="url(#clip302)" style="stroke:#000000; stroke-linecap:round; stroke-linejoin:round; stroke-width:8; stroke-opacity:1; fill:none" points="481.168,342.245 1455.58,342.245 "/>
<polyline clip-path="url(#clip302)" style="stroke:#3da44d; stroke-linecap:round; stroke-linejoin:round; stroke-width:8; stroke-opacity:1; fill:none" points="205.777,336.492 210.135,336.149 214.493,335.789 218.85,335.411 223.208,335.015 227.566,334.599 231.923,334.163 236.281,333.706 240.639,333.227 244.997,332.727 249.354,332.203 253.712,331.656 258.07,331.085 262.427,330.488 266.785,329.866 271.143,329.217 275.5,328.54 279.858,327.836 284.216,327.103 288.573,326.34 292.931,325.547 297.289,324.724 301.646,323.869 306.004,322.982 310.362,322.062 314.72,321.109 319.077,320.123 323.435,319.101 327.793,318.046 332.15,316.954 336.508,315.828 340.866,314.665 345.223,313.465 349.581,312.23 353.939,310.957 358.296,309.648 362.654,308.301 367.012,306.917 371.369,305.497 375.727,304.039 380.085,302.545 384.442,301.015 388.8,299.448 393.158,297.846 397.516,296.209 401.873,294.538 406.231,292.833 410.589,291.096 414.946,289.326 419.304,287.526 423.662,285.697 428.019,283.839 432.377,281.954 436.735,280.044 441.092,278.11 445.45,276.154 449.808,274.178 454.165,272.185 458.523,270.175 462.881,268.151 467.239,266.116 471.596,264.072 475.954,262.022 480.312,259.969 484.669,257.915 489.027,255.864 493.385,253.818 497.742,251.781 502.1,249.755 506.458,247.746 510.815,245.755 515.173,243.788 519.531,241.847 523.888,239.936 528.246,238.06 532.604,236.222 536.961,234.426 541.319,232.677 545.677,230.979 550.035,229.335 554.392,227.751 558.75,226.231 563.108,224.779 567.465,223.399 571.823,222.096 576.181,220.874 580.538,219.737 584.896,218.69 589.254,217.737 593.611,216.883 597.969,216.13 602.327,215.485 606.684,214.949 611.042,214.528 615.4,214.225 619.758,214.044 624.115,213.987 628.473,214.059 632.831,214.263 637.188,214.601 641.546,215.077 645.904,215.692 650.261,216.449 654.619,217.351 658.977,218.399 663.334,219.595 667.692,220.94 672.05,222.435 676.407,224.081 680.765,225.879 685.123,227.828 689.481,229.928 693.838,232.18 698.196,234.582 702.554,237.133 706.911,239.831 711.269,242.675 715.627,245.663 719.984,248.792 724.342,252.06 728.7,255.462 733.057,258.996 737.415,262.658 741.773,266.443 746.13,270.347 750.488,274.364 754.846,278.491 759.203,282.72 763.561,287.046 767.919,291.463 772.277,295.965 776.634,300.544 780.992,305.193 785.35,309.906 789.707,314.674 794.065,319.49 798.423,324.346 802.78,329.233 807.138,334.143 811.496,339.067 815.853,343.997 820.211,348.924 824.569,353.839 828.926,358.732 833.284,363.596 837.642,368.42 842,373.195 846.357,377.912 850.715,382.563 855.073,387.138 859.43,391.628 863.788,396.024 868.146,400.317 872.503,404.5 876.861,408.562 881.219,412.497 885.576,416.296 889.934,419.951 894.292,423.454 898.649,426.799 903.007,429.978 907.365,432.985 911.722,435.813 916.08,438.457 920.438,440.911 924.796,443.169 929.153,445.227 933.511,447.081 937.869,448.725 942.226,450.158 946.584,451.376 950.942,452.376 955.299,453.156 959.657,453.714 964.015,454.049 968.372,454.161 972.73,454.049 977.088,453.714 981.445,453.156 985.803,452.376 990.161,451.376 994.519,450.158 998.876,448.725 1003.23,447.081 1007.59,445.227 1011.95,443.169 1016.31,440.911 1020.66,438.457 1025.02,435.813 1029.38,432.985 1033.74,429.978 1038.1,426.799 1042.45,423.454 1046.81,419.951 1051.17,416.296 1055.53,412.497 1059.88,408.562 1064.24,404.5 1068.6,400.317 1072.96,396.024 1077.31,391.628 1081.67,387.138 1086.03,382.563 1090.39,377.912 1094.75,373.195 1099.1,368.42 1103.46,363.596 1107.82,358.732 1112.18,353.839 1116.53,348.924 1120.89,343.997 1125.25,339.067 1129.61,334.143 1133.96,329.233 1138.32,324.346 1142.68,319.49 1147.04,314.674 1151.4,309.906 1155.75,305.193 1160.11,300.544 1164.47,295.965 1168.83,291.463 1173.18,287.046 1177.54,282.72 1181.9,278.491 1186.26,274.364 1190.61,270.347 1194.97,266.443 1199.33,262.658 1203.69,258.996 1208.05,255.462 1212.4,252.06 1216.76,248.792 1221.12,245.663 1225.48,242.675 1229.83,239.831 1234.19,237.133 1238.55,234.582 1242.91,232.18 1247.26,229.928 1251.62,227.828 1255.98,225.879 1260.34,224.081 1264.7,222.435 1269.05,220.94 1273.41,219.595 1277.77,218.399 1282.13,217.351 1286.48,216.449 1290.84,215.692 1295.2,215.077 1299.56,214.601 1303.91,214.263 1308.27,214.059 1312.63,213.987 1316.99,214.044 1321.34,214.225 1325.7,214.528 1330.06,214.949 1334.42,215.485 1338.78,216.13 1343.13,216.883 1347.49,217.737 1351.85,218.69 1356.21,219.737 1360.56,220.874 1364.92,222.096 1369.28,223.399 1373.64,224.779 1377.99,226.231 1382.35,227.751 1386.71,229.335 1391.07,230.979 1395.43,232.677 1399.78,234.426 1404.14,236.222 1408.5,238.06 1412.86,239.936 1417.21,241.847 1421.57,243.788 1425.93,245.755 1430.29,247.746 1434.64,249.755 1439,251.781 1443.36,253.818 1447.72,255.864 1452.08,257.915 1456.43,259.969 1460.79,262.022 1465.15,264.072 1469.51,266.116 1473.86,268.151 1478.22,270.175 1482.58,272.185 1486.94,274.178 1491.29,276.154 1495.65,278.11 1500.01,280.044 1504.37,281.954 1508.73,283.839 1513.08,285.697 1517.44,287.526 1521.8,289.326 1526.16,291.096 1530.51,292.833 1534.87,294.538 1539.23,296.209 1543.59,297.846 1547.94,299.448 1552.3,301.015 1556.66,302.545 1561.02,304.039 1565.38,305.497 1569.73,306.917 1574.09,308.301 1578.45,309.648 1582.81,310.957 1587.16,312.23 1591.52,313.465 1595.88,314.665 1600.24,315.828 1604.59,316.954 1608.95,318.046 1613.31,319.101 1617.67,320.123 1622.03,321.109 1626.38,322.062 1630.74,322.982 1635.1,323.869 1639.46,324.724 1643.81,325.547 1648.17,326.34 1652.53,327.103 1656.89,327.836 1661.24,328.54 1665.6,329.217 1669.96,329.866 1674.32,330.488 1678.68,331.085 1683.03,331.656 1687.39,332.203 1691.75,332.727 1696.11,333.227 1700.46,333.706 1704.82,334.163 1709.18,334.599 1713.54,335.015 1717.89,335.411 1722.25,335.789 1726.61,336.149 1730.97,336.492 "/>
</svg>
