<?xml version="1.0" encoding="utf-8"?>
<svg xmlns="http://www.w3.org/2000/svg" xmlns:xlink="http://www.w3.org/1999/xlink" width="600" height="400" viewBox="0 0 2400 1600">
<defs>
  <clipPath id="clip880">
    <rect x="0" y="0" width="2400" height="1600"/>
  </clipPath>
</defs>
<path clip-path="url(#clip880)" d="M0 1600 L2400 1600 L2400 0 L0 0  Z" fill="#ffffff" fill-rule="evenodd" fill-opacity="1"/>
<defs>
  <clipPath id="clip881">
    <rect x="480" y="0" width="1681" height="1600"/>
  </clipPath>
</defs>
<path clip-path="url(#clip880)" d="M287.366 1423.18 L2352.76 1423.18 L2352.76 123.472 L287.366 123.472  Z" fill="#ffffff" fill-rule="evenodd" fill-opacity="1"/>
<defs>
  <clipPath id="clip882">
    <rect x="287" y="123" width="2066" height="1301"/>
  </clipPath>
</defs>
<polyline clip-path="url(#clip882)" style="stroke:#000000; stroke-linecap:round; stroke-linejoin:round; stroke-width:2; stroke-opacity:0.1; fill:none" points="363.862,1423.18 363.862,123.472 "/>
<polyline clip-path="url(#clip882)" style="stroke:#000000; stroke-linecap:round; stroke-linejoin:round; stroke-width:2; stroke-opacity:0.1; fill:none" points="746.341,1423.18 746.341,123.472 "/>
<polyline clip-path="url(#clip882)" style="stroke:#000000; stroke-linecap:round; stroke-linejoin:round; stroke-width:2; stroke-opacity:0.1; fill:none" points="1128.82,1423.18 1128.82,123.472 "/>
<polyline clip-path="url(#clip882)" style="stroke:#000000; stroke-linecap:round; stroke-linejoin:round; stroke-width:2; stroke-opacity:0.1; fill:none" points="1511.3,1423.18 1511.3,123.472 "/>
<polyline clip-path="url(#clip882)" style="stroke:#000000; stroke-linecap:round; stroke-linejoin:round; stroke-width:2; stroke-opacity:0.1; fill:none" points="1893.78,1423.18 1893.78,123.472 "/>
<polyline clip-path="url(#clip882)" style="stroke:#000000; stroke-linecap:round; stroke-linejoin:round; stroke-width:2; stroke-opacity:0.1; fill:none" points="2276.26,1423.18 2276.26,123.472 "/>
<polyline clip-path="url(#clip880)" style="stroke:#000000; stroke-linecap:round; stroke-linejoin:round; stroke-width:4; stroke-opacity:1; fill:none" points="287.366,1423.18 2352.76,1423.18 "/>
<polyline clip-path="url(#clip880)" style="stroke:#000000; stroke-linecap:round; stroke-linejoin:round; stroke-width:4; stroke-opacity:1; fill:none" points="363.862,1423.18 363.862,1404.28 "/>
<polyline clip-path="url(#clip880)" style="stroke:#000000; stroke-linecap:round; stroke-linejoin:round; stroke-width:4; stroke-opacity:1; fill:none" points="746.341,1423.18 746.341,1404.28 "/>
<polyline clip-path="url(#clip880)" style="stroke:#000000; stroke-linecap:round; stroke-linejoin:round; stroke-width:4; stroke-opacity:1; fill:none" points="1128.82,1423.18 1128.82,1404.28 "/>
<polyline clip-path="url(#clip880)" style="stroke:#000000; stroke-linecap:round; stroke-linejoin:round; stroke-width:4; stroke-opacity:1; fill:none" points="1511.3,1423.18 1511.3,1404.28 "/>
<polyline clip-path="url(#clip880)" style="stroke:#000000; stroke-linecap:round; stroke-linejoin:round; stroke-width:4; stroke-opacity:1; fill:none" points="1893.78,1423.18 1893.78,1404.28 "/>
<polyline clip-path="url(#clip880)" style="stroke:#000000; stroke-linecap:round; stroke-linejoin:round; stroke-width:4; stroke-opacity:1; fill:none" points="2276.26,1423.18 2276.26,1404.28 "/>
<path clip-path="url(#clip880)" d="M341.744 1454.1 Q338.133 1454.1 336.304 1457.66 Q334.499 1461.2 334.499 1468.33 Q334.499 1475.44 336.304 1479.01 Q338.133 1482.55 341.744 1482.55 Q345.378 1482.55 347.184 1479.01 Q349.012 1475.44 349.012 1468.33 Q349.012 1461.2 347.184 1457.66 Q345.378 1454.1 341.744 1454.1 M341.744 1450.39 Q347.554 1450.39 350.61 1455 Q353.688 1459.58 353.688 1468.33 Q353.688 1477.06 350.61 1481.67 Q347.554 1486.25 341.744 1486.25 Q335.934 1486.25 332.855 1481.67 Q329.8 1477.06 329.8 1468.33 Q329.8 1459.58 332.855 1455 Q335.934 1450.39 341.744 1450.39 Z" fill="#000000" fill-rule="nonzero" fill-opacity="1" /><path clip-path="url(#clip880)" d="M361.906 1479.7 L366.79 1479.7 L366.79 1485.58 L361.906 1485.58 L361.906 1479.7 Z" fill="#000000" fill-rule="nonzero" fill-opacity="1" /><path clip-path="url(#clip880)" d="M377.021 1451.02 L395.378 1451.02 L395.378 1454.96 L381.304 1454.96 L381.304 1463.43 Q382.322 1463.08 383.341 1462.92 Q384.359 1462.73 385.378 1462.73 Q391.165 1462.73 394.545 1465.9 Q397.924 1469.08 397.924 1474.49 Q397.924 1480.07 394.452 1483.17 Q390.98 1486.25 384.66 1486.25 Q382.484 1486.25 380.216 1485.88 Q377.971 1485.51 375.563 1484.77 L375.563 1480.07 Q377.646 1481.2 379.869 1481.76 Q382.091 1482.32 384.568 1482.32 Q388.572 1482.32 390.91 1480.21 Q393.248 1478.1 393.248 1474.49 Q393.248 1470.88 390.91 1468.77 Q388.572 1466.67 384.568 1466.67 Q382.693 1466.67 380.818 1467.08 Q378.966 1467.5 377.021 1468.38 L377.021 1451.02 Z" fill="#000000" fill-rule="nonzero" fill-opacity="1" /><path clip-path="url(#clip880)" d="M713.494 1481.64 L721.133 1481.64 L721.133 1455.28 L712.823 1456.95 L712.823 1452.69 L721.087 1451.02 L725.763 1451.02 L725.763 1481.64 L733.402 1481.64 L733.402 1485.58 L713.494 1485.58 L713.494 1481.64 Z" fill="#000000" fill-rule="nonzero" fill-opacity="1" /><path clip-path="url(#clip880)" d="M742.846 1479.7 L747.73 1479.7 L747.73 1485.58 L742.846 1485.58 L742.846 1479.7 Z" fill="#000000" fill-rule="nonzero" fill-opacity="1" /><path clip-path="url(#clip880)" d="M767.915 1454.1 Q764.304 1454.1 762.476 1457.66 Q760.67 1461.2 760.67 1468.33 Q760.67 1475.44 762.476 1479.01 Q764.304 1482.55 767.915 1482.55 Q771.55 1482.55 773.355 1479.01 Q775.184 1475.44 775.184 1468.33 Q775.184 1461.2 773.355 1457.66 Q771.55 1454.1 767.915 1454.1 M767.915 1450.39 Q773.726 1450.39 776.781 1455 Q779.86 1459.58 779.86 1468.33 Q779.86 1477.06 776.781 1481.67 Q773.726 1486.25 767.915 1486.25 Q762.105 1486.25 759.027 1481.67 Q755.971 1477.06 755.971 1468.33 Q755.971 1459.58 759.027 1455 Q762.105 1450.39 767.915 1450.39 Z" fill="#000000" fill-rule="nonzero" fill-opacity="1" /><path clip-path="url(#clip880)" d="M1096.47 1481.64 L1104.11 1481.64 L1104.11 1455.28 L1095.8 1456.95 L1095.8 1452.69 L1104.06 1451.02 L1108.74 1451.02 L1108.74 1481.64 L1116.38 1481.64 L1116.38 1485.58 L1096.47 1485.58 L1096.47 1481.64 Z" fill="#000000" fill-rule="nonzero" fill-opacity="1" /><path clip-path="url(#clip880)" d="M1125.82 1479.7 L1130.71 1479.7 L1130.71 1485.58 L1125.82 1485.58 L1125.82 1479.7 Z" fill="#000000" fill-rule="nonzero" fill-opacity="1" /><path clip-path="url(#clip880)" d="M1140.94 1451.02 L1159.3 1451.02 L1159.3 1454.96 L1145.22 1454.96 L1145.22 1463.43 Q1146.24 1463.08 1147.26 1462.92 Q1148.28 1462.73 1149.3 1462.73 Q1155.08 1462.73 1158.46 1465.9 Q1161.84 1469.08 1161.84 1474.49 Q1161.84 1480.07 1158.37 1483.17 Q1154.9 1486.25 1148.58 1486.25 Q1146.4 1486.25 1144.13 1485.88 Q1141.89 1485.51 1139.48 1484.77 L1139.48 1480.07 Q1141.56 1481.2 1143.79 1481.76 Q1146.01 1482.32 1148.49 1482.32 Q1152.49 1482.32 1154.83 1480.21 Q1157.17 1478.1 1157.17 1474.49 Q1157.17 1470.88 1154.83 1468.77 Q1152.49 1466.67 1148.49 1466.67 Q1146.61 1466.67 1144.74 1467.08 Q1142.88 1467.5 1140.94 1468.38 L1140.94 1451.02 Z" fill="#000000" fill-rule="nonzero" fill-opacity="1" /><path clip-path="url(#clip880)" d="M1482.54 1481.64 L1498.86 1481.64 L1498.86 1485.58 L1476.91 1485.58 L1476.91 1481.64 Q1479.58 1478.89 1484.16 1474.26 Q1488.77 1469.61 1489.95 1468.27 Q1492.19 1465.74 1493.07 1464.01 Q1493.97 1462.25 1493.97 1460.56 Q1493.97 1457.8 1492.03 1456.07 Q1490.11 1454.33 1487.01 1454.33 Q1484.81 1454.33 1482.35 1455.09 Q1479.92 1455.86 1477.15 1457.41 L1477.15 1452.69 Q1479.97 1451.55 1482.42 1450.97 Q1484.88 1450.39 1486.91 1450.39 Q1492.28 1450.39 1495.48 1453.08 Q1498.67 1455.77 1498.67 1460.26 Q1498.67 1462.39 1497.86 1464.31 Q1497.08 1466.2 1494.97 1468.8 Q1494.39 1469.47 1491.29 1472.69 Q1488.19 1475.88 1482.54 1481.64 Z" fill="#000000" fill-rule="nonzero" fill-opacity="1" /><path clip-path="url(#clip880)" d="M1508.67 1479.7 L1513.56 1479.7 L1513.56 1485.58 L1508.67 1485.58 L1508.67 1479.7 Z" fill="#000000" fill-rule="nonzero" fill-opacity="1" /><path clip-path="url(#clip880)" d="M1533.74 1454.1 Q1530.13 1454.1 1528.3 1457.66 Q1526.5 1461.2 1526.5 1468.33 Q1526.5 1475.44 1528.3 1479.01 Q1530.13 1482.55 1533.74 1482.55 Q1537.38 1482.55 1539.18 1479.01 Q1541.01 1475.44 1541.01 1468.33 Q1541.01 1461.2 1539.18 1457.66 Q1537.38 1454.1 1533.74 1454.1 M1533.74 1450.39 Q1539.55 1450.39 1542.61 1455 Q1545.69 1459.58 1545.69 1468.33 Q1545.69 1477.06 1542.61 1481.67 Q1539.55 1486.25 1533.74 1486.25 Q1527.93 1486.25 1524.85 1481.67 Q1521.8 1477.06 1521.8 1468.33 Q1521.8 1459.58 1524.85 1455 Q1527.93 1450.39 1533.74 1450.39 Z" fill="#000000" fill-rule="nonzero" fill-opacity="1" /><path clip-path="url(#clip880)" d="M1865.52 1481.64 L1881.84 1481.64 L1881.84 1485.58 L1859.89 1485.58 L1859.89 1481.64 Q1862.55 1478.89 1867.14 1474.26 Q1871.74 1469.61 1872.92 1468.27 Q1875.17 1465.74 1876.05 1464.01 Q1876.95 1462.25 1876.95 1460.56 Q1876.95 1457.8 1875.01 1456.07 Q1873.09 1454.33 1869.98 1454.33 Q1867.79 1454.33 1865.33 1455.09 Q1862.9 1455.86 1860.12 1457.41 L1860.12 1452.69 Q1862.95 1451.55 1865.4 1450.97 Q1867.85 1450.39 1869.89 1450.39 Q1875.26 1450.39 1878.46 1453.08 Q1881.65 1455.77 1881.65 1460.26 Q1881.65 1462.39 1880.84 1464.31 Q1880.05 1466.2 1877.95 1468.8 Q1877.37 1469.47 1874.27 1472.69 Q1871.16 1475.88 1865.52 1481.64 Z" fill="#000000" fill-rule="nonzero" fill-opacity="1" /><path clip-path="url(#clip880)" d="M1891.65 1479.7 L1896.53 1479.7 L1896.53 1485.58 L1891.65 1485.58 L1891.65 1479.7 Z" fill="#000000" fill-rule="nonzero" fill-opacity="1" /><path clip-path="url(#clip880)" d="M1906.77 1451.02 L1925.12 1451.02 L1925.12 1454.96 L1911.05 1454.96 L1911.05 1463.43 Q1912.07 1463.08 1913.09 1462.92 Q1914.1 1462.73 1915.12 1462.73 Q1920.91 1462.73 1924.29 1465.9 Q1927.67 1469.08 1927.67 1474.49 Q1927.67 1480.07 1924.2 1483.17 Q1920.72 1486.25 1914.41 1486.25 Q1912.23 1486.25 1909.96 1485.88 Q1907.72 1485.51 1905.31 1484.77 L1905.31 1480.07 Q1907.39 1481.2 1909.61 1481.76 Q1911.84 1482.32 1914.31 1482.32 Q1918.32 1482.32 1920.66 1480.21 Q1922.99 1478.1 1922.99 1474.49 Q1922.99 1470.88 1920.66 1468.77 Q1918.32 1466.67 1914.31 1466.67 Q1912.44 1466.67 1910.56 1467.08 Q1908.71 1467.5 1906.77 1468.38 L1906.77 1451.02 Z" fill="#000000" fill-rule="nonzero" fill-opacity="1" /><path clip-path="url(#clip880)" d="M2257.57 1466.95 Q2260.92 1467.66 2262.8 1469.93 Q2264.7 1472.2 2264.7 1475.53 Q2264.7 1480.65 2261.18 1483.45 Q2257.66 1486.25 2251.18 1486.25 Q2249 1486.25 2246.69 1485.81 Q2244.4 1485.39 2241.94 1484.54 L2241.94 1480.02 Q2243.89 1481.16 2246.2 1481.74 Q2248.52 1482.32 2251.04 1482.32 Q2255.44 1482.32 2257.73 1480.58 Q2260.04 1478.84 2260.04 1475.53 Q2260.04 1472.48 2257.89 1470.77 Q2255.76 1469.03 2251.94 1469.03 L2247.92 1469.03 L2247.92 1465.19 L2252.13 1465.19 Q2255.58 1465.19 2257.41 1463.82 Q2259.23 1462.43 2259.23 1459.84 Q2259.23 1457.18 2257.34 1455.77 Q2255.46 1454.33 2251.94 1454.33 Q2250.02 1454.33 2247.82 1454.75 Q2245.62 1455.16 2242.98 1456.04 L2242.98 1451.88 Q2245.65 1451.14 2247.96 1450.77 Q2250.3 1450.39 2252.36 1450.39 Q2257.68 1450.39 2260.79 1452.83 Q2263.89 1455.23 2263.89 1459.35 Q2263.89 1462.22 2262.24 1464.21 Q2260.6 1466.18 2257.57 1466.95 Z" fill="#000000" fill-rule="nonzero" fill-opacity="1" /><path clip-path="url(#clip880)" d="M2273.56 1479.7 L2278.45 1479.7 L2278.45 1485.58 L2273.56 1485.58 L2273.56 1479.7 Z" fill="#000000" fill-rule="nonzero" fill-opacity="1" /><path clip-path="url(#clip880)" d="M2298.63 1454.1 Q2295.02 1454.1 2293.19 1457.66 Q2291.39 1461.2 2291.39 1468.33 Q2291.39 1475.44 2293.19 1479.01 Q2295.02 1482.55 2298.63 1482.55 Q2302.27 1482.55 2304.07 1479.01 Q2305.9 1475.44 2305.9 1468.33 Q2305.9 1461.2 2304.07 1457.66 Q2302.27 1454.1 2298.63 1454.1 M2298.63 1450.39 Q2304.44 1450.39 2307.5 1455 Q2310.58 1459.58 2310.58 1468.33 Q2310.58 1477.06 2307.5 1481.67 Q2304.44 1486.25 2298.63 1486.25 Q2292.82 1486.25 2289.74 1481.67 Q2286.69 1477.06 2286.69 1468.33 Q2286.69 1459.58 2289.74 1455 Q2292.82 1450.39 2298.63 1450.39 Z" fill="#000000" fill-rule="nonzero" fill-opacity="1" /><path clip-path="url(#clip880)" d="M1332.2 1528.74 Q1332.2 1530.45 1331.07 1531.54 Q1329.98 1532.64 1328.56 1532.64 Q1327.34 1532.64 1326.69 1531.93 Q1326.05 1531.22 1326.05 1530.32 Q1326.05 1529.03 1327.05 1527.97 Q1328.04 1526.9 1329.49 1526.68 Q1328.43 1525.91 1326.72 1525.91 Q1323.92 1525.91 1321.44 1528.06 Q1320.35 1529.06 1319.16 1530.9 Q1317.96 1532.7 1317.74 1533.47 L1315.65 1542.07 Q1315.45 1543.04 1314.26 1547.68 Q1313.1 1552.28 1313 1552.47 Q1312.68 1553.38 1311.97 1553.86 Q1311.27 1554.34 1310.56 1554.34 Q1309.75 1554.34 1309.2 1553.86 Q1308.66 1553.38 1308.66 1552.54 Q1308.66 1552.41 1308.75 1551.93 Q1308.85 1551.44 1309.01 1550.77 Q1309.17 1550.09 1309.24 1549.71 L1313.07 1534.47 Q1313.78 1531.7 1313.94 1530.83 Q1314.13 1529.93 1314.13 1528.93 Q1314.13 1527.19 1313.58 1526.55 Q1313.04 1525.91 1312.07 1525.91 Q1310.4 1525.91 1309.3 1527.9 Q1308.21 1529.9 1307.27 1533.76 Q1306.98 1534.83 1306.79 1535.05 Q1306.63 1535.28 1306.14 1535.28 Q1305.34 1535.24 1305.34 1534.6 Q1305.34 1534.44 1305.6 1533.41 Q1305.86 1532.35 1306.34 1530.8 Q1306.85 1529.22 1307.4 1528.22 Q1307.72 1527.55 1308.01 1527.1 Q1308.3 1526.65 1308.88 1525.94 Q1309.46 1525.23 1310.33 1524.84 Q1311.2 1524.46 1312.26 1524.46 Q1314.58 1524.46 1316.23 1525.87 Q1317.9 1527.29 1318.29 1529.51 Q1319.09 1528.35 1320.09 1527.35 Q1321.09 1526.32 1322.92 1525.39 Q1324.76 1524.46 1326.72 1524.46 Q1329.17 1524.46 1330.69 1525.71 Q1332.2 1526.94 1332.2 1528.74 Z" fill="#000000" fill-rule="nonzero" fill-opacity="1" /><polyline clip-path="url(#clip882)" style="stroke:#000000; stroke-linecap:round; stroke-linejoin:round; stroke-width:2; stroke-opacity:0.1; fill:none" points="287.366,1098.25 2352.76,1098.25 "/>
<polyline clip-path="url(#clip882)" style="stroke:#000000; stroke-linecap:round; stroke-linejoin:round; stroke-width:2; stroke-opacity:0.1; fill:none" points="287.366,773.326 2352.76,773.326 "/>
<polyline clip-path="url(#clip882)" style="stroke:#000000; stroke-linecap:round; stroke-linejoin:round; stroke-width:2; stroke-opacity:0.1; fill:none" points="287.366,448.399 2352.76,448.399 "/>
<polyline clip-path="url(#clip882)" style="stroke:#000000; stroke-linecap:round; stroke-linejoin:round; stroke-width:2; stroke-opacity:0.1; fill:none" points="287.366,123.472 2352.76,123.472 "/>
<polyline clip-path="url(#clip880)" style="stroke:#000000; stroke-linecap:round; stroke-linejoin:round; stroke-width:4; stroke-opacity:1; fill:none" points="287.366,1423.18 287.366,123.472 "/>
<polyline clip-path="url(#clip880)" style="stroke:#000000; stroke-linecap:round; stroke-linejoin:round; stroke-width:4; stroke-opacity:1; fill:none" points="287.366,1098.25 306.264,1098.25 "/>
<polyline clip-path="url(#clip880)" style="stroke:#000000; stroke-linecap:round; stroke-linejoin:round; stroke-width:4; stroke-opacity:1; fill:none" points="287.366,773.326 306.264,773.326 "/>
<polyline clip-path="url(#clip880)" style="stroke:#000000; stroke-linecap:round; stroke-linejoin:round; stroke-width:4; stroke-opacity:1; fill:none" points="287.366,448.399 306.264,448.399 "/>
<polyline clip-path="url(#clip880)" style="stroke:#000000; stroke-linecap:round; stroke-linejoin:round; stroke-width:4; stroke-opacity:1; fill:none" points="287.366,123.472 306.264,123.472 "/>
<path clip-path="url(#clip880)" d="M114.26 1098.7 L143.936 1098.7 L143.936 1102.64 L114.26 1102.64 L114.26 1098.7 Z" fill="#000000" fill-rule="nonzero" fill-opacity="1" /><path clip-path="url(#clip880)" d="M154.839 1111.6 L162.477 1111.6 L162.477 1085.23 L154.167 1086.9 L154.167 1082.64 L162.431 1080.97 L167.107 1080.97 L167.107 1111.6 L174.746 1111.6 L174.746 1115.53 L154.839 1115.53 L154.839 1111.6 Z" fill="#000000" fill-rule="nonzero" fill-opacity="1" /><path clip-path="url(#clip880)" d="M184.19 1109.65 L189.075 1109.65 L189.075 1115.53 L184.19 1115.53 L184.19 1109.65 Z" fill="#000000" fill-rule="nonzero" fill-opacity="1" /><path clip-path="url(#clip880)" d="M200.07 1111.6 L207.709 1111.6 L207.709 1085.23 L199.399 1086.9 L199.399 1082.64 L207.662 1080.97 L212.338 1080.97 L212.338 1111.6 L219.977 1111.6 L219.977 1115.53 L200.07 1115.53 L200.07 1111.6 Z" fill="#000000" fill-rule="nonzero" fill-opacity="1" /><path clip-path="url(#clip880)" d="M239.422 1084.05 Q235.81 1084.05 233.982 1087.62 Q232.176 1091.16 232.176 1098.29 Q232.176 1105.39 233.982 1108.96 Q235.81 1112.5 239.422 1112.5 Q243.056 1112.5 244.861 1108.96 Q246.69 1105.39 246.69 1098.29 Q246.69 1091.16 244.861 1087.62 Q243.056 1084.05 239.422 1084.05 M239.422 1080.35 Q245.232 1080.35 248.287 1084.95 Q251.366 1089.54 251.366 1098.29 Q251.366 1107.01 248.287 1111.62 Q245.232 1116.2 239.422 1116.2 Q233.611 1116.2 230.533 1111.62 Q227.477 1107.01 227.477 1098.29 Q227.477 1089.54 230.533 1084.95 Q233.611 1080.35 239.422 1080.35 Z" fill="#000000" fill-rule="nonzero" fill-opacity="1" /><path clip-path="url(#clip880)" d="M115.256 773.777 L144.931 773.777 L144.931 777.713 L115.256 777.713 L115.256 773.777 Z" fill="#000000" fill-rule="nonzero" fill-opacity="1" /><path clip-path="url(#clip880)" d="M155.834 786.671 L163.473 786.671 L163.473 760.305 L155.163 761.972 L155.163 757.713 L163.427 756.046 L168.102 756.046 L168.102 786.671 L175.741 786.671 L175.741 790.606 L155.834 790.606 L155.834 786.671 Z" fill="#000000" fill-rule="nonzero" fill-opacity="1" /><path clip-path="url(#clip880)" d="M185.186 784.726 L190.07 784.726 L190.07 790.606 L185.186 790.606 L185.186 784.726 Z" fill="#000000" fill-rule="nonzero" fill-opacity="1" /><path clip-path="url(#clip880)" d="M210.255 759.125 Q206.644 759.125 204.815 762.689 Q203.01 766.231 203.01 773.361 Q203.01 780.467 204.815 784.032 Q206.644 787.574 210.255 787.574 Q213.889 787.574 215.695 784.032 Q217.523 780.467 217.523 773.361 Q217.523 766.231 215.695 762.689 Q213.889 759.125 210.255 759.125 M210.255 755.421 Q216.065 755.421 219.121 760.027 Q222.199 764.611 222.199 773.361 Q222.199 782.088 219.121 786.694 Q216.065 791.277 210.255 791.277 Q204.445 791.277 201.366 786.694 Q198.311 782.088 198.311 773.361 Q198.311 764.611 201.366 760.027 Q204.445 755.421 210.255 755.421 Z" fill="#000000" fill-rule="nonzero" fill-opacity="1" /><path clip-path="url(#clip880)" d="M230.463 756.046 L248.82 756.046 L248.82 759.981 L234.746 759.981 L234.746 768.453 Q235.764 768.106 236.783 767.944 Q237.801 767.759 238.82 767.759 Q244.607 767.759 247.986 770.93 Q251.366 774.101 251.366 779.518 Q251.366 785.097 247.894 788.199 Q244.421 791.277 238.102 791.277 Q235.926 791.277 233.658 790.907 Q231.412 790.537 229.005 789.796 L229.005 785.097 Q231.088 786.231 233.31 786.787 Q235.533 787.342 238.009 787.342 Q242.014 787.342 244.352 785.236 Q246.69 783.129 246.69 779.518 Q246.69 775.907 244.352 773.801 Q242.014 771.694 238.009 771.694 Q236.135 771.694 234.26 772.111 Q232.408 772.527 230.463 773.407 L230.463 756.046 Z" fill="#000000" fill-rule="nonzero" fill-opacity="1" /><path clip-path="url(#clip880)" d="M114.26 448.85 L143.936 448.85 L143.936 452.786 L114.26 452.786 L114.26 448.85 Z" fill="#000000" fill-rule="nonzero" fill-opacity="1" /><path clip-path="url(#clip880)" d="M154.839 461.744 L162.477 461.744 L162.477 435.378 L154.167 437.045 L154.167 432.786 L162.431 431.119 L167.107 431.119 L167.107 461.744 L174.746 461.744 L174.746 465.679 L154.839 465.679 L154.839 461.744 Z" fill="#000000" fill-rule="nonzero" fill-opacity="1" /><path clip-path="url(#clip880)" d="M184.19 459.799 L189.075 459.799 L189.075 465.679 L184.19 465.679 L184.19 459.799 Z" fill="#000000" fill-rule="nonzero" fill-opacity="1" /><path clip-path="url(#clip880)" d="M209.26 434.198 Q205.649 434.198 203.82 437.763 Q202.014 441.304 202.014 448.434 Q202.014 455.54 203.82 459.105 Q205.649 462.647 209.26 462.647 Q212.894 462.647 214.699 459.105 Q216.528 455.54 216.528 448.434 Q216.528 441.304 214.699 437.763 Q212.894 434.198 209.26 434.198 M209.26 430.494 Q215.07 430.494 218.125 435.101 Q221.204 439.684 221.204 448.434 Q221.204 457.161 218.125 461.767 Q215.07 466.35 209.26 466.35 Q203.449 466.35 200.371 461.767 Q197.315 457.161 197.315 448.434 Q197.315 439.684 200.371 435.101 Q203.449 430.494 209.26 430.494 Z" fill="#000000" fill-rule="nonzero" fill-opacity="1" /><path clip-path="url(#clip880)" d="M239.422 434.198 Q235.81 434.198 233.982 437.763 Q232.176 441.304 232.176 448.434 Q232.176 455.54 233.982 459.105 Q235.81 462.647 239.422 462.647 Q243.056 462.647 244.861 459.105 Q246.69 455.54 246.69 448.434 Q246.69 441.304 244.861 437.763 Q243.056 434.198 239.422 434.198 M239.422 430.494 Q245.232 430.494 248.287 435.101 Q251.366 439.684 251.366 448.434 Q251.366 457.161 248.287 461.767 Q245.232 466.35 239.422 466.35 Q233.611 466.35 230.533 461.767 Q227.477 457.161 227.477 448.434 Q227.477 439.684 230.533 435.101 Q233.611 430.494 239.422 430.494 Z" fill="#000000" fill-rule="nonzero" fill-opacity="1" /><path clip-path="url(#clip880)" d="M115.256 123.924 L144.931 123.924 L144.931 127.859 L115.256 127.859 L115.256 123.924 Z" fill="#000000" fill-rule="nonzero" fill-opacity="1" /><path clip-path="url(#clip880)" d="M165.024 109.271 Q161.413 109.271 159.584 112.836 Q157.778 116.377 157.778 123.507 Q157.778 130.613 159.584 134.178 Q161.413 137.72 165.024 137.72 Q168.658 137.72 170.464 134.178 Q172.292 130.613 172.292 123.507 Q172.292 116.377 170.464 112.836 Q168.658 109.271 165.024 109.271 M165.024 105.567 Q170.834 105.567 173.889 110.174 Q176.968 114.757 176.968 123.507 Q176.968 132.234 173.889 136.84 Q170.834 141.423 165.024 141.423 Q159.214 141.423 156.135 136.84 Q153.079 132.234 153.079 123.507 Q153.079 114.757 156.135 110.174 Q159.214 105.567 165.024 105.567 Z" fill="#000000" fill-rule="nonzero" fill-opacity="1" /><path clip-path="url(#clip880)" d="M185.186 134.873 L190.07 134.873 L190.07 140.752 L185.186 140.752 L185.186 134.873 Z" fill="#000000" fill-rule="nonzero" fill-opacity="1" /><path clip-path="url(#clip880)" d="M200.394 140.035 L200.394 135.775 Q202.153 136.609 203.959 137.048 Q205.764 137.488 207.5 137.488 Q212.13 137.488 214.561 134.386 Q217.014 131.261 217.361 124.919 Q216.019 126.91 213.959 127.974 Q211.899 129.039 209.399 129.039 Q204.213 129.039 201.181 125.914 Q198.172 122.766 198.172 117.326 Q198.172 112.002 201.32 108.785 Q204.468 105.567 209.699 105.567 Q215.695 105.567 218.843 110.174 Q222.014 114.757 222.014 123.507 Q222.014 131.678 218.125 136.562 Q214.26 141.423 207.709 141.423 Q205.949 141.423 204.144 141.076 Q202.338 140.729 200.394 140.035 M209.699 125.382 Q212.848 125.382 214.676 123.229 Q216.528 121.076 216.528 117.326 Q216.528 113.599 214.676 111.447 Q212.848 109.271 209.699 109.271 Q206.551 109.271 204.699 111.447 Q202.871 113.599 202.871 117.326 Q202.871 121.076 204.699 123.229 Q206.551 125.382 209.699 125.382 Z" fill="#000000" fill-rule="nonzero" fill-opacity="1" /><path clip-path="url(#clip880)" d="M230.463 106.192 L248.82 106.192 L248.82 110.127 L234.746 110.127 L234.746 118.599 Q235.764 118.252 236.783 118.09 Q237.801 117.905 238.82 117.905 Q244.607 117.905 247.986 121.076 Q251.366 124.248 251.366 129.664 Q251.366 135.243 247.894 138.345 Q244.421 141.423 238.102 141.423 Q235.926 141.423 233.658 141.053 Q231.412 140.683 229.005 139.942 L229.005 135.243 Q231.088 136.377 233.31 136.933 Q235.533 137.488 238.009 137.488 Q242.014 137.488 244.352 135.382 Q246.69 133.275 246.69 129.664 Q246.69 126.053 244.352 123.947 Q242.014 121.84 238.009 121.84 Q236.135 121.84 234.26 122.257 Q232.408 122.674 230.463 123.553 L230.463 106.192 Z" fill="#000000" fill-rule="nonzero" fill-opacity="1" /><path clip-path="url(#clip880)" d="M23.0249 792.024 L34.4257 793.345 Q35.4563 793.441 35.7784 793.602 Q36.0682 793.763 36.0682 794.279 Q36.0682 794.665 35.8428 794.89 Q35.5851 795.084 35.2953 795.084 Q35.1343 795.084 34.7156 795.052 Q34.2969 795.019 34.1037 795.019 Q32.1069 794.729 30.5932 794.729 Q27.7913 794.729 26.2777 795.567 Q24.7318 796.404 24.0232 798.562 Q23.2825 800.72 23.2825 804.778 L23.2825 814.053 Q23.2825 816.179 23.669 816.694 Q24.0554 817.177 25.859 817.628 L41.7365 821.589 L41.7365 815.373 Q41.7365 813.055 41.4466 811.67 Q41.1568 810.253 40.3516 809.319 Q39.5143 808.353 38.3871 807.837 Q37.2598 807.29 35.2309 806.742 Q34.5546 806.581 34.2969 806.42 Q34.0393 806.227 34.0393 805.808 Q34.0393 805.486 34.2647 805.261 Q34.4579 805.035 34.7478 805.035 L50.1744 808.803 Q50.9473 808.997 51.2372 809.19 Q51.4948 809.383 51.4948 809.77 Q51.4948 810.188 51.2694 810.414 Q51.044 810.639 50.7863 810.639 Q50.5287 810.639 50.0456 810.446 Q47.9522 809.963 46.825 809.963 Q46.1809 809.963 45.8588 810.027 Q45.5368 810.059 45.0859 810.349 Q44.6028 810.607 44.3773 811.187 Q44.1519 811.766 43.9909 812.861 Q43.7976 813.956 43.7976 815.599 L43.7976 822.104 L61.8007 826.613 Q62.9923 826.935 63.3144 826.935 Q63.6687 826.935 63.7975 826.774 Q63.8941 826.581 63.9585 826.066 Q64.0551 825.486 64.0551 824.616 L64.0551 814.987 Q64.0551 812.861 63.8619 811.154 Q63.6687 809.448 63.1856 808.03 Q62.7025 806.581 62.155 805.486 Q61.6075 804.391 60.6091 803.361 Q59.5785 802.33 58.6767 801.622 Q57.7428 800.881 56.1647 800.011 Q54.5866 799.142 53.2984 798.53 Q51.9779 797.918 49.8523 796.984 Q49.0794 796.726 49.0794 796.114 Q49.0794 795.76 49.2726 795.567 Q49.4337 795.374 49.5947 795.341 L49.7879 795.341 Q50.3998 795.535 50.7219 795.663 L64.9569 801.718 Q65.762 802.072 65.9231 802.362 Q66.0841 802.652 66.0841 803.779 L66.0841 838.014 Q66.0841 838.787 66.0519 839.109 Q66.0197 839.399 65.8587 839.624 Q65.6654 839.85 65.2789 839.85 Q64.667 839.85 64.4094 839.592 Q64.1195 839.335 64.0873 839.045 Q64.0551 838.755 64.0551 838.014 Q64.0551 836.404 63.9585 835.438 Q63.8619 834.471 63.7331 833.86 Q63.572 833.215 63.1212 832.893 Q62.6703 832.539 62.2838 832.378 Q61.8651 832.217 60.9312 831.992 L26.0522 823.296 Q24.8606 822.974 24.4741 822.974 Q24.0554 822.974 23.7978 823.264 Q23.5402 823.521 23.4435 824.23 Q23.3147 824.939 23.3147 825.518 Q23.2825 826.066 23.2825 827.257 Q23.2825 828.03 23.2503 828.352 Q23.2181 828.642 23.0571 828.868 Q22.896 829.093 22.5418 829.093 Q21.64 829.093 21.4468 828.707 Q21.2213 828.288 21.2213 827.129 L21.2213 793.828 Q21.2213 792.507 21.5112 792.217 Q21.7688 791.895 23.0249 792.024 Z" fill="#000000" fill-rule="nonzero" fill-opacity="1" /><path clip-path="url(#clip880)" d="M49.5947 785.315 Q38.4515 785.315 29.466 781.161 Q25.6979 779.389 22.5418 776.91 Q19.3856 774.43 18.0007 772.787 Q16.6159 771.145 16.6159 770.694 Q16.6159 770.05 17.26 770.017 Q17.5821 770.017 18.3872 770.887 Q29.2084 781.515 49.5947 781.483 Q70.0454 781.483 80.4479 771.145 Q81.5751 770.017 81.9294 770.017 Q82.5735 770.017 82.5735 770.694 Q82.5735 771.145 81.2531 772.723 Q79.9326 774.301 76.9053 776.748 Q73.8779 779.196 70.1742 780.967 Q61.1888 785.315 49.5947 785.315 Z" fill="#000000" fill-rule="nonzero" fill-opacity="1" /><path clip-path="url(#clip880)" d="M41.2212 738.144 Q42.9281 738.144 44.0231 739.271 Q45.1181 740.366 45.1181 741.783 Q45.1181 743.007 44.4096 743.651 Q43.701 744.295 42.7993 744.295 Q41.511 744.295 40.4482 743.297 Q39.3854 742.299 39.16 740.849 Q38.3871 741.912 38.3871 743.619 Q38.3871 746.421 40.5448 748.901 Q41.5432 749.996 43.379 751.188 Q45.1825 752.379 45.9554 752.605 L54.5544 754.698 Q55.5206 754.891 60.1582 756.083 Q64.7637 757.242 64.9569 757.339 Q65.8587 757.661 66.3417 758.369 Q66.8248 759.078 66.8248 759.786 Q66.8248 760.592 66.3417 761.139 Q65.8587 761.687 65.0213 761.687 Q64.8925 761.687 64.4094 761.59 Q63.9263 761.493 63.25 761.332 Q62.5737 761.171 62.1872 761.107 L46.9538 757.274 Q44.1841 756.566 43.3146 756.405 Q42.4128 756.212 41.4144 756.212 Q39.6753 756.212 39.0312 756.759 Q38.3871 757.307 38.3871 758.273 Q38.3871 759.948 40.3838 761.043 Q42.3806 762.138 46.2453 763.071 Q47.3081 763.361 47.5335 763.555 Q47.759 763.716 47.759 764.199 Q47.7268 765.004 47.0826 765.004 Q46.9216 765.004 45.891 764.746 Q44.8282 764.489 43.2823 764.005 Q41.7043 763.49 40.7059 762.943 Q40.0296 762.621 39.5787 762.331 Q39.1278 762.041 38.4193 761.461 Q37.7107 760.881 37.3243 760.012 Q36.9378 759.142 36.9378 758.08 Q36.9378 755.761 38.3548 754.118 Q39.7719 752.444 41.9941 752.057 Q40.8347 751.252 39.8363 750.254 Q38.8057 749.255 37.8718 747.419 Q36.9378 745.584 36.9378 743.619 Q36.9378 741.171 38.1938 739.658 Q39.4176 738.144 41.2212 738.144 Z" fill="#000000" fill-rule="nonzero" fill-opacity="1" /><path clip-path="url(#clip880)" d="M81.9294 732.13 Q81.6073 732.13 80.8022 731.292 Q69.981 720.664 49.5947 720.664 Q29.144 720.664 18.8059 730.873 Q17.6143 732.13 17.26 732.13 Q16.6159 732.13 16.6159 731.485 Q16.6159 731.035 17.9363 729.456 Q19.2568 727.846 22.2841 725.431 Q25.3115 722.983 29.0151 721.18 Q38.0006 716.832 49.5947 716.832 Q60.7379 716.832 69.7234 720.986 Q73.4914 722.758 76.6476 725.237 Q79.8038 727.717 81.1886 729.36 Q82.5735 731.002 82.5735 731.485 Q82.5735 732.13 81.9294 732.13 Z" fill="#000000" fill-rule="nonzero" fill-opacity="1" /><path clip-path="url(#clip880)" d="M974.255 12.096 L982.438 12.096 L982.438 36.8875 L1012.17 36.8875 L1012.17 12.096 L1020.35 12.096 L1020.35 72.576 L1012.17 72.576 L1012.17 43.7741 L982.438 43.7741 L982.438 72.576 L974.255 72.576 L974.255 12.096 Z" fill="#000000" fill-rule="nonzero" fill-opacity="1" /><path clip-path="url(#clip880)" d="M1044.42 65.6895 L1072.98 65.6895 L1072.98 72.576 L1034.57 72.576 L1034.57 65.6895 Q1039.23 60.8689 1047.25 52.7671 Q1055.31 44.6248 1057.38 42.2752 Q1061.31 37.8598 1062.85 34.8216 Q1064.43 31.7429 1064.43 28.7857 Q1064.43 23.9651 1061.03 20.927 Q1057.66 17.8888 1052.24 17.8888 Q1048.39 17.8888 1044.09 19.2256 Q1039.84 20.5624 1034.98 23.2765 L1034.98 15.0127 Q1039.92 13.0277 1044.21 12.015 Q1048.51 11.0023 1052.07 11.0023 Q1061.47 11.0023 1067.06 15.7013 Q1072.65 20.4004 1072.65 28.2591 Q1072.65 31.9859 1071.23 35.3482 Q1069.86 38.6699 1066.17 43.2069 Q1065.16 44.3817 1059.73 50.0125 Q1054.3 55.6027 1044.42 65.6895 Z" fill="#000000" fill-rule="nonzero" fill-opacity="1" /><path clip-path="url(#clip880)" d="M1091 62.2867 L1099.55 62.2867 L1099.55 69.2543 L1092.91 82.2172 L1087.68 82.2172 L1091 69.2543 L1091 62.2867 Z" fill="#000000" fill-rule="nonzero" fill-opacity="1" /><path clip-path="url(#clip880)" d="M1141.23 12.096 L1149.46 12.096 L1149.46 48.8377 Q1149.46 58.5599 1152.98 62.8538 Q1156.51 67.1073 1164.4 67.1073 Q1172.26 67.1073 1175.79 62.8538 Q1179.31 58.5599 1179.31 48.8377 L1179.31 12.096 L1187.54 12.096 L1187.54 49.8504 Q1187.54 61.6791 1181.66 67.7149 Q1175.83 73.7508 1164.4 73.7508 Q1152.94 73.7508 1147.07 67.7149 Q1141.23 61.6791 1141.23 49.8504 L1141.23 12.096 Z" fill="#000000" fill-rule="nonzero" fill-opacity="1" /><path clip-path="url(#clip880)" d="M1202.89 12.096 L1211.07 12.096 L1211.07 36.8875 L1240.8 36.8875 L1240.8 12.096 L1248.99 12.096 L1248.99 72.576 L1240.8 72.576 L1240.8 43.7741 L1211.07 43.7741 L1211.07 72.576 L1202.89 72.576 L1202.89 12.096 Z" fill="#000000" fill-rule="nonzero" fill-opacity="1" /><path clip-path="url(#clip880)" d="M1265.27 12.096 L1300.03 12.096 L1300.03 18.9825 L1273.46 18.9825 L1273.46 36.8065 L1297.44 36.8065 L1297.44 43.6931 L1273.46 43.6931 L1273.46 72.576 L1265.27 72.576 L1265.27 12.096 Z" fill="#000000" fill-rule="nonzero" fill-opacity="1" /><path clip-path="url(#clip880)" d="M1325.91 12.096 L1332.8 12.096 L1311.74 80.2727 L1304.85 80.2727 L1325.91 12.096 Z" fill="#000000" fill-rule="nonzero" fill-opacity="1" /><path clip-path="url(#clip880)" d="M1360.19 39.075 Q1354.68 39.075 1351.44 42.8424 Q1348.23 46.6097 1348.23 53.1722 Q1348.23 59.6941 1351.44 63.502 Q1354.68 67.2693 1360.19 67.2693 Q1365.69 67.2693 1368.89 63.502 Q1372.14 59.6941 1372.14 53.1722 Q1372.14 46.6097 1368.89 42.8424 Q1365.69 39.075 1360.19 39.075 M1376.43 13.4328 L1376.43 20.8865 Q1373.35 19.4281 1370.19 18.6585 Q1367.07 17.8888 1363.99 17.8888 Q1355.89 17.8888 1351.6 23.3575 Q1347.34 28.8262 1346.74 39.8852 Q1349.13 36.3609 1352.73 34.4975 Q1356.34 32.5936 1360.67 32.5936 Q1369.79 32.5936 1375.05 38.1433 Q1380.36 43.6525 1380.36 53.1722 Q1380.36 62.4892 1374.85 68.12 Q1369.34 73.7508 1360.19 73.7508 Q1349.69 73.7508 1344.14 65.73 Q1338.59 57.6687 1338.59 42.3968 Q1338.59 28.0566 1345.4 19.5497 Q1352.2 11.0023 1363.67 11.0023 Q1366.75 11.0023 1369.87 11.6099 Q1373.03 12.2175 1376.43 13.4328 Z" fill="#000000" fill-rule="nonzero" fill-opacity="1" /><path clip-path="url(#clip880)" d="M1389.64 46.5287 L1411.47 46.5287 L1411.47 53.1722 L1389.64 53.1722 L1389.64 46.5287 Z" fill="#000000" fill-rule="nonzero" fill-opacity="1" /><path clip-path="url(#clip880)" d="M1449.18 39.9662 Q1455.06 41.222 1458.34 45.1919 Q1461.66 49.1618 1461.66 54.9951 Q1461.66 63.9476 1455.5 68.8492 Q1449.35 73.7508 1438 73.7508 Q1434.2 73.7508 1430.14 72.9811 Q1426.13 72.2519 1421.84 70.7531 L1421.84 62.8538 Q1425.24 64.8388 1429.29 65.8515 Q1433.34 66.8642 1437.76 66.8642 Q1445.46 66.8642 1449.47 63.826 Q1453.52 60.7879 1453.52 54.9951 Q1453.52 49.6479 1449.75 46.6502 Q1446.02 43.612 1439.34 43.612 L1432.29 43.612 L1432.29 36.8875 L1439.66 36.8875 Q1445.7 36.8875 1448.9 34.4975 Q1452.1 32.067 1452.1 27.5299 Q1452.1 22.8714 1448.78 20.4004 Q1445.5 17.8888 1439.34 17.8888 Q1435.98 17.8888 1432.13 18.618 Q1428.28 19.3471 1423.66 20.8865 L1423.66 13.5948 Q1428.32 12.2985 1432.37 11.6504 Q1436.46 11.0023 1440.07 11.0023 Q1449.39 11.0023 1454.81 15.2557 Q1460.24 19.4686 1460.24 26.6793 Q1460.24 31.7024 1457.37 35.1862 Q1454.49 38.6294 1449.18 39.9662 Z" fill="#000000" fill-rule="nonzero" fill-opacity="1" /><path clip-path="url(#clip880)" d="M1478.59 65.6895 L1491.96 65.6895 L1491.96 19.5497 L1477.42 22.4663 L1477.42 15.0127 L1491.88 12.096 L1500.06 12.096 L1500.06 65.6895 L1513.43 65.6895 L1513.43 72.576 L1478.59 72.576 L1478.59 65.6895 Z" fill="#000000" fill-rule="nonzero" fill-opacity="1" /><path clip-path="url(#clip880)" d="M1570.47 63.9476 L1570.47 47.7034 L1557.1 47.7034 L1557.1 40.9789 L1578.57 40.9789 L1578.57 66.9452 Q1573.83 70.3075 1568.12 72.0494 Q1562.41 73.7508 1555.92 73.7508 Q1541.75 73.7508 1533.73 65.4869 Q1525.75 57.1826 1525.75 42.3968 Q1525.75 27.5705 1533.73 19.3066 Q1541.75 11.0023 1555.92 11.0023 Q1561.84 11.0023 1567.15 12.4606 Q1572.49 13.9189 1576.99 16.7545 L1576.99 25.464 Q1572.45 21.6156 1567.35 19.6712 Q1562.24 17.7268 1556.61 17.7268 Q1545.51 17.7268 1539.92 23.9246 Q1534.37 30.1225 1534.37 42.3968 Q1534.37 54.6305 1539.92 60.8284 Q1545.51 67.0263 1556.61 67.0263 Q1560.95 67.0263 1564.35 66.2971 Q1567.75 65.5274 1570.47 63.9476 Z" fill="#000000" fill-rule="nonzero" fill-opacity="1" /><path clip-path="url(#clip880)" d="M1624.39 22.0612 L1609.84 29.92 L1624.39 37.8192 L1622.04 41.7891 L1608.42 33.5658 L1608.42 48.8377 L1603.81 48.8377 L1603.81 33.5658 L1590.2 41.7891 L1587.85 37.8192 L1602.39 29.92 L1587.85 22.0612 L1590.2 18.0508 L1603.81 26.2742 L1603.81 11.0023 L1608.42 11.0023 L1608.42 26.2742 L1622.04 18.0508 L1624.39 22.0612 Z" fill="#000000" fill-rule="nonzero" fill-opacity="1" /><path clip-path="url(#clip880)" d="M1665.87 22.0612 L1651.32 29.92 L1665.87 37.8192 L1663.52 41.7891 L1649.91 33.5658 L1649.91 48.8377 L1645.29 48.8377 L1645.29 33.5658 L1631.68 41.7891 L1629.33 37.8192 L1643.87 29.92 L1629.33 22.0612 L1631.68 18.0508 L1645.29 26.2742 L1645.29 11.0023 L1649.91 11.0023 L1649.91 26.2742 L1663.52 18.0508 L1665.87 22.0612 Z" fill="#000000" fill-rule="nonzero" fill-opacity="1" /><circle clip-path="url(#clip882)" cx="704.164" cy="847.929" r="14.4" fill="#009af9" fill-rule="evenodd" fill-opacity="1" stroke="#000000" stroke-opacity="1" stroke-width="3.2"/>
<circle clip-path="url(#clip882)" cx="776.442" cy="1058.16" r="14.4" fill="#009af9" fill-rule="evenodd" fill-opacity="1" stroke="#000000" stroke-opacity="1" stroke-width="3.2"/>
<circle clip-path="url(#clip882)" cx="848.72" cy="1188.78" r="14.4" fill="#009af9" fill-rule="evenodd" fill-opacity="1" stroke="#000000" stroke-opacity="1" stroke-width="3.2"/>
<circle clip-path="url(#clip882)" cx="920.998" cy="1262.99" r="14.4" fill="#009af9" fill-rule="evenodd" fill-opacity="1" stroke="#000000" stroke-opacity="1" stroke-width="3.2"/>
<circle clip-path="url(#clip882)" cx="993.277" cy="1296.46" r="14.4" fill="#009af9" fill-rule="evenodd" fill-opacity="1" stroke="#000000" stroke-opacity="1" stroke-width="3.2"/>
<circle clip-path="url(#clip882)" cx="1065.55" cy="1300.49" r="14.4" fill="#009af9" fill-rule="evenodd" fill-opacity="1" stroke="#000000" stroke-opacity="1" stroke-width="3.2"/>
<circle clip-path="url(#clip882)" cx="1137.83" cy="1283.01" r="14.4" fill="#009af9" fill-rule="evenodd" fill-opacity="1" stroke="#000000" stroke-opacity="1" stroke-width="3.2"/>
<circle clip-path="url(#clip882)" cx="1210.11" cy="1249.99" r="14.4" fill="#009af9" fill-rule="evenodd" fill-opacity="1" stroke="#000000" stroke-opacity="1" stroke-width="3.2"/>
<circle clip-path="url(#clip882)" cx="1282.39" cy="1205.61" r="14.4" fill="#009af9" fill-rule="evenodd" fill-opacity="1" stroke="#000000" stroke-opacity="1" stroke-width="3.2"/>
<circle clip-path="url(#clip882)" cx="1354.67" cy="1153.1" r="14.4" fill="#009af9" fill-rule="evenodd" fill-opacity="1" stroke="#000000" stroke-opacity="1" stroke-width="3.2"/>
<circle clip-path="url(#clip882)" cx="1426.95" cy="1094.87" r="14.4" fill="#009af9" fill-rule="evenodd" fill-opacity="1" stroke="#000000" stroke-opacity="1" stroke-width="3.2"/>
<circle clip-path="url(#clip882)" cx="1499.22" cy="1032.68" r="14.4" fill="#009af9" fill-rule="evenodd" fill-opacity="1" stroke="#000000" stroke-opacity="1" stroke-width="3.2"/>
<circle clip-path="url(#clip882)" cx="1571.5" cy="967.892" r="14.4" fill="#009af9" fill-rule="evenodd" fill-opacity="1" stroke="#000000" stroke-opacity="1" stroke-width="3.2"/>
<circle clip-path="url(#clip882)" cx="1643.78" cy="901.607" r="14.4" fill="#009af9" fill-rule="evenodd" fill-opacity="1" stroke="#000000" stroke-opacity="1" stroke-width="3.2"/>
<circle clip-path="url(#clip882)" cx="1716.06" cy="834.542" r="14.4" fill="#009af9" fill-rule="evenodd" fill-opacity="1" stroke="#000000" stroke-opacity="1" stroke-width="3.2"/>
<circle clip-path="url(#clip882)" cx="1788.34" cy="767.412" r="14.4" fill="#009af9" fill-rule="evenodd" fill-opacity="1" stroke="#000000" stroke-opacity="1" stroke-width="3.2"/>
<circle clip-path="url(#clip882)" cx="1860.61" cy="700.607" r="14.4" fill="#009af9" fill-rule="evenodd" fill-opacity="1" stroke="#000000" stroke-opacity="1" stroke-width="3.2"/>
<circle clip-path="url(#clip882)" cx="1932.89" cy="634.582" r="14.4" fill="#009af9" fill-rule="evenodd" fill-opacity="1" stroke="#000000" stroke-opacity="1" stroke-width="3.2"/>
<circle clip-path="url(#clip882)" cx="2005.17" cy="569.597" r="14.4" fill="#009af9" fill-rule="evenodd" fill-opacity="1" stroke="#000000" stroke-opacity="1" stroke-width="3.2"/>
<circle clip-path="url(#clip882)" cx="2077.45" cy="505.846" r="14.4" fill="#009af9" fill-rule="evenodd" fill-opacity="1" stroke="#000000" stroke-opacity="1" stroke-width="3.2"/>
<circle clip-path="url(#clip882)" cx="2149.73" cy="443.46" r="14.4" fill="#009af9" fill-rule="evenodd" fill-opacity="1" stroke="#000000" stroke-opacity="1" stroke-width="3.2"/>
<circle clip-path="url(#clip882)" cx="2222.01" cy="382.634" r="14.4" fill="#009af9" fill-rule="evenodd" fill-opacity="1" stroke="#000000" stroke-opacity="1" stroke-width="3.2"/>
<circle clip-path="url(#clip882)" cx="2294.28" cy="323.367" r="14.4" fill="#009af9" fill-rule="evenodd" fill-opacity="1" stroke="#000000" stroke-opacity="1" stroke-width="3.2"/>
<circle clip-path="url(#clip882)" cx="1040.36" cy="1301.88" r="14.4" fill="#e26f46" fill-rule="evenodd" fill-opacity="1" stroke="#000000" stroke-opacity="1" stroke-width="3.2"/>
<polyline clip-path="url(#clip882)" style="stroke:#e26f46; stroke-linecap:round; stroke-linejoin:round; stroke-width:8; stroke-opacity:1; fill:none" points="134.374,-567.62 142.024,-536.183 149.673,-505.013 157.323,-474.11 164.972,-443.473 172.622,-413.103 180.272,-382.999 187.921,-353.162 195.571,-323.592 203.22,-294.288 210.87,-265.25 218.52,-236.479 226.169,-207.975 233.819,-179.737 241.468,-151.766 249.118,-124.061 256.768,-96.6233 264.417,-69.4517 272.067,-42.5467 279.716,-15.9083 287.366,10.4636 295.015,36.5689 302.665,62.4077 310.315,87.9799 317.964,113.286 325.614,138.325 333.263,163.097 340.913,187.603 348.563,211.843 356.212,235.816 363.862,259.522 371.511,282.962 379.161,306.135 386.811,329.042 394.46,351.682 402.11,374.055 409.759,396.162 417.409,418.003 425.059,439.577 432.708,460.884 440.358,481.925 448.007,502.699 455.657,523.207 463.307,543.448 470.956,563.422 478.606,583.13 486.255,602.572 493.905,621.747 501.554,640.655 509.204,659.297 516.854,677.672 524.503,695.781 532.153,713.623 539.802,731.198 547.452,748.507 555.102,765.55 562.751,782.326 570.401,798.835 578.05,815.078 585.7,831.054 593.35,846.764 600.999,862.207 608.649,877.384 616.298,892.294 623.948,906.937 631.598,921.314 639.247,935.424 646.897,949.268 654.546,962.845 662.196,976.156 669.846,989.2 677.495,1001.98 685.145,1014.49 692.794,1026.73 700.444,1038.71 708.093,1050.42 715.743,1061.87 723.393,1073.05 731.042,1083.96 738.692,1094.6 746.341,1104.98 753.991,1115.09 761.641,1124.94 769.29,1134.52 776.94,1143.83 784.589,1152.88 792.239,1161.65 799.889,1170.17 807.538,1178.41 815.188,1186.39 822.837,1194.11 830.487,1201.55 838.137,1208.73 845.786,1215.65 853.436,1222.29 861.085,1228.67 868.735,1234.79 876.385,1240.63 884.034,1246.21 891.684,1251.53 899.333,1256.58 906.983,1261.36 914.632,1265.87 922.282,1270.12 929.932,1274.1 937.581,1277.82 945.231,1281.26 952.88,1284.44 960.53,1287.36 968.18,1290.01 975.829,1292.39 983.479,1294.51 991.128,1296.35 998.778,1297.94 1006.43,1299.25 1014.08,1300.3 1021.73,1301.08 1029.38,1301.6 1037.03,1301.85 1044.68,1301.83 1052.33,1301.55 1059.97,1301 1067.62,1300.18 1075.27,1299.1 1082.92,1297.75 1090.57,1296.13 1098.22,1294.25 1105.87,1292.1 1113.52,1289.68 1121.17,1287 1128.82,1284.05 1136.47,1280.84 1144.12,1277.35 1151.77,1273.61 1159.42,1269.59 1167.07,1265.31 1174.72,1260.76 1182.37,1255.94 1190.02,1250.86 1197.67,1245.52 1205.32,1239.9 1212.97,1234.02 1220.62,1227.87 1228.27,1221.46 1235.92,1214.78 1243.56,1207.83 1251.21,1200.61 1258.86,1193.13 1266.51,1185.39 1274.16,1177.37 1281.81,1169.09 1289.46,1160.55 1297.11,1151.73 1304.76,1142.65 1312.41,1133.31 1320.06,1123.69 1327.71,1113.81 1335.36,1103.67 1343.01,1093.25 1350.66,1082.58 1358.31,1071.63 1365.96,1060.42 1373.61,1048.94 1381.26,1037.19 1388.91,1025.18 1396.56,1012.9 1404.21,1000.36 1411.86,987.545 1419.51,974.467 1427.16,961.122 1434.8,947.511 1442.45,933.633 1450.1,919.489 1457.75,905.078 1465.4,890.4 1473.05,875.456 1480.7,860.245 1488.35,844.768 1496,829.024 1503.65,813.014 1511.3,796.737 1518.95,780.193 1526.6,763.383 1534.25,746.307 1541.9,728.964 1549.55,711.354 1557.2,693.478 1564.85,675.335 1572.5,656.926 1580.15,638.25 1587.8,619.307 1595.45,600.098 1603.1,580.623 1610.75,560.88 1618.4,540.872 1626.04,520.597 1633.69,500.055 1641.34,479.246 1648.99,458.171 1656.64,436.83 1664.29,415.222 1671.94,393.347 1679.59,371.206 1687.24,348.799 1694.89,326.124 1702.54,303.184 1710.19,279.976 1717.84,256.502 1725.49,232.762 1733.14,208.755 1740.79,184.481 1748.44,159.941 1756.09,135.135 1763.74,110.061 1771.39,84.7215 1779.04,59.1152 1786.69,33.2423 1794.34,7.10287 1801.99,-19.3031 1809.63,-45.9757 1817.28,-72.9148 1824.93,-100.12 1832.58,-127.593 1840.23,-155.331 1847.88,-183.337 1855.53,-211.609 1863.18,-240.147 1870.83,-268.952 1878.48,-298.024 1886.13,-327.362 1893.78,-356.966 "/>
<polyline clip-path="url(#clip882)" style="stroke:#e26f46; stroke-linecap:round; stroke-linejoin:round; stroke-width:8; stroke-opacity:1; fill:none" points="866.735,1233.21 1213.99,1233.21 "/>
<polyline clip-path="url(#clip882)" style="stroke:#000000; stroke-linecap:round; stroke-linejoin:round; stroke-width:8; stroke-opacity:1; fill:none" stroke-dasharray="4, 8" points="-18.6178,1233.21 866.735,1233.21 "/>
<polyline clip-path="url(#clip882)" style="stroke:#000000; stroke-linecap:round; stroke-linejoin:round; stroke-width:8; stroke-opacity:1; fill:none" stroke-dasharray="4, 8" points="-18.6178,1301.88 1040.36,1301.88 "/>
<polyline clip-path="url(#clip882)" style="stroke:#000000; stroke-linecap:round; stroke-linejoin:round; stroke-width:8; stroke-opacity:1; fill:none" stroke-dasharray="4, 8" points="1040.36,1301.88 1040.36,3047.81 "/>
<polyline clip-path="url(#clip882)" style="stroke:#00c864; stroke-linecap:round; stroke-linejoin:round; stroke-width:0; stroke-opacity:1; fill:none" points="363.862,1301.88 363.862,1233.21 "/>
<path clip-path="url(#clip882)" d="M363.862 1269.21 L345.862 1269.21 L363.862 1233.21 L381.862 1269.21  Z" fill="#00c864" fill-rule="evenodd" fill-opacity="1"/>
<polyline clip-path="url(#clip882)" style="stroke:#00c864; stroke-linecap:round; stroke-linejoin:round; stroke-width:0; stroke-opacity:1; fill:none" points="363.862,1269.21 363.862,1301.88 "/>
<polyline clip-path="url(#clip882)" style="stroke:#00c864; stroke-linecap:round; stroke-linejoin:round; stroke-width:0; stroke-opacity:1; fill:none" points="363.862,1233.21 363.862,1301.88 "/>
<path clip-path="url(#clip882)" d="M363.862 1265.88 L381.862 1265.88 L363.862 1301.88 L345.862 1265.88  Z" fill="#00c864" fill-rule="evenodd" fill-opacity="1"/>
<polyline clip-path="url(#clip882)" style="stroke:#00c864; stroke-linecap:round; stroke-linejoin:round; stroke-width:0; stroke-opacity:1; fill:none" points="363.862,1265.88 363.862,1233.21 "/>
<polyline clip-path="url(#clip882)" style="stroke:#00c864; stroke-linecap:round; stroke-linejoin:round; stroke-width:10; stroke-opacity:1; fill:none" points="363.862,1236.89 363.862,1298.2 "/>
<path clip-path="url(#clip880)" d="M1954.06 1379.86 L2283.91 1379.86 L2283.91 1172.5 L1954.06 1172.5  Z" fill="#ffffff" fill-rule="evenodd" fill-opacity="1"/>
<polyline clip-path="url(#clip880)" style="stroke:#000000; stroke-linecap:round; stroke-linejoin:round; stroke-width:4; stroke-opacity:1; fill:none" points="1954.06,1379.86 2283.91,1379.86 2283.91,1172.5 1954.06,1172.5 1954.06,1379.86 "/>
<circle clip-path="url(#clip880)" cx="2045.86" cy="1224.34" r="20.48" fill="#009af9" fill-rule="evenodd" fill-opacity="1" stroke="#000000" stroke-opacity="1" stroke-width="4.55111"/>
<path clip-path="url(#clip880)" d="M2159.9 1208.19 L2159.9 1212.75 Q2157.23 1211.48 2154.87 1210.85 Q2152.51 1210.23 2150.31 1210.23 Q2146.49 1210.23 2144.41 1211.71 Q2142.35 1213.19 2142.35 1215.92 Q2142.35 1218.21 2143.72 1219.39 Q2145.1 1220.55 2148.95 1221.27 L2151.77 1221.85 Q2157 1222.84 2159.48 1225.37 Q2161.98 1227.87 2161.98 1232.08 Q2161.98 1237.1 2158.6 1239.69 Q2155.24 1242.29 2148.74 1242.29 Q2146.29 1242.29 2143.51 1241.73 Q2140.75 1241.18 2137.79 1240.09 L2137.79 1235.27 Q2140.64 1236.87 2143.37 1237.68 Q2146.1 1238.49 2148.74 1238.49 Q2152.74 1238.49 2154.92 1236.92 Q2157.1 1235.34 2157.1 1232.43 Q2157.1 1229.88 2155.52 1228.45 Q2153.97 1227.01 2150.41 1226.29 L2147.56 1225.74 Q2142.33 1224.7 2139.99 1222.47 Q2137.65 1220.25 2137.65 1216.29 Q2137.65 1211.71 2140.87 1209.07 Q2144.11 1206.43 2149.78 1206.43 Q2152.21 1206.43 2154.73 1206.87 Q2157.26 1207.31 2159.9 1208.19 Z" fill="#000000" fill-rule="nonzero" fill-opacity="1" /><path clip-path="url(#clip880)" d="M2195.15 1209.72 L2195.15 1214.65 Q2192.79 1212.45 2190.1 1211.36 Q2187.44 1210.27 2184.43 1210.27 Q2178.51 1210.27 2175.36 1213.91 Q2172.21 1217.52 2172.21 1224.37 Q2172.21 1231.2 2175.36 1234.83 Q2178.51 1238.44 2184.43 1238.44 Q2187.44 1238.44 2190.1 1237.36 Q2192.79 1236.27 2195.15 1234.07 L2195.15 1238.95 Q2192.7 1240.62 2189.94 1241.45 Q2187.21 1242.29 2184.16 1242.29 Q2176.31 1242.29 2171.79 1237.5 Q2167.28 1232.68 2167.28 1224.37 Q2167.28 1216.04 2171.79 1211.25 Q2176.31 1206.43 2184.16 1206.43 Q2187.26 1206.43 2189.99 1207.26 Q2192.74 1208.07 2195.15 1209.72 Z" fill="#000000" fill-rule="nonzero" fill-opacity="1" /><path clip-path="url(#clip880)" d="M2213.92 1211.66 L2207.58 1228.86 L2220.29 1228.86 L2213.92 1211.66 M2211.29 1207.06 L2216.59 1207.06 L2229.76 1241.62 L2224.9 1241.62 L2221.75 1232.75 L2206.17 1232.75 L2203.02 1241.62 L2198.09 1241.62 L2211.29 1207.06 Z" fill="#000000" fill-rule="nonzero" fill-opacity="1" /><path clip-path="url(#clip880)" d="M2234.8 1207.06 L2241.1 1207.06 L2256.42 1235.97 L2256.42 1207.06 L2260.96 1207.06 L2260.96 1241.62 L2254.66 1241.62 L2239.34 1212.7 L2239.34 1241.62 L2234.8 1241.62 L2234.8 1207.06 Z" fill="#000000" fill-rule="nonzero" fill-opacity="1" /><circle clip-path="url(#clip880)" cx="2045.86" cy="1276.18" r="20.48" fill="#e26f46" fill-rule="evenodd" fill-opacity="1" stroke="#000000" stroke-opacity="1" stroke-width="4.55111"/>
<path clip-path="url(#clip880)" d="M2153.67 1262.07 Q2148.58 1262.07 2145.57 1265.86 Q2142.58 1269.66 2142.58 1276.21 Q2142.58 1282.74 2145.57 1286.53 Q2148.58 1290.33 2153.67 1290.33 Q2158.76 1290.33 2161.73 1286.53 Q2164.71 1282.74 2164.71 1276.21 Q2164.71 1269.66 2161.73 1265.86 Q2158.76 1262.07 2153.67 1262.07 M2153.67 1258.27 Q2160.94 1258.27 2165.29 1263.16 Q2169.64 1268.02 2169.64 1276.21 Q2169.64 1284.38 2165.29 1289.27 Q2160.94 1294.13 2153.67 1294.13 Q2146.38 1294.13 2142 1289.27 Q2137.65 1284.41 2137.65 1276.21 Q2137.65 1268.02 2142 1263.16 Q2146.38 1258.27 2153.67 1258.27 Z" fill="#000000" fill-rule="nonzero" fill-opacity="1" /><path clip-path="url(#clip880)" d="M2181.63 1262.74 L2181.63 1275.72 L2187.51 1275.72 Q2190.78 1275.72 2192.56 1274.04 Q2194.34 1272.35 2194.34 1269.22 Q2194.34 1266.12 2192.56 1264.43 Q2190.78 1262.74 2187.51 1262.74 L2181.63 1262.74 M2176.96 1258.9 L2187.51 1258.9 Q2193.32 1258.9 2196.29 1261.54 Q2199.27 1264.15 2199.27 1269.22 Q2199.27 1274.34 2196.29 1276.95 Q2193.32 1279.57 2187.51 1279.57 L2181.63 1279.57 L2181.63 1293.46 L2176.96 1293.46 L2176.96 1258.9 Z" fill="#000000" fill-rule="nonzero" fill-opacity="1" /><path clip-path="url(#clip880)" d="M2200.75 1258.9 L2229.99 1258.9 L2229.99 1262.83 L2217.72 1262.83 L2217.72 1293.46 L2213.02 1293.46 L2213.02 1262.83 L2200.75 1262.83 L2200.75 1258.9 Z" fill="#000000" fill-rule="nonzero" fill-opacity="1" /><polyline clip-path="url(#clip880)" style="stroke:#e26f46; stroke-linecap:round; stroke-linejoin:round; stroke-width:8; stroke-opacity:1; fill:none" points="1977.01,1328.02 2114.7,1328.02 "/>
<path clip-path="url(#clip880)" d="M2137.65 1310.74 L2157.51 1310.74 L2157.51 1314.67 L2142.33 1314.67 L2142.33 1324.86 L2156.03 1324.86 L2156.03 1328.79 L2142.33 1328.79 L2142.33 1345.3 L2137.65 1345.3 L2137.65 1310.74 Z" fill="#000000" fill-rule="nonzero" fill-opacity="1" /><path clip-path="url(#clip880)" d="M2181.31 1329.09 Q2182.81 1329.6 2184.23 1331.27 Q2185.66 1332.94 2187.1 1335.85 L2191.84 1345.3 L2186.82 1345.3 L2182.4 1336.43 Q2180.68 1332.96 2179.06 1331.82 Q2177.47 1330.69 2174.69 1330.69 L2169.6 1330.69 L2169.6 1345.3 L2164.92 1345.3 L2164.92 1310.74 L2175.48 1310.74 Q2181.4 1310.74 2184.32 1313.21 Q2187.23 1315.69 2187.23 1320.69 Q2187.23 1323.95 2185.71 1326.11 Q2184.2 1328.26 2181.31 1329.09 M2169.6 1314.58 L2169.6 1326.85 L2175.48 1326.85 Q2178.85 1326.85 2180.57 1325.3 Q2182.3 1323.72 2182.3 1320.69 Q2182.3 1317.66 2180.57 1316.13 Q2178.85 1314.58 2175.48 1314.58 L2169.6 1314.58 Z" fill="#000000" fill-rule="nonzero" fill-opacity="1" /><path clip-path="url(#clip880)" d="M2197.86 1310.74 L2219.71 1310.74 L2219.71 1314.67 L2202.54 1314.67 L2202.54 1324.9 L2218.99 1324.9 L2218.99 1328.84 L2202.54 1328.84 L2202.54 1341.36 L2220.13 1341.36 L2220.13 1345.3 L2197.86 1345.3 L2197.86 1310.74 Z" fill="#000000" fill-rule="nonzero" fill-opacity="1" /><path clip-path="url(#clip880)" d="M2241.84 1313.91 Q2236.75 1313.91 2233.74 1317.7 Q2230.75 1321.5 2230.75 1328.05 Q2230.75 1334.58 2233.74 1338.37 Q2236.75 1342.17 2241.84 1342.17 Q2246.93 1342.17 2249.9 1338.37 Q2252.88 1334.58 2252.88 1328.05 Q2252.88 1321.5 2249.9 1317.7 Q2246.93 1313.91 2241.84 1313.91 M2248.39 1344.67 L2254.55 1351.41 L2248.9 1351.41 L2243.78 1345.87 Q2243.02 1345.92 2242.6 1345.94 Q2242.21 1345.97 2241.84 1345.97 Q2234.55 1345.97 2230.17 1341.11 Q2225.82 1336.22 2225.82 1328.05 Q2225.82 1319.86 2230.17 1315 Q2234.55 1310.11 2241.84 1310.11 Q2249.11 1310.11 2253.46 1315 Q2257.81 1319.86 2257.81 1328.05 Q2257.81 1334.07 2255.38 1338.35 Q2252.97 1342.63 2248.39 1344.67 Z" fill="#000000" fill-rule="nonzero" fill-opacity="1" /></svg>
